<?xml version="1.0" standalone="no"?>
<!DOCTYPE svg PUBLIC "-//W3C//DTD SVG 1.1//EN" "http://www.w3.org/Graphics/SVG/1.1/DTD/svg11.dtd" >
<svg xmlns="http://www.w3.org/2000/svg">
<metadata></metadata>
<defs>
<font id="bentonsanscondensed_black" horiz-adv-x="1120" >
<font-face units-per-em="2048" ascent="1638" descent="-410" />
<missing-glyph horiz-adv-x="483" />
<glyph horiz-adv-x="0" />
<glyph unicode="&#xd;" horiz-adv-x="681" />
<glyph unicode=" "  horiz-adv-x="483" />
<glyph unicode="&#x09;" horiz-adv-x="483" />
<glyph unicode="&#xa0;" horiz-adv-x="483" />
<glyph unicode="!" horiz-adv-x="673" d="M117 1516h452l-73 -1047h-306zM145 0v334h396v-334h-396z" />
<glyph unicode="&#x22;" horiz-adv-x="876" d="M88 1380v136h311v-136l-28 -422h-254zM477 1380v136h311v-136l-28 -422h-254z" />
<glyph unicode="#" horiz-adv-x="1378" d="M25 377v280h231l37 201h-195v281h246l68 377h329l-65 -377h135l68 377h329l-65 -377h211v-281h-262l-37 -201h223v-280h-274l-64 -377h-332l64 377h-133l-66 -377h-332l64 377h-180zM586 651h139l39 213h-139z" />
<glyph unicode="$" horiz-adv-x="1204" d="M41 444l321 88q76 -246 256 -245q76 0 120 32.5t44 94.5q0 53 -37.5 92t-99 64.5t-135.5 49t-147.5 58.5t-135 82t-99.5 129t-38 190q0 172 102.5 285.5t284.5 146.5v166h256v-166q276 -55 389 -389l-309 -118q-76 215 -231 215q-63 0 -97 -30t-34 -81q0 -74 71.5 -121 t173 -78.5t203.5 -76t174 -140.5t72 -243q0 -172 -104.5 -293t-307.5 -152v-194h-256v196q-332 57 -436 438z" />
<glyph unicode="%" horiz-adv-x="1978" d="M31 1024q0 252 99 380t280 128q182 0 280 -128t98 -380q0 -254 -98 -382t-280.5 -128t-280.5 129t-98 381zM332 1024q0 -141 15.5 -196.5t62.5 -55.5q49 0 63 53.5t14 198.5q0 141 -14 192.5t-63.5 51.5t-63.5 -50.5t-14 -193.5zM453 0l768 1516h303l-768 -1516h-303z M1190 493.5q0 251.5 99.5 379.5t279.5 128q182 0 280.5 -128t98.5 -379q0 -254 -98.5 -382t-281 -128t-280.5 129t-98 380.5zM1491 494q0 -141 15.5 -196.5t62.5 -55.5q49 0 63.5 53t14.5 199q0 141 -14.5 192t-63.5 51t-63.5 -50t-14.5 -193z" />
<glyph unicode="&#x26;" horiz-adv-x="1349" d="M8 365q0 166 78 266t217 178q-82 184 -82 348q0 176 112.5 281.5t305.5 105.5q197 0 291 -95t94 -232q0 -158 -82 -258.5t-229 -192.5q4 -6 59 -86q61 -84 125 -150q43 121 51 261h312q-35 -268 -117 -443q96 -47 207 -55v-313q-252 6 -428 100q-158 -109 -385 -109 q-254 0 -391.5 104.5t-137.5 289.5zM371 412q0 -88 49 -132t131 -44q70 0 131 28q-78 82 -168 203q-31 39 -78 106q-66 -72 -65 -161zM557 1180q0 -82 45 -201q117 90 117 217q0 92 -74 92q-37 0 -62.5 -26.5t-25.5 -81.5z" />
<glyph unicode="'" horiz-adv-x="491" d="M88 1380v136h315v-136l-30 -422h-256z" />
<glyph unicode="(" horiz-adv-x="747" d="M55 580q0 561 445 999l217 -160q-279 -410 -279 -839q0 -233 78 -456.5t207 -389.5l-223 -156q-444 434 -445 1002z" />
<glyph unicode=")" horiz-adv-x="747" d="M25 -266q285 408 284 844q0 231 -75.5 453t-202.5 388l217 160q444 -430 444 -1001q0 -558 -442 -1000z" />
<glyph unicode="*" horiz-adv-x="1005" d="M51 969v225l320 -35l-195 254l203 117l123 -285l127 285l202 -117l-188 -252l311 33v-225l-309 30l186 -247l-200 -117l-129 280l-123 -280l-201 117l182 247z" />
<glyph unicode="+" horiz-adv-x="1187" d="M115 559v303h323v385h312v-385h323v-303h-323v-385h-312v385h-323z" />
<glyph unicode="," horiz-adv-x="509" d="M70 0v360h370v-319l-153 -281h-174l102 240h-145z" />
<glyph unicode="-" horiz-adv-x="655" d="M59 504v262h535v-262h-535z" />
<glyph unicode="." horiz-adv-x="509" d="M70 0v360h370v-360h-370z" />
<glyph unicode="/" horiz-adv-x="1167" d="M18 0l748 1516h381l-748 -1516h-381z" />
<glyph unicode="0" horiz-adv-x="1249" d="M53 758q0 389 147.5 587.5t422.5 198.5q276 0 422.5 -198.5t146.5 -587.5t-146.5 -588t-422.5 -199q-274 0 -422 199t-148 588zM432 758q0 -260 45.5 -369.5t145.5 -109.5q102 0 146 108.5t44 370.5q0 260 -44 364.5t-146.5 104.5t-146.5 -104.5t-44 -364.5z" />
<glyph unicode="1" horiz-adv-x="860" d="M33 0v303h231v868q-111 -70 -227 -69v315q152 6 235 99h363v-1213h203v-303h-805z" />
<glyph unicode="2" horiz-adv-x="1112" d="M29 0v33q0 150 35.5 272.5t93 203.5t128 147.5t140.5 117.5t127 101.5t93 112t36 132.5q0 102 -111 103q-63 0 -124.5 -52.5t-106.5 -152.5l-299 135q174 391 555 391q217 0 336 -113.5t119 -293.5q0 -131 -59.5 -242t-144.5 -184.5t-170 -138t-146.5 -132t-65.5 -137.5 h584v-303h-1020z" />
<glyph unicode="3" horiz-adv-x="1134" d="M-8 319l295 136q82 -188 239 -189q88 0 137.5 50.5t49.5 123.5q0 115 -73 164t-214 49h-78v279h88q141 0 191.5 45t50.5 137q0 123 -135 123q-143 0 -244 -152l-250 170q195 289 526 289q211 0 341.5 -103.5t130.5 -281.5q0 -129 -68 -222t-188 -128q291 -84 290 -379 q0 -219 -148 -339t-388 -120q-199 0 -340.5 94.5t-212.5 253.5z" />
<glyph unicode="4" horiz-adv-x="1236" d="M27 295v260l579 961h406v-941h205v-280h-205v-295h-365v295h-620zM383 575h270v453h-2z" />
<glyph unicode="5" horiz-adv-x="1118" d="M2 319l295 136q82 -188 240 -189q94 0 140 54.5t46 181.5q0 236 -186 235q-51 0 -104.5 -32.5t-88.5 -86.5l-262 58l51 840h862l-18 -320h-545l-22 -285q84 113 268 113q209 0 311.5 -132t102.5 -380q0 -256 -143.5 -398.5t-393.5 -142.5q-199 0 -340 94.5t-213 253.5z " />
<glyph unicode="6" horiz-adv-x="1165" d="M53 731q0 420 159 616.5t425 196.5q319 0 467 -301l-301 -147q-72 150 -174 149q-94 0 -146.5 -82t-64.5 -280q135 104 303 104q186 0 302 -128t116 -367q0 -233 -142.5 -377t-384.5 -144q-270 0 -414.5 193.5t-144.5 566.5zM416 621q10 -199 61.5 -282t155.5 -83 q78 0 114.5 59.5t36.5 157.5q0 215 -155 215q-119 0 -213 -67z" />
<glyph unicode="7" horiz-adv-x="962" d="M-4 1196v320h969v-297l-471 -1219h-388l469 1196h-579z" />
<glyph unicode="8" horiz-adv-x="1159" d="M27 387q0 125 76.5 229.5t193.5 169.5q-109 74 -161 153t-52 218q0 164 130 275.5t366 111.5q242 0 368.5 -110.5t126.5 -276.5q0 -111 -57 -211t-154 -158q133 -76 201 -160.5t68 -240.5q0 -195 -146.5 -305.5t-406.5 -110.5q-266 0 -409.5 112t-143.5 304zM403 408 q0 -70 44.5 -116t130.5 -46q84 0 129 46t45 116q0 68 -45 119t-150 102q-154 -100 -154 -221zM449 1128q-1 -118 149 -196q117 84 117 190q0 59 -32 97t-99.5 38t-101 -35.5t-33.5 -93.5z" />
<glyph unicode="9" horiz-adv-x="1165" d="M27 1024q0 231 145 375.5t381 144.5q559 0 559 -760q0 -420 -159 -616.5t-425 -196.5q-319 0 -467 301l301 148q78 -160 175 -160q94 0 145 85t66 288q-135 -104 -304 -105q-186 0 -301.5 128t-115.5 368zM381 1042q0 -215 156 -215q119 0 213 68q-10 195 -62.5 274.5 t-155.5 79.5q-152 0 -151 -207z" />
<glyph unicode=":" horiz-adv-x="534" d="M82 0v360h371v-360h-371zM82 735v361h371v-361h-371z" />
<glyph unicode=";" horiz-adv-x="534" d="M82 0v360h371v-313l-158 -287h-174l102 240h-141zM82 735v361h371v-361h-371z" />
<glyph unicode="&#x3c;" horiz-adv-x="1187" d="M131 551v225l922 445v-312l-555 -245l555 -246v-312z" />
<glyph unicode="=" horiz-adv-x="1187" d="M117 315v273h952v-273h-952zM117 754v272h952v-272h-952z" />
<glyph unicode="&#x3e;" horiz-adv-x="1187" d="M135 106v312l555 246l-555 245v312l922 -445v-225z" />
<glyph unicode="?" horiz-adv-x="1062" d="M63 1155q61 182 194.5 285.5t330.5 103.5q205 0 312.5 -100.5t107.5 -255.5q0 -68 -13.5 -121t-48.5 -103.5t-52 -70t-69 -72.5q-102 -106 -129.5 -165.5t-27.5 -190.5h-314q-6 49 -6 123q0 78 32 148.5t63.5 108.5t88.5 97q10 10 17 16q55 57 81.5 101.5t26.5 93.5 q0 88 -96 88q-63 0 -113.5 -57.5t-78.5 -134.5zM311 0v334h396v-334h-396z" />
<glyph unicode="@" horiz-adv-x="1554" d="M61 756q0 356 199 572t520.5 216t517 -210t195.5 -556q0 -221 -96.5 -342t-284.5 -121q-201 0 -268 164q-100 -147 -254 -147q-115 0 -174.5 95t-55.5 259q4 246 93.5 383t230.5 137q131 0 186 -106l11 88h274l-78 -598q-8 -72 9.5 -99.5t72.5 -27.5q174 0 174 311 q0 297 -150.5 460t-406.5 163t-403.5 -165t-147.5 -474q0 -647 547 -647q225 0 356 92l72 -115q-74 -55 -194.5 -86t-241.5 -31q-336 0 -519.5 203t-183.5 582zM643 719q-4 -82 12.5 -121t63.5 -39q37 0 82 37l43 340q-35 35 -78 35q-113 0 -123 -252z" />
<glyph unicode="A" horiz-adv-x="1271" d="M8 0l443 1522h370l443 -1522h-383l-64 256h-389l-66 -256h-354zM502 549h243l-26 115q-80 324 -90 387h-4q-10 -63 -23.5 -120t-37 -140.5t-34.5 -126.5z" />
<glyph unicode="B" horiz-adv-x="1259" d="M111 0v1516h555q100 0 178 -14.5t152.5 -52.5t116.5 -117t42 -193q0 -281 -248 -351v-4q133 -27 206 -108.5t73 -259.5q0 -117 -45 -202t-122 -129t-162 -64.5t-181 -20.5h-565zM481 293h166q176 0 176 176q0 174 -180 174h-162v-350zM481 903h158q84 0 122 36t38 118 q0 80 -38 115.5t-120 35.5h-160v-305z" />
<glyph unicode="C" horiz-adv-x="1259" d="M51 757.5q0 401.5 166 594t449 192.5q254 0 379.5 -138t158.5 -405l-358 -63q-23 152 -64 217.5t-129 65.5q-115 0 -167 -114t-52 -349q0 -473 223 -473q92 0 136.5 66.5t68.5 236.5l359 -58q-20 -125 -59.5 -220t-104 -174t-166 -121t-236.5 -42q-283 0 -443.5 191.5 t-160.5 593z" />
<glyph unicode="D" horiz-adv-x="1310" d="M111 0v1516h428q162 0 283.5 -33t225 -113t158 -232.5t54.5 -373.5q0 -225 -55.5 -380t-159 -235.5t-225.5 -114.5t-281 -34h-428zM492 315h79q178 0 242 96.5t64 352.5q0 246 -64.5 339t-243.5 93h-77v-881z" />
<glyph unicode="E" horiz-adv-x="1095" d="M111 0v1516h915v-320h-534v-264h380v-299h-380v-324h559v-309h-940z" />
<glyph unicode="F" horiz-adv-x="1028" d="M111 0v1516h895v-320h-514v-309h364v-299h-364v-588h-381z" />
<glyph unicode="G" horiz-adv-x="1327" d="M51 762q0 377 158 579.5t457 202.5q229 0 357 -126t177 -417l-346 -69q-29 162 -76 225.5t-125 63.5q-45 0 -78.5 -16.5t-68.5 -60.5t-53.5 -139.5t-18.5 -238.5t17.5 -241.5t52.5 -148.5t74.5 -70.5t93.5 -20.5q168 0 211 207h-185v280h529v-772h-275v188h-4 q-25 -80 -116 -146.5t-218 -66.5q-272 0 -417.5 207t-145.5 580z" />
<glyph unicode="H" horiz-adv-x="1353" d="M111 0v1516h381v-572h370v572h381v-1516h-381v633h-370v-633h-381z" />
<glyph unicode="I" horiz-adv-x="622" d="M121 0v1516h381v-1516h-381z" />
<glyph unicode="J" horiz-adv-x="962" d="M8 90l146 279q125 -68 229 -68q59 0 86 34t27 111v1070h381v-1113q0 -199 -108 -312.5t-335 -113.5q-242 0 -426 113z" />
<glyph unicode="K" horiz-adv-x="1280" d="M111 0v1516h376v-592q59 117 117 209l225 383h408l-399 -601l438 -915h-414l-272 590l-103 -141v-449h-376z" />
<glyph unicode="L" horiz-adv-x="1077" d="M111 0v1516h381v-1207h552v-309h-933z" />
<glyph unicode="M" horiz-adv-x="1603" d="M111 0v1516h487l207 -988h2l188 988h496v-1516h-361v977h-4q-4 -98 -63 -367l-139 -610h-279l-135 608q-57 262 -66 379h-4v-987h-329z" />
<glyph unicode="N" horiz-adv-x="1359" d="M111 0v1516h381l284 -558q59 -119 119 -256h4v814h344v-1516h-352l-336 614q-59 109 -96 195h-4v-809h-344z" />
<glyph unicode="O" horiz-adv-x="1359" d="M51 757.5q0 395.5 178.5 591t450.5 195.5q270 0 448.5 -195.5t178.5 -591t-178.5 -591t-448.5 -195.5q-272 0 -450.5 195.5t-178.5 591zM434 758q0 -473 246 -473q244 0 244 473q0 463 -244 463q-246 0 -246 -463z" />
<glyph unicode="P" horiz-adv-x="1193" d="M111 0v1516h475q559 0 559 -519q0 -154 -49 -262t-135.5 -162.5t-177.5 -77t-199 -22.5h-99v-473h-374zM485 770h109q104 0 146 53.5t42 165.5q0 111 -42 161t-148 50h-107v-430z" />
<glyph unicode="Q" horiz-adv-x="1359" d="M49 758q0 395 178.5 590.5t450.5 195.5q270 0 448.5 -195.5t178.5 -590.5q0 -334 -128 -523.5t-335 -236.5q23 -76 68.5 -92.5t183.5 -16.5h82v-305h-234q-453 0 -461 422q-197 57 -314.5 245.5t-117.5 506.5zM432 758q0 -473 246 -473q244 0 244 473q0 463 -244 463 q-246 0 -246 -463z" />
<glyph unicode="R" horiz-adv-x="1239" d="M111 0v1516h493q541 0 541 -500q0 -141 -60.5 -245.5t-169.5 -156.5l277 -614h-393l-234 516h-84v-516h-370zM481 803h113q98 0 143 47t45 158q0 106 -45 149t-143 43h-113v-397z" />
<glyph unicode="S" horiz-adv-x="1245" d="M49 336l305 156q123 -219 297 -220q78 0 119 35t41 96q0 68 -60.5 110t-187.5 91q-68 27 -91 37t-86.5 41t-90.5 52.5t-72 61.5t-65.5 81t-37 99t-16.5 124q0 199 144.5 321.5t372.5 122.5q367 0 538 -348l-293 -162q-102 199 -254 199q-66 0 -100.5 -32t-34.5 -83 q0 -63 55.5 -105t167.5 -89q211 -88 287 -140q197 -135 197 -364q0 -188 -139.5 -318.5t-393.5 -130.5q-418 0 -602 365z" />
<glyph unicode="T" horiz-adv-x="1118" d="M23 1196v320h1073v-320h-346v-1196h-381v1196h-346z" />
<glyph unicode="U" horiz-adv-x="1261" d="M88 537v979h381v-961q0 -141 40 -200.5t132 -59.5q90 0 130 59.5t40 198.5v963h363v-977q0 -285 -128 -424.5t-411 -139.5t-415 141.5t-132 420.5z" />
<glyph unicode="V" horiz-adv-x="1230" d="M8 1516h383l154 -666q47 -199 78 -375h4q25 139 80 371l161 670h355l-422 -1522h-371z" />
<glyph unicode="W" horiz-adv-x="1687" d="M14 1516h367l94 -525q37 -199 60 -381h4q18 150 59 379l92 527h338l94 -533q41 -221 58 -375h4q23 180 57 369l96 539h336l-338 -1522h-331l-158 887h-4l-158 -887h-332z" />
<glyph unicode="X" horiz-adv-x="1280" d="M35 0l399 791l-366 725h413l181 -416l167 416h369l-358 -711l403 -805h-407l-220 492l-206 -492h-375z" />
<glyph unicode="Y" horiz-adv-x="1228" d="M-8 1516h389l240 -592h4l239 592h373l-434 -936v-580h-381v580z" />
<glyph unicode="Z" horiz-adv-x="1153" d="M33 0v272l616 924h-571v320h1024v-283l-604 -924h604v-309h-1069z" />
<glyph unicode="[" horiz-adv-x="811" d="M98 -410v1926h684v-265h-305v-1401h305v-260h-684z" />
<glyph unicode="\" horiz-adv-x="1126" d="M-2 1516h381l747 -1516h-381z" />
<glyph unicode="]" horiz-adv-x="811" d="M29 -150h305v1401h-305v265h684v-1926h-684v260z" />
<glyph unicode="^" horiz-adv-x="1019" d="M162 1208l225 346h246l223 -346h-211l-137 125l-135 -125h-211z" />
<glyph unicode="_" horiz-adv-x="903" d="M-20 -74h944v-260h-944v260z" />
<glyph unicode="`" horiz-adv-x="1024" d="M164 1554h350l164 -350h-256z" />
<glyph unicode="a" horiz-adv-x="1044" d="M27 281q0 330 579 426v32q0 49 -17.5 70.5t-66.5 21.5q-131 0 -291 -102l-159 221q207 168 524 168q195 0 282 -89t87 -290v-473q0 -186 26 -266h-364q-20 66 -21 150q-110 -162 -309 -162q-119 0 -194.5 69.5t-75.5 223.5zM385 352q0 -39 21.5 -60.5t56.5 -21.5 q76 0 143 58v192q-221 -49 -221 -168z" />
<glyph unicode="b" d="M88 0v1513h371v-563q106 168 276 168q164 0 255 -142t91 -427t-92 -425t-258 -140q-176 0 -272 135v-119h-371zM459 334q70 -66 127 -66q68 0 95.5 65.5t27.5 213.5q0 139 -27 199.5t-98 60.5q-59 0 -125 -72v-401z" />
<glyph unicode="c" horiz-adv-x="1009" d="M37 547q0 154 44 268.5t118.5 178t159.5 94t182 30.5q203 0 304 -98t142 -279l-325 -73q-18 92 -47 130t-78 38q-70 0 -99.5 -68t-29.5 -221q0 -156 26.5 -226.5t100.5 -70.5q106 0 137 182l317 -76q-84 -379 -459 -379q-209 0 -351 138.5t-142 431.5z" />
<glyph unicode="d" d="M39 542.5q0 284.5 93 430t257 145.5q176 0 273 -139v537h370v-1250q0 -188 29 -266h-379q-20 47 -20 139q-101 -155 -275 -155q-166 0 -257 137t-91 421.5zM412 545q0 -145 26.5 -210t98.5 -65q55 0 125 70v403q-61 66 -127 66q-70 0 -96.5 -60.5t-26.5 -203.5z" />
<glyph unicode="e" horiz-adv-x="1036" d="M37 547q0 154 45 269.5t119.5 179t158.5 93t175 29.5q207 0 335.5 -143.5t128.5 -458.5v-67h-600q10 -106 51.5 -153.5t114.5 -47.5q63 0 127 34.5t99 77.5l208 -176q-171 -207 -450 -207q-227 0 -369.5 137.5t-142.5 432.5zM401 649h265q-8 106 -40 148.5t-91 42.5 q-114 -1 -134 -191z" />
<glyph unicode="f" horiz-adv-x="761" d="M25 827v269h153v69q0 78 11.5 132.5t47 110.5t114.5 85t200 29q156 0 197 -11v-270q-33 8 -84 8q-57 0 -87 -19.5t-30 -86.5v-47h192v-269h-192v-827h-369v827h-153z" />
<glyph unicode="g" horiz-adv-x="1110" d="M-10 -178q0 127 157 209q-84 55 -84 143q0 61 42 121.5t110 105.5q-164 109 -164 320q0 182 121 289.5t336 107.5h4q214 0 328 -108q47 47 118.5 79.5t131.5 36.5v-297q-88 0 -144 -8q10 -55 10 -100q0 -184 -117.5 -289.5t-330.5 -105.5q-74 0 -135 12q-14 -16 -15 -35 q0 -25 17.5 -32t70.5 -11l127 -6q268 -14 377 -87t109 -230q0 -162 -163 -254.5t-429 -92.5q-260 0 -368.5 58.5t-108.5 173.5zM317 -111q0 -61 49.5 -86.5t163.5 -25.5q92 0 147.5 25.5t55.5 72.5t-37 63.5t-180 24.5l-156 8q-16 0 -24 2q-18 -39 -19 -84zM399 711 q0 -164 113 -164q111 0 111 164q0 161 -110 161h-1q-113 0 -113 -161z" />
<glyph unicode="h" d="M88 0v1516h371v-568q41 66 124 118t193 52q264 0 264 -282v-836h-370v713q0 94 -70 94q-57 0 -141 -70v-737h-371z" />
<glyph unicode="i" horiz-adv-x="567" d="M98 0v1096h371v-1096h-371zM98 1198v303h371v-303h-371z" />
<glyph unicode="j" horiz-adv-x="567" d="M-96 -143q25 -8 82 -9q113 0 112 129v1119h371v-1166q0 -78 -14.5 -134t-52 -107t-114.5 -77t-194 -26q-154 0 -190 11v260zM98 1198v303h371v-303h-371z" />
<glyph unicode="k" horiz-adv-x="1062" d="M88 0v1516h365v-801q29 70 77 151l134 230h372l-282 -410l299 -686h-375l-158 387l-67 -100v-287h-365z" />
<glyph unicode="l" horiz-adv-x="567" d="M98 0v1516h371v-1516h-371z" />
<glyph unicode="m" horiz-adv-x="1667" d="M88 0v1096h371v-148q41 63 123 116.5t180 53.5q211 0 250 -170q43 66 126 118t179 52q270 0 270 -297v-821h-370v713q0 49 -13.5 71.5t-52.5 22.5q-49 0 -129 -70v-737h-371v713q0 49 -13 71.5t-50 22.5q-49 0 -129 -70v-737h-371z" />
<glyph unicode="n" d="M88 0v1096h371v-148q41 66 124 118t193 52q264 0 264 -282v-836h-370v713q0 94 -70 94q-57 0 -141 -70v-737h-371z" />
<glyph unicode="o" horiz-adv-x="1091" d="M37 547q0 297 146.5 434t361.5 137q100 0 186 -29.5t161 -94t118 -179.5t43 -268q0 -293 -147.5 -431.5t-360.5 -138.5t-360.5 138.5t-147.5 431.5zM408 547q0 -152 29.5 -221.5t107.5 -69.5q76 0 106.5 66.5t30.5 224.5q0 150 -29.5 216t-107.5 66q-76 0 -106.5 -64.5 t-30.5 -217.5z" />
<glyph unicode="p" d="M88 -410v1506h371v-146q106 168 276 168q164 0 255 -142t91 -427t-92 -425t-258 -140q-176 0 -272 135v-529h-371zM459 334q70 -66 127 -66q68 0 95.5 65.5t27.5 213.5q0 139 -27 199.5t-98 60.5q-59 0 -125 -72v-401z" />
<glyph unicode="q" d="M39 542.5q0 284.5 93 430t257 145.5q176 0 273 -139v117h370v-1506h-370v543q-103 -149 -273 -149h-2q-166 0 -257 137t-91 421.5zM412 545q0 -145 26.5 -210t98.5 -65q55 0 125 70v403q-61 66 -127 66q-70 0 -96.5 -60.5t-26.5 -203.5z" />
<glyph unicode="r" horiz-adv-x="780" d="M88 0v1096h371v-166h4q96 188 285 188l16 -2v-336q-37 6 -78 6q-125 0 -227 -75v-711h-371z" />
<glyph unicode="s" horiz-adv-x="980" d="M4 147l182 213q162 -133 314 -133q106 0 106 66q0 47 -56 74.5t-136 47t-160 50.5t-136.5 107.5t-56.5 195.5q0 174 125 262t310 88q111 0 227.5 -43t196.5 -119l-185 -208q-142 108 -239 108h-2q-88 0 -88 -65q0 -45 56 -71t136 -45.5t160 -51t136 -107.5t56 -192 q0 -168 -131.5 -258.5t-324.5 -90.5q-307 0 -490 172z" />
<glyph unicode="t" horiz-adv-x="794" d="M16 827v269h152v370h371v-370h231v-269h-231v-442q0 -82 24.5 -107.5t95.5 -25.5q59 0 91 10v-260q-44 -14 -220 -14q-215 0 -288.5 69.5t-73.5 229.5v540h-152z" />
<glyph unicode="u" d="M80 260v836h371v-721q0 -94 69 -94q63 0 142 69v746h370v-1096h-370v147q-43 -66 -126 -118t-192 -52q-264 0 -264 283z" />
<glyph unicode="v" horiz-adv-x="989" d="M-18 1096h374l93 -422q37 -160 57 -301h4q23 147 57 297l97 426h344l-314 -1098h-399z" />
<glyph unicode="w" horiz-adv-x="1396" d="M-16 1096h360l51 -281q33 -180 49 -323h5q18 152 57 323l61 281h307l60 -273q41 -186 59 -331h4q18 164 50 325l51 279h315l-246 -1098h-336l-131 594h-4l-131 -594h-336z" />
<glyph unicode="x" horiz-adv-x="993" d="M0 0l317 559l-294 537h380l125 -265l109 265h350l-297 -521l314 -575h-379l-140 293l-133 -293h-352z" />
<glyph unicode="y" horiz-adv-x="1011" d="M-31 -381l70 291q104 -23 174 -23q45 0 68.5 15.5t35.5 52.5l11 31l-348 1110h387l79 -353q53 -233 70 -344h4q25 147 74 349l84 348h358l-383 -1196q-51 -160 -138 -238t-245 -78q-184 0 -301 35z" />
<glyph unicode="z" horiz-adv-x="946" d="M35 0v201l411 626h-378v269h819v-211l-414 -625h449v-260h-887z" />
<glyph unicode="{" horiz-adv-x="833" d="M33 420v266q115 0 153.5 42t38.5 177v312q0 139 79 219t233 80h278v-265h-76q-72 0 -103.5 -36.5t-31.5 -114.5v-234q0 -145 -40 -213.5t-128 -97.5v-4q88 -29 128 -97.5t40 -213.5v-244q0 -74 32 -110t103 -36h76v-260h-291q-143 0 -221 81t-78 218v312q0 135 -40 177 t-152 42z" />
<glyph unicode="|" horiz-adv-x="747" d="M186 -410v1926h375v-1926h-375z" />
<glyph unicode="}" horiz-adv-x="833" d="M16 -150h76q72 0 104.5 35t32.5 111v262q0 141 39 201.5t129 91.5v4q-90 31 -129 91.5t-39 201.5v252q0 78 -31.5 114.5t-105.5 36.5h-76v265h301q154 0 222.5 -71t68.5 -210v-330q0 -135 39 -177t154 -42v-266q-113 0 -153 -42t-40 -177v-330q0 -281 -278 -281h-314v260 z" />
<glyph unicode="~" horiz-adv-x="1024" d="M127 729q0 367 242 367q63 0 113 -29t87 -57.5t68 -28.5q74 0 74 111h186q0 -367 -242 -367q-61 0 -112 28.5t-88 57.5t-68 29q-74 0 -74 -111h-186z" />
<glyph unicode="&#xa1;" horiz-adv-x="673" d="M104 0l72 1047h307l72 -1047h-451zM131 1182v334h397v-334h-397z" />
<glyph unicode="&#xa2;" horiz-adv-x="1009" d="M37 547q0 281 135 419t332 150l24 146h256l-32 -183q176 -78 235 -338l-325 -73q-18 94 -47 133t-78 39q-70 0 -102 -70t-32 -223q0 -156 29 -228.5t103 -72.5q106 0 137 186l317 -76q-80 -362 -432 -379l-29 -167h-256l37 213q-272 127 -272 524z" />
<glyph unicode="&#xa3;" horiz-adv-x="1316" d="M0 225q0 133 86 208t213 75q86 0 182 -53q-4 83 -63 204h-266v209h157q-72 143 -71 262q0 182 120.5 298t321.5 116q227 0 333.5 -107.5t137.5 -314.5l-332 -53q-14 92 -40.5 137t-88.5 45q-96 0 -96 -112q0 -98 88 -271h319v-209h-231q29 -106 29 -204.5t-41 -190.5 q51 -20 90 -20q61 0 87 44t28 173h325q-4 -240 -88 -365t-297 -125q-156 0 -295 103q-133 -102 -301 -103q-129 0 -218 63.5t-89 190.5zM240 236q0 -70 71 -70q74 0 121 72q-74 68 -125 67q-31 0 -49 -18.5t-18 -50.5z" />
<glyph unicode="&#xa4;" horiz-adv-x="1318" d="M35 483v209h166v66v41h-166v209h182q43 272 181.5 404t353.5 132q221 0 351 -122t161 -359l-344 -57q-29 229 -164 229q-141 0 -172 -227h254v-209h-269v-41v-66h269v-209h-256q16 -111 57 -162t121 -51q137 0 176 242l340 -39q-35 -219 -170 -360.5t-348 -141.5 q-444 0 -537 512h-186z" />
<glyph unicode="&#xa5;" horiz-adv-x="1228" d="M-8 1516h389l240 -598h4l239 598h373l-412 -865h273v-209h-305v-106h305v-209h-305v-127h-361v127h-301v209h301v106h-301v209h266z" />
<glyph unicode="&#xa6;" horiz-adv-x="747" d="M186 -410v838h375v-838h-375zM186 678v838h375v-838h-375z" />
<glyph unicode="&#xa7;" d="M78 596q0 186 155 313q-92 113 -92 250q0 166 112 276.5t316 110.5q217 0 316.5 -91t150.5 -267l-299 -86q-47 178 -159 178q-98 0 -99 -98q0 -31 15.5 -57.5t54.5 -56.5t64.5 -46t84.5 -51q51 -31 65.5 -40t64 -43t67.5 -52.5t54 -57.5t51.5 -71.5t28.5 -78.5t13 -96 q0 -184 -157 -315q90 -106 90 -248q0 -166 -111.5 -276.5t-312.5 -110.5q-213 0 -312.5 91t-150.5 268l299 86q47 -178 156 -179q94 0 94 99q0 37 -29.5 73.5t-64.5 60t-101 64.5q-4 2 -6 4.5t-6 4.5l-8 4q-51 31 -65.5 40t-63.5 42.5t-67.5 52t-54.5 57.5t-51.5 72 t-28.5 79t-13 95zM397 662q0 -66 45 -114t164 -120q66 -39 80 -51q37 47 37 90q0 66 -46 115t-163 118l-80 50q-37 -43 -37 -88z" />
<glyph unicode="&#xa8;" horiz-adv-x="1024" d="M152 1196v332h301v-332h-301zM573 1196v332h299v-332h-299z" />
<glyph unicode="&#xa9;" horiz-adv-x="1490" d="M70 754q0 336 192.5 563t485.5 227q295 0 484 -222t189 -560q0 -336 -193.5 -563.5t-486 -227.5t-482 223.5t-189.5 559.5zM242 761.5q0 -276.5 141.5 -455.5t364.5 -179q225 0 363 175t138 451.5t-141 456t-367 179.5q-223 0 -361 -175.5t-138 -452zM426 762 q0 217 84 331.5t240 114.5q129 0 200.5 -77.5t91.5 -210.5l-200 -39q-12 61 -31.5 90.5t-62.5 29.5q-100 0 -101 -239q0 -233 101 -234q78 0 96 131l205 -41q-31 -145 -100 -223t-206 -78q-147 0 -232 115t-85 330z" />
<glyph unicode="&#xaa;" horiz-adv-x="819" d="M66 948q0 236 405 303v23q0 35 -12.5 50t-46.5 15q-90 0 -203 -71l-113 153q145 119 369 119q135 0 196.5 -63.5t61.5 -202.5v-332q0 -137 18 -186h-256q-14 51 -14 106q-80 -119 -217 -119q-82 0 -135 49.5t-53 155.5zM317 999q1 -57 54 -57q45 0 100 43v135 q-154 -35 -154 -121z" />
<glyph unicode="&#xab;" horiz-adv-x="1193" d="M25 545l286 545h344l-274 -545l274 -545h-344zM532 545l287 545h344l-274 -545l274 -545h-344z" />
<glyph unicode="&#xac;" horiz-adv-x="1556" d="M20 563v383l240 -53l-35 344h70v74l344 -35l-53 240h383l-54 -240l345 35v-74h71l-35 -344l240 53v-383l-240 53l35 -344h-71v-67l-345 35l54 -240h-383l53 240l-344 -35v67h-70l35 344zM469 637l16 -172l174 -16v188h-190zM469 872h190v193l-174 -14zM895 449l176 16 l14 172h-190v-188zM895 872h190l-14 179l-176 14v-193z" />
<glyph unicode="&#xad;" horiz-adv-x="655" d="M59 504v262h535v-262h-535z" />
<glyph unicode="&#xae;" horiz-adv-x="1490" d="M70 754q0 336 192.5 563t485.5 227q295 0 484 -222t189 -560q0 -336 -193.5 -563.5t-486 -227.5t-482 223.5t-189.5 559.5zM238 762q0 -281 142 -463t367.5 -182t365.5 179t140 457.5t-143 462t-369 183.5q-223 0 -363 -179.5t-140 -457.5zM463 350v850h297 q143 0 223 -72.5t80 -220.5q0 -176 -115 -252l121 -305h-238l-104 273h-41v-273h-223zM686 797h62q98 0 98 100q0 98 -98 98h-62v-198z" />
<glyph unicode="&#xaf;" horiz-adv-x="1024" d="M176 1227v266h670v-266h-670z" />
<glyph unicode="&#xb0;" horiz-adv-x="722" d="M59 1218.5q0 141.5 85 232.5t216 91q133 0 217.5 -89t84.5 -230.5t-84 -233.5t-217.5 -92t-217.5 90t-84 231.5zM256 1220.5q0 -73.5 27.5 -113.5t76.5 -40q106 0 106.5 153.5t-106.5 153.5q-49 0 -76.5 -40t-27.5 -113.5z" />
<glyph unicode="&#xb1;" horiz-adv-x="1806" d="M25 827v269h153v69q0 76 13.5 132.5t49 110.5t108.5 84t181 30q135 0 177 -11v-270q-33 8 -64 8q-96 0 -96 -106v-47h211v69q0 356 352 357q135 0 176 -11v-270q-33 8 -63 8q-96 0 -97 -106v-47h152v-269h-152v-827h-368v827h-211v-827h-369v827h-153zM1337 0v1516h371 v-1516h-371z" />
<glyph unicode="&#xb2;" horiz-adv-x="823" d="M47 1227q121 297 385 297q152 0 230.5 -76t78.5 -215q0 -98 -50 -176t-110.5 -118t-116.5 -85t-65 -82h342v-250h-686v58q0 123 42 215t101.5 144t118 94t100.5 90t42 106q0 39 -47 39q-57 0 -121 -146z" />
<glyph unicode="&#xb3;" horiz-adv-x="823" d="M33 768l211 115q27 -63 69.5 -99t81.5 -36q47 0 74 23.5t27 64.5q0 70 -39 95t-123 25h-41v160h47q76 0 104.5 25.5t28.5 72.5q0 27 -18.5 44.5t-48.5 17.5q-80 0 -158 -111l-191 135q145 223 367 224q143 0 231 -72t88 -195q0 -145 -129 -208q154 -68 154 -230 q0 -147 -100 -229t-262 -82q-262 0 -373 260z" />
<glyph unicode="&#xb4;" horiz-adv-x="1024" d="M346 1204l164 350h350l-258 -350h-256z" />
<glyph unicode="&#xb5;" horiz-adv-x="1126" d="M88 -410v1508h371v-717q0 -96 69 -96q68 0 142 55v758h368v-1098h-368v147q-68 -109 -197 -143q-2 0 -7 -2t-7 -2v-410h-371z" />
<glyph unicode="&#xb6;" horiz-adv-x="1228" d="M55 1079q0 186 113 311.5t297 125.5h696v-1926h-276v1635h-121v-1635h-275v1059q-203 4 -318.5 116t-115.5 314z" />
<glyph unicode="&#xb7;" horiz-adv-x="550" d="M70 424v360h411v-360h-411z" />
<glyph unicode="&#xb8;" horiz-adv-x="1024" d="M229 -369l66 127q88 -53 213 -53q86 0 86 53q0 45 -53 45q-45 0 -78 -30l-94 43l63 196h148l-31 -108q43 29 121 28q61 0 101 -37.5t40 -111.5q0 -90 -79 -154.5t-204 -64.5q-174 0 -299 67z" />
<glyph unicode="&#xb9;" horiz-adv-x="692" d="M78 530v246h139v447q-47 -20 -135 -21v252q111 6 164 59h268v-737h121v-246h-557z" />
<glyph unicode="&#xba;" horiz-adv-x="856" d="M72 1145q0 207 102 303t254 96q150 0 253 -96t103 -303q0 -205 -103 -302.5t-252.5 -97.5t-253 97.5t-103.5 302.5zM332 1144.5q0 -106.5 21.5 -155.5t74.5 -49t74.5 47t21.5 158q0 102 -21.5 149t-74.5 47t-74.5 -45t-21.5 -151.5z" />
<glyph unicode="&#xbb;" horiz-adv-x="1193" d="M31 0l274 545l-274 545h344l287 -545l-287 -545h-344zM539 0l274 545l-274 545h344l286 -545l-286 -545h-344z" />
<glyph unicode="&#xbc;" horiz-adv-x="1916" d="M78 530v246h139v447q-47 -20 -135 -21v252q111 6 164 59h268v-737h121v-246h-557zM453 0l768 1516h303l-768 -1516h-303zM1110 186v195l363 602h290v-565h123v-232h-123v-186h-280v186h-373zM1362 410h127v211z" />
<glyph unicode="&#xbd;" horiz-adv-x="1998" d="M78 530v246h139v447q-47 -20 -135 -21v252q111 6 164 59h268v-737h121v-246h-557zM453 0l768 1516h303l-768 -1516h-303zM1223 705q121 297 385 296q152 0 230.5 -75.5t78.5 -214.5q0 -98 -50 -176t-110.5 -118t-117 -85t-64.5 -82h342v-250h-686v57q0 123 42 215.5 t101.5 144.5t117.5 94t100 90t42 106q0 39 -47 38q-57 0 -121 -145z" />
<glyph unicode="&#xbe;" horiz-adv-x="1980" d="M33 768l211 115q27 -63 69.5 -99t81.5 -36q47 0 74 23.5t27 64.5q0 70 -39 95t-123 25h-41v160h47q76 0 104.5 25.5t28.5 72.5q0 27 -18.5 44.5t-48.5 17.5q-80 0 -158 -111l-191 135q145 223 367 224q143 0 231 -72t88 -195q0 -145 -129 -208q154 -68 154 -230 q0 -147 -100 -229t-262 -82q-262 0 -373 260zM516 0l768 1516h303l-768 -1516h-303zM1174 186v195l362 602h291v-565h123v-232h-123v-186h-281v186h-372zM1425 410h127v211z" />
<glyph unicode="&#xbf;" horiz-adv-x="1062" d="M55 328q0 68 13.5 121t48.5 103t52 69.5t69 72.5q102 106 129.5 166t27.5 191h314q6 -49 6 -123q0 -78 -32 -148.5t-63.5 -108.5t-89.5 -98l-16 -16q-55 -57 -81.5 -101t-26.5 -94q0 -88 96 -88q63 0 113.5 57.5t78.5 135.5l305 -107q-61 -182 -194 -285.5t-330 -103.5 q-205 0 -312.5 100.5t-107.5 256.5zM356 1182v334h396v-334h-396z" />
<glyph unicode="&#xc0;" horiz-adv-x="1271" d="M8 0l443 1522h370l443 -1522h-383l-64 256h-389l-66 -256h-354zM287 1953h350l164 -350h-256zM502 549h243l-26 115q-80 324 -90 387h-4q-10 -63 -23.5 -120t-37 -140.5t-34.5 -126.5z" />
<glyph unicode="&#xc1;" horiz-adv-x="1271" d="M8 0l443 1522h370l443 -1522h-383l-64 256h-389l-66 -256h-354zM469 1603l164 350h350l-258 -350h-256zM502 549h243l-26 115q-80 324 -90 387h-4q-10 -63 -23.5 -120t-37 -140.5t-34.5 -126.5z" />
<glyph unicode="&#xc2;" horiz-adv-x="1271" d="M8 0l443 1522h370l443 -1522h-383l-64 256h-389l-66 -256h-354zM287 1607l225 346h246l223 -346h-211l-137 125l-135 -125h-211zM502 549h243l-26 115q-80 324 -90 387h-4q-10 -63 -23.5 -120t-37 -140.5t-34.5 -126.5z" />
<glyph unicode="&#xc3;" horiz-adv-x="1271" d="M8 0l443 1522h370l443 -1522h-383l-64 256h-389l-66 -256h-354zM250 1577q0 367 242 366q63 0 113 -28.5t87 -57t68 -28.5q74 0 74 110h186q0 -366 -242 -366q-63 0 -113 28.5t-87 57t-68 28.5q-74 0 -74 -110h-186zM502 549h243l-26 115q-80 324 -90 387h-4 q-10 -63 -23.5 -120t-37 -140.5t-34.5 -126.5z" />
<glyph unicode="&#xc4;" horiz-adv-x="1271" d="M8 0l443 1522h370l443 -1522h-383l-64 256h-389l-66 -256h-354zM275 1595v332h301v-332h-301zM502 549h243l-26 115q-80 324 -90 387h-4q-10 -63 -23.5 -120t-37 -140.5t-34.5 -126.5zM696 1595v332h299v-332h-299z" />
<glyph unicode="&#xc5;" horiz-adv-x="1271" d="M8 0l436 1501q-35 57 -34 133q0 102 63.5 171t161.5 69t161.5 -68.5t63.5 -171.5q0 -72 -33 -131l437 -1503h-383l-64 256h-389l-66 -256h-354zM502 549h243l-26 115q-80 324 -90 387h-4q-10 -63 -23.5 -120t-37 -140.5t-34.5 -126.5zM565 1632q0 -41 18.5 -69.5 t51.5 -28.5t51.5 28.5t18.5 69.5q0 39 -18.5 68t-51.5 29t-51.5 -29t-18.5 -68z" />
<glyph unicode="&#xc6;" horiz-adv-x="1865" d="M8 0l682 1516h1106v-320h-532v-264h378v-299h-378v-324h557v-309h-936v391h-332l-170 -391h-375zM670 659h215v490z" />
<glyph unicode="&#xc7;" horiz-adv-x="1259" d="M51 758q0 401 166 593.5t449 192.5q254 0 379.5 -138t158.5 -405l-358 -63q-23 152 -64 217.5t-129 65.5q-115 0 -167 -114t-52 -349q0 -473 223 -473q92 0 136.5 66.5t68.5 236.5l359 -58q-43 -252 -167 -399t-368 -158l-20 -69q43 29 120 28q61 0 101.5 -37.5 t40.5 -111.5q0 -90 -79 -154.5t-204 -64.5q-174 0 -299 67l66 127q88 -53 213 -53q86 0 86 53q0 45 -54 45q-45 0 -77 -30l-95 43l54 166q-229 37 -358.5 227t-129.5 549z" />
<glyph unicode="&#xc8;" horiz-adv-x="1095" d="M111 0v1516h915v-320h-534v-264h380v-299h-380v-324h559v-309h-940zM199 1953h350l164 -350h-256z" />
<glyph unicode="&#xc9;" horiz-adv-x="1095" d="M111 0v1516h915v-320h-534v-264h380v-299h-380v-324h559v-309h-940zM381 1603l164 350h350l-258 -350h-256z" />
<glyph unicode="&#xca;" horiz-adv-x="1095" d="M111 0v1516h915v-320h-534v-264h380v-299h-380v-324h559v-309h-940zM219 1607l225 346h246l223 -346h-211l-137 125l-135 -125h-211z" />
<glyph unicode="&#xcb;" horiz-adv-x="1095" d="M111 0v1516h915v-320h-534v-264h380v-299h-380v-324h559v-309h-940zM207 1595v332h301v-332h-301zM628 1595v332h299v-332h-299z" />
<glyph unicode="&#xcc;" horiz-adv-x="622" d="M-37 1953h350l164 -350h-256zM121 0v1516h381v-1516h-381z" />
<glyph unicode="&#xcd;" horiz-adv-x="622" d="M121 0v1516h381v-1516h-381zM145 1603l164 350h350l-258 -350h-256z" />
<glyph unicode="&#xce;" horiz-adv-x="622" d="M-37 1607l225 346h246l223 -346h-211l-137 125l-135 -125h-211zM121 0v1516h381v-1516h-381z" />
<glyph unicode="&#xcf;" horiz-adv-x="622" d="M-49 1595v332h301v-332h-301zM121 0v1516h381v-1516h-381zM372 1595v332h299v-332h-299z" />
<glyph unicode="&#xd0;" horiz-adv-x="1310" d="M12 635v287h99v594h428q162 0 283.5 -33t225 -113t158 -232.5t54.5 -373.5q0 -225 -55.5 -380t-159 -235.5t-225.5 -114.5t-281 -34h-428v635h-99zM492 315h79q178 0 242 96.5t64 352.5q0 246 -64.5 339t-243.5 93h-77v-274h215v-287h-215v-320z" />
<glyph unicode="&#xd1;" horiz-adv-x="1359" d="M111 0v1516h381l284 -558q59 -119 119 -256h4v814h344v-1516h-352l-336 614q-59 109 -96 195h-4v-809h-344zM295 1577q0 367 242 366q63 0 113 -28.5t87 -57t68 -28.5q74 0 74 110h186q0 -366 -242 -366q-63 0 -113 28.5t-87 57t-68 28.5q-74 0 -74 -110h-186z" />
<glyph unicode="&#xd2;" horiz-adv-x="1359" d="M51 757.5q0 395.5 178.5 591t450.5 195.5q270 0 448.5 -195.5t178.5 -591t-178.5 -591t-448.5 -195.5q-272 0 -450.5 195.5t-178.5 591zM332 1953h350l164 -350h-256zM434 758q0 -473 246 -473q244 0 244 473q0 463 -244 463q-246 0 -246 -463z" />
<glyph unicode="&#xd3;" horiz-adv-x="1359" d="M51 757.5q0 395.5 178.5 591t450.5 195.5q270 0 448.5 -195.5t178.5 -591t-178.5 -591t-448.5 -195.5q-272 0 -450.5 195.5t-178.5 591zM434 758q0 -473 246 -473q244 0 244 473q0 463 -244 463q-246 0 -246 -463zM514 1603l164 350h350l-258 -350h-256z" />
<glyph unicode="&#xd4;" horiz-adv-x="1359" d="M51 757.5q0 395.5 178.5 591t450.5 195.5q270 0 448.5 -195.5t178.5 -591t-178.5 -591t-448.5 -195.5q-272 0 -450.5 195.5t-178.5 591zM332 1607l225 346h246l223 -346h-211l-137 125l-135 -125h-211zM434 758q0 -473 246 -473q244 0 244 473q0 463 -244 463 q-246 0 -246 -463z" />
<glyph unicode="&#xd5;" horiz-adv-x="1359" d="M51 757.5q0 395.5 178.5 591t450.5 195.5q270 0 448.5 -195.5t178.5 -591t-178.5 -591t-448.5 -195.5q-272 0 -450.5 195.5t-178.5 591zM295 1577q0 367 242 366q63 0 113 -28.5t87 -57t68 -28.5q74 0 74 110h186q0 -366 -242 -366q-63 0 -113 28.5t-87 57t-68 28.5 q-74 0 -74 -110h-186zM434 758q0 -473 246 -473q244 0 244 473q0 463 -244 463q-246 0 -246 -463z" />
<glyph unicode="&#xd6;" horiz-adv-x="1359" d="M51 757.5q0 395.5 178.5 591t450.5 195.5q270 0 448.5 -195.5t178.5 -591t-178.5 -591t-448.5 -195.5q-272 0 -450.5 195.5t-178.5 591zM320 1595v332h301v-332h-301zM434 758q0 -473 246 -473q244 0 244 473q0 463 -244 463q-246 0 -246 -463zM741 1595v332h299v-332 h-299z" />
<glyph unicode="&#xd7;" horiz-adv-x="1187" d="M106 424l287 287l-287 286l201 201l287 -287l287 287l200 -201l-286 -286l286 -287l-200 -201l-287 287l-287 -287z" />
<glyph unicode="&#xd8;" horiz-adv-x="1359" d="M23 23l153 219q-125 197 -125 516q0 395 178.5 590.5t450.5 195.5q199 0 340 -100l129 174l186 -125l-153 -217q125 -197 125 -518q0 -395 -178.5 -591t-448.5 -196q-199 0 -346 103l-123 -176zM426 758q0 -82 10 -164l395 563q-57 68 -151 68q-125 0 -189.5 -120 t-64.5 -347zM520 358q61 -78 160 -77q123 0 187.5 123.5t64.5 353.5q0 84 -10 166z" />
<glyph unicode="&#xd9;" horiz-adv-x="1261" d="M88 537v979h381v-961q0 -141 40 -200.5t132 -59.5q90 0 130 59.5t40 198.5v963h363v-977q0 -285 -128 -424.5t-411 -139.5t-415 141.5t-132 420.5zM283 1953h350l164 -350h-256z" />
<glyph unicode="&#xda;" horiz-adv-x="1261" d="M88 537v979h381v-961q0 -141 40 -200.5t132 -59.5q90 0 130 59.5t40 198.5v963h363v-977q0 -285 -128 -424.5t-411 -139.5t-415 141.5t-132 420.5zM465 1603l164 350h350l-258 -350h-256z" />
<glyph unicode="&#xdb;" horiz-adv-x="1261" d="M88 537v979h381v-961q0 -141 40 -200.5t132 -59.5q90 0 130 59.5t40 198.5v963h363v-977q0 -285 -128 -424.5t-411 -139.5t-415 141.5t-132 420.5zM289 1607l225 346h246l223 -346h-211l-137 125l-135 -125h-211z" />
<glyph unicode="&#xdc;" horiz-adv-x="1261" d="M88 537v979h381v-961q0 -141 40 -200.5t132 -59.5q90 0 130 59.5t40 198.5v963h363v-977q0 -285 -128 -424.5t-411 -139.5t-415 141.5t-132 420.5zM271 1595v332h301v-332h-301zM692 1595v332h299v-332h-299z" />
<glyph unicode="&#xdd;" horiz-adv-x="1228" d="M-8 1516h389l240 -592h4l239 592h373l-434 -936v-580h-381v580zM448 1603l164 350h350l-258 -350h-256z" />
<glyph unicode="&#xde;" horiz-adv-x="1193" d="M111 0v1516h374v-230h101q559 0 559 -518q0 -154 -49 -262.5t-135.5 -162.5t-177.5 -76.5t-199 -22.5h-99v-244h-374zM485 541h109q104 0 146 53t42 166q0 111 -42 161t-148 50h-107v-430z" />
<glyph unicode="&#xdf;" horiz-adv-x="1253" d="M98 0v1008q0 254 142.5 381t388.5 127q221 0 350 -98.5t129 -280.5q0 -127 -65.5 -213t-161.5 -123q170 -31 258 -136.5t88 -244.5q0 -197 -111.5 -318.5t-310.5 -121.5q-174 0 -309 71l112 254q82 -39 152 -39q55 0 88 40t33 114q0 113 -74 165t-248 64v238 q109 0 157 46t48 146q0 57 -35 95t-102 38q-160 0 -160 -196v-1016h-369z" />
<glyph unicode="&#xe0;" horiz-adv-x="1044" d="M27 281q0 330 579 426v32q0 49 -17.5 70.5t-66.5 21.5q-131 0 -291 -102l-159 221q207 168 524 168q195 0 282 -89t87 -290v-473q0 -186 26 -266h-364q-20 66 -21 150q-110 -162 -309 -162q-119 0 -194.5 69.5t-75.5 223.5zM174 1554h350l164 -350h-256zM385 352 q0 -39 21.5 -60.5t56.5 -21.5q76 0 143 58v192q-221 -49 -221 -168z" />
<glyph unicode="&#xe1;" horiz-adv-x="1044" d="M27 281q0 330 579 426v32q0 49 -17.5 70.5t-66.5 21.5q-131 0 -291 -102l-159 221q207 168 524 168q195 0 282 -89t87 -290v-473q0 -186 26 -266h-364q-20 66 -21 150q-110 -162 -309 -162q-119 0 -194.5 69.5t-75.5 223.5zM356 1204l164 350h350l-258 -350h-256z M385 352q0 -39 21.5 -60.5t56.5 -21.5q76 0 143 58v192q-221 -49 -221 -168z" />
<glyph unicode="&#xe2;" horiz-adv-x="1044" d="M27 281q0 330 579 426v32q0 49 -17.5 70.5t-66.5 21.5q-131 0 -291 -102l-159 221q207 168 524 168q195 0 282 -89t87 -290v-473q0 -186 26 -266h-364q-20 66 -21 150q-110 -162 -309 -162q-119 0 -194.5 69.5t-75.5 223.5zM174 1208l225 346h246l223 -346h-211l-137 125 l-135 -125h-211zM385 352q0 -39 21.5 -60.5t56.5 -21.5q76 0 143 58v192q-221 -49 -221 -168z" />
<glyph unicode="&#xe3;" horiz-adv-x="1044" d="M27 281q0 330 579 426v32q0 49 -17.5 70.5t-66.5 21.5q-131 0 -291 -102l-159 221q207 168 524 168q195 0 282 -89t87 -290v-473q0 -186 26 -266h-364q-20 66 -21 150q-110 -162 -309 -162q-119 0 -194.5 69.5t-75.5 223.5zM137 1178q0 367 242 366q63 0 113 -28.5 t87 -57t68 -28.5q74 0 74 110h186q0 -366 -242 -366q-63 0 -113 28.5t-87 57t-68 28.5q-74 0 -74 -110h-186zM385 352q0 -39 21.5 -60.5t56.5 -21.5q76 0 143 58v192q-221 -49 -221 -168z" />
<glyph unicode="&#xe4;" horiz-adv-x="1044" d="M27 281q0 330 579 426v32q0 49 -17.5 70.5t-66.5 21.5q-131 0 -291 -102l-159 221q207 168 524 168q195 0 282 -89t87 -290v-473q0 -186 26 -266h-364q-20 66 -21 150q-110 -162 -309 -162q-119 0 -194.5 69.5t-75.5 223.5zM162 1196v332h301v-332h-301zM385 352 q0 -39 21.5 -60.5t56.5 -21.5q76 0 143 58v192q-221 -49 -221 -168zM583 1196v332h299v-332h-299z" />
<glyph unicode="&#xe5;" horiz-adv-x="1044" d="M27 281q0 330 579 426v32q0 49 -17.5 70.5t-66.5 21.5q-131 0 -291 -102l-159 221q207 168 524 168q195 0 282 -89t87 -290v-473q0 -186 26 -266h-364q-20 66 -21 150q-110 -162 -309 -162q-119 0 -194.5 69.5t-75.5 223.5zM297 1411q0 102 63.5 171t161.5 69t161.5 -69 t63.5 -171t-63.5 -171t-161.5 -69t-161.5 69t-63.5 171zM385 352q0 -39 21.5 -60.5t56.5 -21.5q76 0 143 58v192q-221 -49 -221 -168zM452 1409q0 -41 18.5 -69.5t51.5 -28.5t51.5 28.5t18.5 69.5q0 39 -18.5 67.5t-51.5 28.5t-51.5 -28.5t-18.5 -67.5z" />
<glyph unicode="&#xe6;" horiz-adv-x="1595" d="M27 281q0 330 579 426v32q0 49 -17.5 70.5t-66.5 21.5q-131 0 -291 -102l-159 221q207 168 524 168q178 0 246 -82q115 82 252 82q207 0 336 -143.5t129 -458.5v-67h-601q10 -106 51.5 -153.5t114.5 -47.5q63 0 127 34.5t99 77.5l209 -176q-172 -207 -451 -207 q-293 0 -420 213q-82 -100 -173 -151t-218 -51q-119 0 -194.5 69.5t-75.5 223.5zM385 352q0 -39 21.5 -60.5t56.5 -21.5q88 0 166 72q-21 82 -23 174q-221 -53 -221 -164zM961 649h264q-8 106 -40 148.5t-91 42.5q-113 -1 -133 -191z" />
<glyph unicode="&#xe7;" horiz-adv-x="1009" d="M37 547q0 154 44 268.5t118.5 178t159.5 94t182 30.5q203 0 304 -98t142 -279l-325 -73q-18 92 -47 130t-78 38q-70 0 -99.5 -68t-29.5 -221q0 -156 26.5 -226.5t100.5 -70.5q106 0 137 182l317 -76q-80 -362 -428 -379l-20 -73q43 29 121 28q61 0 101 -37.5t40 -111.5 q0 -90 -79 -154.5t-204 -64.5q-174 0 -299 67l66 127q88 -53 213 -53q86 0 86 53q0 45 -54 45q-45 0 -77 -30l-95 43l56 172q-168 35 -273.5 172t-105.5 387z" />
<glyph unicode="&#xe8;" horiz-adv-x="1036" d="M37 547q0 154 45 269.5t119.5 179t158.5 93t175 29.5q207 0 335.5 -143.5t128.5 -458.5v-67h-600q10 -106 51.5 -153.5t114.5 -47.5q63 0 127 34.5t99 77.5l208 -176q-171 -207 -450 -207q-227 0 -369.5 137.5t-142.5 432.5zM170 1554h350l164 -350h-256zM401 649h265 q-8 106 -40 148.5t-91 42.5q-114 -1 -134 -191z" />
<glyph unicode="&#xe9;" horiz-adv-x="1036" d="M37 547q0 154 45 269.5t119.5 179t158.5 93t175 29.5q207 0 335.5 -143.5t128.5 -458.5v-67h-600q10 -106 51.5 -153.5t114.5 -47.5q63 0 127 34.5t99 77.5l208 -176q-171 -207 -450 -207q-227 0 -369.5 137.5t-142.5 432.5zM352 1204l164 350h350l-258 -350h-256z M401 649h265q-8 106 -40 148.5t-91 42.5q-114 -1 -134 -191z" />
<glyph unicode="&#xea;" horiz-adv-x="1036" d="M37 547q0 154 45 269.5t119.5 179t158.5 93t175 29.5q207 0 335.5 -143.5t128.5 -458.5v-67h-600q10 -106 51.5 -153.5t114.5 -47.5q63 0 127 34.5t99 77.5l208 -176q-171 -207 -450 -207q-227 0 -369.5 137.5t-142.5 432.5zM170 1208l225 346h246l223 -346h-211 l-137 125l-135 -125h-211zM401 649h265q-8 106 -40 148.5t-91 42.5q-114 -1 -134 -191z" />
<glyph unicode="&#xeb;" horiz-adv-x="1036" d="M37 547q0 154 45 269.5t119.5 179t158.5 93t175 29.5q207 0 335.5 -143.5t128.5 -458.5v-67h-600q10 -106 51.5 -153.5t114.5 -47.5q63 0 127 34.5t99 77.5l208 -176q-171 -207 -450 -207q-227 0 -369.5 137.5t-142.5 432.5zM158 1196v332h301v-332h-301zM401 649h265 q-8 106 -40 148.5t-91 42.5q-114 -1 -134 -191zM579 1196v332h299v-332h-299z" />
<glyph unicode="&#xec;" horiz-adv-x="567" d="M-65 1554h350l164 -350h-256zM98 0v1096h371v-1096h-371z" />
<glyph unicode="&#xed;" horiz-adv-x="567" d="M98 0v1096h371v-1096h-371zM117 1204l164 350h350l-258 -350h-256z" />
<glyph unicode="&#xee;" horiz-adv-x="567" d="M-65 1208l225 346h246l223 -346h-211l-137 125l-135 -125h-211zM98 0v1096h371v-1096h-371z" />
<glyph unicode="&#xef;" horiz-adv-x="567" d="M-77 1196v332h301v-332h-301zM98 0v1096h371v-1096h-371zM344 1196v332h299v-332h-299z" />
<glyph unicode="&#xf0;" horiz-adv-x="1087" d="M39 496q0 246 118.5 373.5t309.5 127.5q68 0 138.5 -30.5t113.5 -85.5q-18 122 -96 247l-121 -69l-99 172l99 55q-39 43 -105 98l191 195q104 -74 170 -145l119 69l98 -170l-94 -55q168 -270 168 -696q0 -295 -132.5 -450t-369.5 -155q-233 0 -370.5 138.5t-137.5 380.5z M406 500q0 -135 34.5 -190.5t104.5 -55.5q139 0 139 248q0 252 -139 252q-70 0 -104.5 -57.5t-34.5 -196.5z" />
<glyph unicode="&#xf1;" d="M88 0v1096h371v-148q41 66 124 118t193 52q264 0 264 -282v-836h-370v713q0 94 -70 94q-57 0 -141 -70v-737h-371zM174 1178q0 367 242 366q63 0 113 -28.5t87 -57t68 -28.5q74 0 74 110h186q0 -366 -242 -366q-63 0 -113 28.5t-87 57t-68 28.5q-74 0 -74 -110h-186z" />
<glyph unicode="&#xf2;" horiz-adv-x="1091" d="M37 547q0 297 146.5 434t361.5 137q100 0 186 -29.5t161 -94t118 -179.5t43 -268q0 -293 -147.5 -431.5t-360.5 -138.5t-360.5 138.5t-147.5 431.5zM197 1554h350l164 -350h-256zM408 547q0 -152 29.5 -221.5t107.5 -69.5q76 0 106.5 66.5t30.5 224.5q0 150 -29.5 216 t-107.5 66q-76 0 -106.5 -64.5t-30.5 -217.5z" />
<glyph unicode="&#xf3;" horiz-adv-x="1091" d="M37 547q0 297 146.5 434t361.5 137q100 0 186 -29.5t161 -94t118 -179.5t43 -268q0 -293 -147.5 -431.5t-360.5 -138.5t-360.5 138.5t-147.5 431.5zM379 1204l164 350h350l-258 -350h-256zM408 547q0 -152 29.5 -221.5t107.5 -69.5q76 0 106.5 66.5t30.5 224.5 q0 150 -29.5 216t-107.5 66q-76 0 -106.5 -64.5t-30.5 -217.5z" />
<glyph unicode="&#xf4;" horiz-adv-x="1091" d="M37 547q0 297 146.5 434t361.5 137q100 0 186 -29.5t161 -94t118 -179.5t43 -268q0 -293 -147.5 -431.5t-360.5 -138.5t-360.5 138.5t-147.5 431.5zM197 1208l225 346h246l223 -346h-211l-137 125l-135 -125h-211zM408 547q0 -152 29.5 -221.5t107.5 -69.5 q76 0 106.5 66.5t30.5 224.5q0 150 -29.5 216t-107.5 66q-76 0 -106.5 -64.5t-30.5 -217.5z" />
<glyph unicode="&#xf5;" horiz-adv-x="1091" d="M37 547q0 297 146.5 434t361.5 137q100 0 186 -29.5t161 -94t118 -179.5t43 -268q0 -293 -147.5 -431.5t-360.5 -138.5t-360.5 138.5t-147.5 431.5zM160 1178q0 367 242 366q63 0 113 -28.5t87 -57t68 -28.5q74 0 74 110h186q0 -366 -242 -366q-63 0 -113 28.5t-87 57 t-68 28.5q-74 0 -74 -110h-186zM408 547q0 -152 29.5 -221.5t107.5 -69.5q76 0 106.5 66.5t30.5 224.5q0 150 -29.5 216t-107.5 66q-76 0 -106.5 -64.5t-30.5 -217.5z" />
<glyph unicode="&#xf6;" horiz-adv-x="1091" d="M37 547q0 297 146.5 434t361.5 137q100 0 186 -29.5t161 -94t118 -179.5t43 -268q0 -293 -147.5 -431.5t-360.5 -138.5t-360.5 138.5t-147.5 431.5zM185 1196v332h301v-332h-301zM408 547q0 -152 29.5 -221.5t107.5 -69.5q76 0 106.5 66.5t30.5 224.5q0 150 -29.5 216 t-107.5 66q-76 0 -106.5 -64.5t-30.5 -217.5zM606 1196v332h299v-332h-299z" />
<glyph unicode="&#xf7;" horiz-adv-x="1187" d="M115 559v303h958v-303h-958zM444 172v281h299v-281h-299zM444 967v278h299v-278h-299z" />
<glyph unicode="&#xf8;" horiz-adv-x="1091" d="M37 547q0 297 146.5 434t361.5 137q131 0 239 -51l97 127l157 -102l-100 -148q115 -147 115 -397q0 -293 -147.5 -431.5t-360.5 -138.5q-141 0 -250 58l-88 -125l-156 104l96 144q-111 147 -110 389zM393 547q0 -40 2 -58l226 324q-33 23 -76 23q-152 0 -152 -289z M457 285q35 -35 88 -35q78 0 114.5 70.5t36.5 226.5q0 48 -2 71z" />
<glyph unicode="&#xf9;" d="M80 260v836h371v-721q0 -94 69 -94q63 0 142 69v746h370v-1096h-370v147q-43 -66 -126 -118t-192 -52q-264 0 -264 283zM211 1554h350l164 -350h-256z" />
<glyph unicode="&#xfa;" d="M80 260v836h371v-721q0 -94 69 -94q63 0 142 69v746h370v-1096h-370v147q-43 -66 -126 -118t-192 -52q-264 0 -264 283zM393 1204l164 350h350l-258 -350h-256z" />
<glyph unicode="&#xfb;" d="M80 260v836h371v-721q0 -94 69 -94q63 0 142 69v746h370v-1096h-370v147q-43 -66 -126 -118t-192 -52q-264 0 -264 283zM207 1208l225 346h246l223 -346h-211l-137 125l-135 -125h-211z" />
<glyph unicode="&#xfc;" d="M80 260v836h371v-721q0 -94 69 -94q63 0 142 69v746h370v-1096h-370v147q-43 -66 -126 -118t-192 -52q-264 0 -264 283zM193 1196v332h301v-332h-301zM614 1196v332h299v-332h-299z" />
<glyph unicode="&#xfd;" horiz-adv-x="1011" d="M-31 -381l70 291q104 -23 174 -23q45 0 68.5 15.5t35.5 52.5l11 31l-348 1110h387l79 -353q53 -233 70 -344h4q25 147 74 349l84 348h358l-383 -1196q-51 -160 -138 -238t-245 -78q-184 0 -301 35zM340 1204l164 350h350l-258 -350h-256z" />
<glyph unicode="&#xfe;" d="M88 -410v1926h371v-566q106 168 276 168q164 0 255 -142t91 -427t-92 -425t-258 -140q-176 0 -272 135v-529h-371zM459 334q70 -66 127 -66q68 0 95.5 65.5t27.5 213.5q0 139 -27 199.5t-98 60.5q-59 0 -125 -72v-401z" />
<glyph unicode="&#xff;" horiz-adv-x="1011" d="M-31 -381l70 291q104 -23 174 -23q45 0 68.5 15.5t35.5 52.5l11 31l-348 1110h387l79 -353q53 -233 70 -344h4q25 147 74 349l84 348h358l-383 -1196q-51 -160 -138 -238t-245 -78q-184 0 -301 35zM152 1196v332h301v-332h-301zM573 1196v332h299v-332h-299z" />
<glyph unicode="&#x152;" horiz-adv-x="1910" d="M51 757.5q0 395.5 178.5 591t450.5 195.5q191 1 287 -112v84h874v-320h-534v-264h381v-299h-381v-324h559v-309h-899v82q-88 -111 -287 -111q-272 0 -450.5 195.5t-178.5 591zM434 758q0 -473 246 -473q244 0 244 473q0 463 -244 463q-246 0 -246 -463z" />
<glyph unicode="&#x153;" horiz-adv-x="1671" d="M37 547q0 297 146.5 434t361.5 137q192 0 317 -123q125 123 307 123q207 0 336 -143.5t129 -458.5v-67h-600q10 -106 51 -153.5t115 -47.5q63 0 127 34.5t98 77.5l209 -176q-172 -207 -450 -207q-203 0 -328 119q-121 -119 -311 -119q-213 0 -360.5 138.5t-147.5 431.5z M408 547q0 -152 29.5 -221.5t107.5 -69.5q76 0 106.5 66.5t30.5 224.5q0 150 -29.5 216t-107.5 66q-76 0 -106.5 -64.5t-30.5 -217.5zM1036 649h264q-8 106 -39.5 148.5t-91.5 42.5q-113 -1 -133 -191z" />
<glyph unicode="&#x178;" horiz-adv-x="1228" d="M-8 1516h389l240 -592h4l239 592h373l-434 -936v-580h-381v580zM254 1595v332h301v-332h-301zM675 1595v332h299v-332h-299z" />
<glyph unicode="&#x2c6;" horiz-adv-x="1024" d="M164 1208l225 346h246l223 -346h-211l-137 125l-135 -125h-211z" />
<glyph unicode="&#x2dc;" horiz-adv-x="1024" d="M127 1178q0 367 242 366q63 0 113 -28.5t87 -57t68 -28.5q74 0 74 110h186q0 -366 -242 -366q-63 0 -113 28.5t-87 57t-68 28.5q-74 0 -74 -110h-186z" />
<glyph unicode="&#x2000;" horiz-adv-x="976" />
<glyph unicode="&#x2001;" horiz-adv-x="1953" />
<glyph unicode="&#x2002;" horiz-adv-x="976" />
<glyph unicode="&#x2003;" horiz-adv-x="1953" />
<glyph unicode="&#x2004;" horiz-adv-x="651" />
<glyph unicode="&#x2005;" horiz-adv-x="488" />
<glyph unicode="&#x2006;" horiz-adv-x="325" />
<glyph unicode="&#x2007;" horiz-adv-x="325" />
<glyph unicode="&#x2008;" horiz-adv-x="244" />
<glyph unicode="&#x2009;" horiz-adv-x="390" />
<glyph unicode="&#x200a;" horiz-adv-x="108" />
<glyph unicode="&#x2010;" horiz-adv-x="655" d="M59 504v262h535v-262h-535z" />
<glyph unicode="&#x2011;" horiz-adv-x="655" d="M59 504v262h535v-262h-535z" />
<glyph unicode="&#x2012;" horiz-adv-x="655" d="M59 504v262h535v-262h-535z" />
<glyph unicode="&#x2013;" horiz-adv-x="1212" d="M78 475v311h1057v-311h-1057z" />
<glyph unicode="&#x2014;" horiz-adv-x="1597" d="M74 475v311h1450v-311h-1450z" />
<glyph unicode="&#x2018;" horiz-adv-x="518" d="M78 895v336l162 285h176l-105 -261h129v-360h-362z" />
<glyph unicode="&#x2019;" horiz-adv-x="518" d="M78 1155v361h362v-336l-164 -285h-174l103 260h-127z" />
<glyph unicode="&#x201a;" horiz-adv-x="518" d="M78 0v360h362v-335l-164 -285h-174l103 260h-127z" />
<glyph unicode="&#x201c;" horiz-adv-x="1011" d="M78 895v336l162 285h176l-105 -261h129v-360h-362zM571 895v336l164 285h174l-102 -261h127v-360h-363z" />
<glyph unicode="&#x201d;" horiz-adv-x="1011" d="M78 1155v361h362v-336l-164 -285h-174l103 260h-127zM571 1155v361h363v-336l-162 -285h-176l104 260h-129z" />
<glyph unicode="&#x201e;" horiz-adv-x="1011" d="M78 0v360h362v-335l-164 -285h-174l103 260h-127zM571 0v360h363v-335l-162 -285h-176l104 260h-129z" />
<glyph unicode="&#x2022;" horiz-adv-x="948" d="M201 717q0 119 77.5 196.5t194.5 77.5q119 0 197 -77.5t78 -196.5q0 -117 -78 -195t-197 -78q-117 0 -194.5 78t-77.5 195z" />
<glyph unicode="&#x2026;" horiz-adv-x="1529" d="M70 0v360h370v-360h-370zM580 0v360h370v-360h-370zM1090 0v360h370v-360h-370z" />
<glyph unicode="&#x202f;" horiz-adv-x="390" />
<glyph unicode="&#x2039;" horiz-adv-x="686" d="M25 545l286 545h344l-274 -545l274 -545h-344z" />
<glyph unicode="&#x203a;" horiz-adv-x="686" d="M31 0l274 545l-274 545h344l287 -545l-287 -545h-344z" />
<glyph unicode="&#x205f;" horiz-adv-x="488" />
<glyph unicode="&#x20ac;" horiz-adv-x="1318" d="M35 483v209h166v66v41h-166v209h182q43 272 181.5 404t353.5 132q221 0 351 -122t161 -359l-344 -57q-29 229 -164 229q-141 0 -172 -227h254v-209h-269v-41v-66h269v-209h-256q16 -111 57 -162t121 -51q137 0 176 242l340 -39q-35 -219 -170 -360.5t-348 -141.5 q-444 0 -537 512h-186z" />
<glyph unicode="&#x2122;" horiz-adv-x="1654" d="M45 1296v220h606v-220h-182v-647h-240v647h-184zM739 649v867h330l96 -515l97 515h325v-867h-233v518l-101 -518h-196l-103 512v-512h-215z" />
<glyph unicode="&#x25fc;" horiz-adv-x="1095" d="M0 0v1096h1096v-1096h-1096z" />
<glyph unicode="&#xfb01;" horiz-adv-x="1226" d="M25 827v269h153v69q0 356 352 357q135 0 177 -11v-270q-33 8 -64 8q-96 0 -96 -106v-47h151v-269h-151v-827h-369v827h-153zM758 0v1096h370v-1096h-370zM758 1198v303h370v-303h-370z" />
<glyph unicode="&#xfb02;" horiz-adv-x="1226" d="M25 827v269h153v69q0 356 352 357q135 0 177 -11v-270q-33 8 -64 8q-96 0 -96 -106v-47h151v-269h-151v-827h-369v827h-153zM758 0v1516h370v-1516h-370z" />
</font>
</defs>
</svg>
