<?xml version="1.0" encoding="UTF-8"?>
<svg width="414px" height="37px" viewBox="0 0 414 37" version="1.1" xmlns="http://www.w3.org/2000/svg" xmlns:xlink="http://www.w3.org/1999/xlink">
    <!-- Generator: sketchtool 52.5 (67469) - http://www.bohemiancoding.com/sketch -->
    <title>211D7648-8FEF-44FE-9410-06E74167C6BA</title>
    <desc>Created with sketchtool.</desc>
    <g id="Page-1" stroke="none" stroke-width="1" fill="none" fill-rule="evenodd">
        <g id="Project" transform="translate(-90.000000, -47.000000)" fill="#F2E610">
            <g id="Group-52" transform="translate(90.000000, 46.000000)">
                <g id="Group-15">
                    <polygon id="Fill-1" points="297.0054 1.1669 297.0054 10.1669 297.0054 19.1669 297.0054 28.1669 297.0054 37.1669 306.0054 37.1669 306.0054 28.1669 315.0054 28.1669 315.0054 19.1669 306.0054 19.1669 306.0054 10.1669 306.0054 1.1669"></polygon>
                    <polygon id="Fill-2" points="324.0054 1.1894 324.0054 10.1894 315.0054 10.1894 315.0054 19.1894 324.0054 19.1894 324.0054 28.1894 324.0054 37.1894 333.0054 37.1894 333.0054 28.1894 333.0054 19.1894 333.0054 10.1894 333.0054 1.1894"></polygon>
                    <polygon id="Fill-3" points="89.983 37.1665 98.983 37.1665 98.983 28.1665 89.983 28.1665"></polygon>
                    <polygon id="Fill-4" points="71.9748 1.1669 71.9748 10.1669 71.9748 19.1669 80.9748 19.1669 80.9748 10.1669 80.9748 1.1669"></polygon>
                    <polygon id="Fill-5" points="98.9829 1.1669 98.9829 10.1669 98.9829 19.1669 98.9829 28.1669 107.9829 28.1669 107.9829 19.1669 107.9829 10.1669 107.9829 1.1669"></polygon>
                    <polygon id="Fill-6" points="80.983 28.1665 89.983 28.1665 89.983 19.1665 80.983 19.1665"></polygon>
                    <polygon id="Fill-7" points="53.9703 19.1669 53.9703 28.1669 53.9703 37.1669 62.9703 37.1669 62.9703 28.1669 62.9703 19.1669"></polygon>
                    <polygon id="Fill-8" points="44.97 19.1665 53.97 19.1665 53.97 10.1665 44.97 10.1665"></polygon>
                    <polygon id="Fill-9" points="53.97 10.1665 62.97 10.1665 62.97 1.1665 53.97 1.1665"></polygon>
                    <polygon id="Fill-10" points="279.0054 28.1669 278.8914 28.1669 270.0054 28.1669 270.0054 37.1669 278.8914 37.1669 279.0054 37.1669 287.8914 37.1669 287.8914 28.1669"></polygon>
                    <polygon id="Fill-11" points="279.0054 1.1669 270.0054 1.1669 261.0054 1.1669 261.0054 10.1669 261.0054 19.1669 261.0054 28.1669 270.0054 28.1669 270.0054 19.1669 270.0054 10.1669 279.0054 10.1669 288.0054 10.1669 288.0054 1.1669"></polygon>
                    <polygon id="Fill-12" points="152.9523 1.2875 143.9523 1.2875 143.9523 10.2875 143.9523 19.2875 135.0093 19.2875 135.0093 28.2875 143.9523 28.2875 144.0093 28.2875 144.0093 37.2875 153.0093 37.2875 162.0093 37.2875 171.0093 37.2875 171.0093 28.2875 162.0093 28.2875 153.0093 28.2875 152.9523 28.2875 152.9523 19.2875 152.9523 10.2875 161.9523 10.2875 161.9523 1.2875"></polygon>
                    <polygon id="Fill-13" points="243.0054 1.1669 234.0054 1.1669 225.0054 1.1669 225.0054 10.1669 225.0054 19.1669 225.0054 28.1669 234.0054 28.1669 234.0054 37.1669 243.0054 37.1669 252.0054 37.1669 252.0054 28.1669 243.0054 28.1669 243.0054 19.1669 234.0054 19.1669 234.0054 10.1669 243.0054 10.1669 252.0054 10.1669 252.0054 1.1669"></polygon>
                    <polygon id="Fill-14" points="207.0261 1.2875 198.0261 1.2875 198.0091 1.2875 189.0261 1.2875 180.0091 1.2875 180.0091 10.2875 189.0261 10.2875 189.0261 19.2875 189.0261 28.2875 189.0261 37.2875 198.0261 37.2875 198.0261 28.2875 198.0261 19.2875 198.0261 10.2875 207.0261 10.2875 216.0261 10.2875 216.0261 1.2875"></polygon>
                    <polygon id="Fill-15" points="27 1.1669 18 1.1669 9 1.1669 0 1.1669 0 10.1669 0 19.1669 0 28.1669 0 37.1669 9 37.1669 18 37.1669 18 28.1669 9 28.1669 9 19.1669 9 10.1669 18 10.1669 27 10.1669 36 10.1669 36 1.1669"></polygon>
                    <polygon id="Fill-16" points="117.009 1.2875 117.009 10.2875 117.009 19.2875 117.009 28.2875 117.009 37.2875 126.009 37.2875 126.009 28.2875 126.009 19.2875 126.009 10.2875 126.009 1.2875"></polygon>
                    <g id="Group-51" transform="translate(342.000000, 0.287500)">
                        <path d="M3.3456,9.9058 C2.9746,9.9058 2.6386,9.8568 2.3376,9.7588 C2.0366,9.6608 1.7656,9.5208 1.5236,9.3398 C1.2816,9.1618 1.0676,8.9438 0.8816,8.6838 C0.6966,8.4248 0.5346,8.1348 0.3986,7.8138 L1.2596,7.4218 C1.3616,7.6558 1.4796,7.8718 1.6146,8.0688 C1.7486,8.2658 1.9026,8.4348 2.0746,8.5758 C2.2456,8.7198 2.4376,8.8318 2.6486,8.9098 C2.8596,8.9878 3.0916,9.0268 3.3456,9.0268 C3.6076,9.0268 3.8416,8.9928 4.0486,8.9248 C4.2556,8.8558 4.4316,8.7588 4.5756,8.6338 C4.7166,8.5108 4.8246,8.3628 4.9016,8.1858 C4.9776,8.0098 5.0156,7.8118 5.0156,7.5928 C5.0156,7.3338 4.9646,7.1078 4.8636,6.9168 C4.7616,6.7238 4.6266,6.5528 4.4586,6.4048 C4.2906,6.2558 4.0976,6.1228 3.8786,6.0048 C3.6596,5.8868 3.4316,5.7718 3.1936,5.6578 C3.0056,5.5678 2.8156,5.4748 2.6216,5.3798 C2.4286,5.2838 2.2436,5.1788 2.0686,5.0658 C1.8886,4.9568 1.7216,4.8338 1.5676,4.6968 C1.4126,4.5598 1.2796,4.4058 1.1656,4.2338 C1.0486,4.0618 0.9566,3.8688 0.8906,3.6538 C0.8246,3.4388 0.7906,3.1948 0.7906,2.9218 C0.7906,2.5968 0.8526,2.2998 0.9756,2.0278 C1.0986,1.7568 1.2696,1.5228 1.4886,1.3278 C1.7026,1.1328 1.9566,0.9808 2.2496,0.8738 C2.5426,0.7658 2.8616,0.7128 3.2046,0.7128 C3.5566,0.7128 3.8716,0.7618 4.1516,0.8608 C4.4306,0.9608 4.6796,1.0928 4.8986,1.2598 C5.1136,1.4298 5.2996,1.6298 5.4576,1.8558 C5.6166,2.0818 5.7476,2.3218 5.8536,2.5758 L4.9916,2.9978 C4.9096,2.8098 4.8156,2.6318 4.7076,2.4618 C4.6006,2.2918 4.4746,2.1418 4.3296,2.0128 C4.1856,1.8848 4.0196,1.7818 3.8316,1.7058 C3.6446,1.6298 3.4316,1.5918 3.1936,1.5918 C2.9826,1.5918 2.7896,1.6228 2.6166,1.6848 C2.4426,1.7488 2.2946,1.8368 2.1736,1.9498 C2.0486,2.0628 1.9526,2.1988 1.8866,2.3578 C1.8206,2.5158 1.7866,2.6888 1.7866,2.8778 C1.7866,3.1348 1.8366,3.3608 1.9366,3.5518 C2.0356,3.7438 2.1696,3.9148 2.3376,4.0628 C2.5016,4.2118 2.6916,4.3448 2.9066,4.4658 C3.1206,4.5848 3.3436,4.7008 3.5746,4.8138 C3.7656,4.9038 3.9576,4.9968 4.1516,5.0928 C4.3446,5.1878 4.5316,5.2928 4.7106,5.4058 C4.8906,5.5188 5.0586,5.6438 5.2146,5.7808 C5.3706,5.9178 5.5076,6.0718 5.6246,6.2438 C5.7416,6.4198 5.8336,6.6158 5.9006,6.8328 C5.9666,7.0498 5.9996,7.2928 5.9996,7.5618 C5.9996,7.8858 5.9386,8.1908 5.8156,8.4758 C5.6926,8.7608 5.5156,9.0098 5.2846,9.2198 C5.0546,9.4308 4.7766,9.5978 4.4496,9.7208 C4.1236,9.8438 3.7556,9.9058 3.3456,9.9058" id="Fill-17"></path>
                        <path d="M7.8212,0.8765 L8.7822,0.8765 L9.7432,5.4405 C9.7942,5.6835 9.8412,5.9045 9.8842,6.1055 C9.9262,6.3075 9.9672,6.5075 10.0072,6.7065 C10.0462,6.9055 10.0872,7.1135 10.1302,7.3305 C10.1732,7.5475 10.2192,7.7925 10.2702,8.0655 L10.2942,8.0655 C10.3412,7.7925 10.3842,7.5475 10.4232,7.3305 C10.4622,7.1135 10.5032,6.9055 10.5462,6.7065 C10.5852,6.5075 10.6252,6.3075 10.6662,6.1055 C10.7072,5.9045 10.7512,5.6835 10.7982,5.4405 L11.7002,0.8765 L12.6142,0.8765 L13.5462,5.5585 C13.5922,5.7885 13.6372,6.0035 13.6802,6.2025 C13.7232,6.4015 13.7662,6.5995 13.8092,6.7945 C13.8482,6.9935 13.8862,7.1955 13.9242,7.4005 C13.9612,7.6055 13.9992,7.8275 14.0382,8.0655 L14.0612,8.0655 C14.1002,7.8435 14.1392,7.6295 14.1782,7.4245 C14.2172,7.2195 14.2572,7.0175 14.2962,6.8175 C14.3352,6.6185 14.3762,6.4165 14.4192,6.2115 C14.4622,6.0065 14.5072,5.7885 14.5532,5.5585 L15.5262,0.8765 L16.4282,0.8765 L14.4482,9.7945 L13.5982,9.7945 L12.1452,2.6465 L12.1222,2.6465 L10.6572,9.7945 L9.8012,9.7945 L7.8212,0.8765 Z" id="Fill-19"></path>
                        <polygon id="Fill-21" points="18.9003 0.8765 23.4353 0.8765 23.4353 1.7965 19.9083 1.7965 19.9083 4.6085 22.4863 4.6085 22.4863 5.5285 19.9083 5.5285 19.9083 8.8395 23.6403 8.8395 23.6403 9.7595 18.9003 9.7595"></polygon>
                        <path d="M28.2792,8.857 C28.7242,8.857 29.1122,8.789 29.4422,8.652 C29.7722,8.515 30.0472,8.302 30.2652,8.012 C30.4802,7.727 30.6412,7.361 30.7492,6.914 C30.8562,6.465 30.9102,5.929 30.9102,5.303 C30.9102,4.694 30.8562,4.168 30.7492,3.726 C30.6412,3.284 30.4802,2.92 30.2652,2.635 C30.0472,2.35 29.7712,2.139 29.4392,2.002 C29.1072,1.865 28.7162,1.796 28.2672,1.796 L27.2012,1.796 L27.2012,8.857 L28.2792,8.857 Z M26.1932,0.877 L28.1442,0.877 C28.7582,0.877 29.3002,0.961 29.7702,1.131 C30.2412,1.301 30.6362,1.564 30.9572,1.92 C31.2732,2.279 31.5122,2.739 31.6752,3.299 C31.8372,3.86 31.9182,4.529 31.9182,5.306 C31.9182,6.087 31.8352,6.758 31.6692,7.319 C31.5032,7.879 31.2592,8.339 30.9392,8.699 C30.6192,9.062 30.2242,9.33 29.7562,9.502 C29.2872,9.673 28.7502,9.759 28.1442,9.759 L26.1932,9.759 L26.1932,0.877 Z" id="Fill-23"></path>
                        <polygon id="Fill-25" points="34.5829 0.8765 39.1179 0.8765 39.1179 1.7965 35.5909 1.7965 35.5909 4.6085 38.1689 4.6085 38.1689 5.5285 35.5909 5.5285 35.5909 8.8395 39.3229 8.8395 39.3229 9.7595 34.5829 9.7595"></polygon>
                        <path d="M41.8769,0.8765 L43.0489,0.8765 L45.8319,6.3135 C45.9099,6.4665 45.9809,6.6055 46.0459,6.7305 C46.1099,6.8555 46.1739,6.9785 46.2359,7.0995 C46.2949,7.2205 46.3549,7.3445 46.4149,7.4715 C46.4759,7.5985 46.5429,7.7375 46.6169,7.8905 L46.6409,7.8905 L46.6409,0.8765 L47.5609,0.8765 L47.5609,9.7595 L46.6409,9.7595 L43.6639,4.0345 C43.5779,3.8745 43.5019,3.7305 43.4359,3.6015 C43.3689,3.4725 43.3049,3.3435 43.2419,3.2145 C43.1799,3.0895 43.1149,2.9585 43.0489,2.8215 C42.9819,2.6855 42.9059,2.5285 42.8199,2.3535 L42.7969,2.3535 L42.7969,9.7595 L41.8769,9.7595 L41.8769,0.8765 Z" id="Fill-27"></path>
                        <polygon id="Fill-29" points="57.871 0.8765 58.867 0.8765 54.478 9.7595 53.482 9.7595"></polygon>
                        <polygon id="Fill-31" points="62.8144 0.8765 63.8104 0.8765 59.4214 9.7595 58.4254 9.7595"></polygon>
                        <path d="M3.3456,24.3062 C2.9746,24.3062 2.6386,24.2562 2.3376,24.1592 C2.0366,24.0602 1.7656,23.9202 1.5236,23.7402 C1.2816,23.5622 1.0676,23.3432 0.8816,23.0832 C0.6966,22.8252 0.5346,22.5352 0.3986,22.2142 L1.2596,21.8222 C1.3616,22.0562 1.4796,22.2722 1.6146,22.4692 C1.7486,22.6662 1.9026,22.8352 2.0746,22.9762 C2.2456,23.1202 2.4376,23.2322 2.6486,23.3102 C2.8596,23.3882 3.0916,23.4272 3.3456,23.4272 C3.6076,23.4272 3.8416,23.3932 4.0486,23.3242 C4.2556,23.2552 4.4316,23.1592 4.5756,23.0332 C4.7166,22.9112 4.8246,22.7622 4.9016,22.5862 C4.9776,22.4102 5.0156,22.2112 5.0156,21.9932 C5.0156,21.7342 4.9646,21.5082 4.8636,21.3162 C4.7616,21.1242 4.6266,20.9532 4.4586,20.8042 C4.2906,20.6562 4.0976,20.5222 3.8786,20.4052 C3.6596,20.2872 3.4316,20.1712 3.1936,20.0582 C3.0056,19.9682 2.8156,19.8752 2.6216,19.7802 C2.4286,19.6842 2.2436,19.5792 2.0686,19.4662 C1.8886,19.3572 1.7216,19.2342 1.5676,19.0972 C1.4126,18.9602 1.2796,18.8062 1.1656,18.6342 C1.0486,18.4622 0.9566,18.2692 0.8906,18.0542 C0.8246,17.8392 0.7906,17.5952 0.7906,17.3222 C0.7906,16.9972 0.8526,16.7002 0.9756,16.4282 C1.0986,16.1572 1.2696,15.9232 1.4886,15.7282 C1.7026,15.5332 1.9566,15.3812 2.2496,15.2742 C2.5426,15.1662 2.8616,15.1132 3.2046,15.1132 C3.5566,15.1132 3.8716,15.1612 4.1516,15.2612 C4.4306,15.3602 4.6796,15.4932 4.8986,15.6602 C5.1136,15.8302 5.2996,16.0292 5.4576,16.2552 C5.6166,16.4822 5.7476,16.7222 5.8536,16.9762 L4.9916,17.3982 C4.9096,17.2102 4.8156,17.0322 4.7076,16.8622 C4.6006,16.6922 4.4746,16.5422 4.3296,16.4132 C4.1856,16.2852 4.0196,16.1822 3.8316,16.1062 C3.6446,16.0302 3.4316,15.9922 3.1936,15.9922 C2.9826,15.9922 2.7896,16.0232 2.6166,16.0852 C2.4426,16.1482 2.2946,16.2362 2.1736,16.3492 C2.0486,16.4632 1.9526,16.5992 1.8866,16.7572 C1.8206,16.9162 1.7866,17.0892 1.7866,17.2772 C1.7866,17.5352 1.8366,17.7602 1.9366,17.9522 C2.0356,18.1442 2.1696,18.3142 2.3376,18.4622 C2.5016,18.6122 2.6916,18.7452 2.9066,18.8652 C3.1206,18.9842 3.3436,19.1012 3.5746,19.2142 C3.7656,19.3042 3.9576,19.3972 4.1516,19.4932 C4.3446,19.5882 4.5316,19.6932 4.7106,19.8062 C4.8906,19.9192 5.0586,20.0442 5.2146,20.1812 C5.3706,20.3182 5.5076,20.4722 5.6246,20.6442 C5.7416,20.8202 5.8336,21.0162 5.9006,21.2332 C5.9666,21.4502 5.9996,21.6932 5.9996,21.9622 C5.9996,22.2862 5.9386,22.5912 5.8156,22.8762 C5.6926,23.1612 5.5156,23.4102 5.2846,23.6202 C5.0546,23.8312 4.7766,23.9982 4.4496,24.1212 C4.1236,24.2442 3.7556,24.3062 3.3456,24.3062" id="Fill-33"></path>
                        <polygon id="Fill-35" points="9.9365 16.1969 7.6455 16.1969 7.6455 15.2769 13.2415 15.2769 13.2415 16.1969 10.9445 16.1969 10.9445 24.1599 9.9365 24.1599"></polygon>
                        <path d="M18.1035,23.4097 C18.4395,23.4097 18.7425,23.3277 19.0115,23.1637 C19.2815,22.9997 19.5115,22.7597 19.7035,22.4427 C19.8905,22.1307 20.0355,21.7447 20.1365,21.2857 C20.2385,20.8267 20.2895,20.3027 20.2895,19.7127 C20.2895,19.1267 20.2385,18.6047 20.1365,18.1477 C20.0355,17.6907 19.8905,17.3047 19.7035,16.9877 C19.5115,16.6757 19.2815,16.4377 19.0115,16.2757 C18.7425,16.1137 18.4395,16.0327 18.1035,16.0327 C17.7635,16.0327 17.4575,16.1137 17.1835,16.2757 C16.9105,16.4377 16.6775,16.6757 16.4865,16.9877 C16.2945,17.3047 16.1485,17.6907 16.0465,18.1477 C15.9455,18.6047 15.8945,19.1267 15.8945,19.7127 C15.8945,20.3027 15.9455,20.8267 16.0465,21.2857 C16.1485,21.7447 16.2945,22.1307 16.4865,22.4427 C16.6775,22.7597 16.9105,22.9997 17.1835,23.1637 C17.4575,23.3277 17.7635,23.4097 18.1035,23.4097 M18.1035,24.3297 C17.6385,24.3297 17.2095,24.2297 16.8175,24.0307 C16.4245,23.8317 16.0855,23.5367 15.8005,23.1457 C15.5115,22.7557 15.2875,22.2727 15.1265,21.6987 C14.9665,21.1247 14.8865,20.4647 14.8865,19.7187 C14.8865,18.9727 14.9665,18.3117 15.1265,17.7377 C15.2875,17.1637 15.5115,16.6807 15.8005,16.2907 C16.0855,15.9037 16.4245,15.6107 16.8175,15.4117 C17.2095,15.2127 17.6385,15.1127 18.1035,15.1127 C18.5645,15.1127 18.9915,15.2127 19.3835,15.4117 C19.7765,15.6107 20.1155,15.9037 20.4005,16.2907 C20.6855,16.6807 20.9085,17.1637 21.0685,17.7377 C21.2285,18.3117 21.3085,18.9727 21.3085,19.7187 C21.3085,20.4647 21.2285,21.1247 21.0685,21.6987 C20.9085,22.2727 20.6855,22.7557 20.4005,23.1457 C20.1155,23.5367 19.7765,23.8317 19.3835,24.0307 C18.9915,24.2297 18.5645,24.3297 18.1035,24.3297" id="Fill-37"></path>
                        <path d="M26.7675,24.3179 C26.2795,24.3179 25.8405,24.2199 25.4525,24.0249 C25.0635,23.8299 24.7325,23.5369 24.4585,23.1459 C24.1855,22.7589 23.9755,22.2779 23.8295,21.7019 C23.6825,21.1259 23.6095,20.4569 23.6095,19.6949 C23.6095,18.9529 23.6845,18.2969 23.8345,17.7259 C23.9855,17.1559 24.1995,16.6769 24.4765,16.2909 C24.7535,15.9039 25.0875,15.6109 25.4785,15.4119 C25.8695,15.2129 26.3025,15.1129 26.7795,15.1129 C27.1935,15.1129 27.5545,15.1819 27.8635,15.3209 C28.1715,15.4599 28.4375,15.6519 28.6605,15.8979 C28.8785,16.1479 29.0585,16.4449 29.1995,16.7889 C29.3395,17.1319 29.4495,17.5089 29.5275,17.9199 L28.5895,18.0889 C28.5195,17.7529 28.4345,17.4559 28.3345,17.1989 C28.2355,16.9419 28.1135,16.7279 27.9685,16.5549 C27.8205,16.3829 27.6465,16.2529 27.4475,16.1649 C27.2475,16.0769 27.0175,16.0329 26.7555,16.0329 C26.4125,16.0329 26.1075,16.1159 25.8415,16.2819 C25.5765,16.4479 25.3535,16.6869 25.1735,17.0009 C24.9905,17.3129 24.8515,17.6949 24.7575,18.1459 C24.6635,18.5979 24.6175,19.1089 24.6175,19.6799 C24.6175,20.2819 24.6635,20.8149 24.7575,21.2779 C24.8515,21.7409 24.9905,22.1309 25.1735,22.4479 C25.3575,22.7639 25.5835,23.0049 25.8535,23.1699 C26.1225,23.3339 26.4315,23.4159 26.7795,23.4159 C27.0405,23.4159 27.2735,23.3729 27.4765,23.2869 C27.6795,23.2009 27.8595,23.0679 28.0155,22.8879 C28.1675,22.7129 28.3005,22.4889 28.4135,22.2169 C28.5275,21.9459 28.6225,21.6249 28.7015,21.2539 L29.6215,21.4119 C29.5355,21.8379 29.4145,22.2279 29.2605,22.5839 C29.1065,22.9389 28.9135,23.2459 28.6835,23.5039 C28.4495,23.7609 28.1735,23.9619 27.8575,24.1039 C27.5405,24.2469 27.1775,24.3179 26.7675,24.3179" id="Fill-39"></path>
                        <path d="M32.204,15.2769 L33.212,15.2769 L33.212,19.9349 C33.247,19.8729 33.298,19.7899 33.364,19.6859 C33.431,19.5829 33.507,19.4679 33.593,19.3429 C33.675,19.2219 33.763,19.0939 33.856,18.9599 C33.95,18.8249 34.042,18.6949 34.132,18.5699 L36.44,15.2769 L37.507,15.2769 L35.046,18.7219 L37.899,24.1599 L36.833,24.1599 L34.425,19.5779 L33.212,21.2299 L33.212,24.1599 L32.204,24.1599 L32.204,15.2769 Z" id="Fill-41"></path>
                        <polygon id="Fill-43" points="40.2187 15.2769 41.2267 15.2769 41.2267 19.0089 44.8237 19.0089 44.8237 15.2769 45.8317 15.2769 45.8317 24.1599 44.8237 24.1599 44.8237 19.9289 41.2267 19.9289 41.2267 24.1599 40.2187 24.1599"></polygon>
                        <path d="M51.7138,23.4097 C52.0498,23.4097 52.3528,23.3277 52.6218,23.1637 C52.8918,22.9997 53.1218,22.7597 53.3138,22.4427 C53.5008,22.1307 53.6458,21.7447 53.7468,21.2857 C53.8488,20.8267 53.8998,20.3027 53.8998,19.7127 C53.8998,19.1267 53.8488,18.6047 53.7468,18.1477 C53.6458,17.6907 53.5008,17.3047 53.3138,16.9877 C53.1218,16.6757 52.8918,16.4377 52.6218,16.2757 C52.3528,16.1137 52.0498,16.0327 51.7138,16.0327 C51.3738,16.0327 51.0678,16.1137 50.7938,16.2757 C50.5208,16.4377 50.2878,16.6757 50.0968,16.9877 C49.9048,17.3047 49.7588,17.6907 49.6568,18.1477 C49.5558,18.6047 49.5048,19.1267 49.5048,19.7127 C49.5048,20.3027 49.5558,20.8267 49.6568,21.2857 C49.7588,21.7447 49.9048,22.1307 50.0968,22.4427 C50.2878,22.7597 50.5208,22.9997 50.7938,23.1637 C51.0678,23.3277 51.3738,23.4097 51.7138,23.4097 M51.7138,24.3297 C51.2488,24.3297 50.8198,24.2297 50.4278,24.0307 C50.0348,23.8317 49.6958,23.5367 49.4108,23.1457 C49.1218,22.7557 48.8978,22.2727 48.7368,21.6987 C48.5768,21.1247 48.4968,20.4647 48.4968,19.7187 C48.4968,18.9727 48.5768,18.3117 48.7368,17.7377 C48.8978,17.1637 49.1218,16.6807 49.4108,16.2907 C49.6958,15.9037 50.0348,15.6107 50.4278,15.4117 C50.8198,15.2127 51.2488,15.1127 51.7138,15.1127 C52.1748,15.1127 52.6018,15.2127 52.9938,15.4117 C53.3868,15.6107 53.7258,15.9037 54.0108,16.2907 C54.2958,16.6807 54.5188,17.1637 54.6788,17.7377 C54.8388,18.3117 54.9188,18.9727 54.9188,19.7187 C54.9188,20.4647 54.8388,21.1247 54.6788,21.6987 C54.5188,22.2727 54.2958,22.7557 54.0108,23.1457 C53.7258,23.5367 53.3868,23.8317 52.9938,24.0307 C52.6018,24.2297 52.1748,24.3297 51.7138,24.3297" id="Fill-45"></path>
                        <polygon id="Fill-47" points="57.5839 15.2769 58.5919 15.2769 58.5919 23.2399 62.1069 23.2399 62.1069 24.1599 57.5839 24.1599"></polygon>
                        <path d="M64.5898,15.2769 L65.8498,15.2769 L68.0938,22.7539 L68.1168,22.7539 L70.3148,15.2769 L71.5738,15.2769 L71.5738,24.1599 L70.6018,24.1599 L70.6018,16.8879 L70.5778,16.8879 C70.5508,17.0289 70.5138,17.1909 70.4668,17.3749 C70.4198,17.5579 70.3688,17.7499 70.3148,17.9489 C70.2598,18.1479 70.2018,18.3499 70.1418,18.5549 C70.0808,18.7599 70.0218,18.9569 69.9628,19.1439 L68.4398,24.1599 L67.6488,24.1599 L66.1248,19.1209 C66.0698,18.9449 66.0138,18.7569 65.9548,18.5579 C65.8968,18.3589 65.8398,18.1599 65.7848,17.9609 C65.7308,17.7609 65.6798,17.5679 65.6328,17.3809 C65.5858,17.1929 65.5448,17.0249 65.5098,16.8769 L65.4858,16.8769 L65.4858,24.1599 L64.5898,24.1599 L64.5898,15.2769 Z" id="Fill-49"></path>
                    </g>
                </g>
            </g>
        </g>
    </g>
</svg>