<?xml version="1.0" encoding="utf-8"?>
<!-- Generator: Adobe Illustrator 22.0.1, SVG Export Plug-In . SVG Version: 6.00 Build 0)  -->
<svg width="232px" height="178px" version="1.1" id="Lager_1" xmlns="http://www.w3.org/2000/svg" xmlns:xlink="http://www.w3.org/1999/xlink" x="0px" y="0px"
	 viewBox="0 0 232 178" style="enable-background:new 0 0 232 178;" xml:space="preserve">
<style type="text/css">
	.st0{fill:#F2E610;}
</style>
<title>220E15DB-4260-4848-986F-457551A5A9DF</title>
<desc>Created with sketchtool.</desc>
<g id="Page-1">
	<g id="Startsida" transform="translate(-90.000000, -45.000000)">
		<g id="Group-31" transform="translate(90.000000, 45.000000)">
			<polygon id="Fill-1" class="st0" points="101.2,127.2 101.2,139.9 101.2,152.5 101.2,165.2 101.2,177.8 113.9,177.8 113.9,165.2
				126.6,165.2 126.6,152.5 113.9,152.5 113.9,139.9 113.9,127.2 			"/>
			<polygon id="Fill-2" class="st0" points="139.2,127.2 139.2,139.9 126.6,139.9 126.6,152.5 139.2,152.5 139.2,165.2 139.2,177.8
				151.9,177.8 151.9,165.2 151.9,152.5 151.9,139.9 151.9,127.2 			"/>
			<polygon id="Fill-3" class="st0" points="126.6,51.3 139.2,51.3 139.2,38.6 126.6,38.6 			"/>
			<polygon id="Fill-4" class="st0" points="113.9,13.3 113.9,0.6 101.2,0.6 101.2,13.3 101.2,26 113.9,26 			"/>
			<polygon id="Fill-5" class="st0" points="151.9,26 151.9,13.3 151.9,0.6 139.2,0.6 139.2,13.3 139.2,26 139.2,38.6 151.9,38.6
							"/>
			<polygon id="Fill-6" class="st0" points="113.9,38.6 126.6,38.6 126.6,26 113.9,26 			"/>
			<polygon id="Fill-7" class="st0" points="75.9,51.3 88.6,51.3 88.6,38.6 88.6,26 75.9,26 75.9,38.6 			"/>
			<polygon id="Fill-8" class="st0" points="63.3,26 75.9,26 75.9,13.3 63.3,13.3 			"/>
			<polygon id="Fill-9" class="st0" points="75.9,13.3 88.6,13.3 88.6,0.6 75.9,0.6 			"/>
			<polygon id="Fill-10" class="st0" points="75.9,165.2 75.8,165.2 63.3,165.2 63.3,177.8 75.8,177.8 75.9,177.8 88.4,177.8
				88.4,165.2 			"/>
			<polygon id="Fill-11" class="st0" points="63.3,127.2 50.6,127.2 50.6,139.9 50.6,152.5 50.6,165.2 63.3,165.2 63.3,152.5
				63.3,139.9 75.9,139.9 88.6,139.9 88.6,127.2 75.9,127.2 			"/>
			<polygon id="Fill-12" class="st0" points="63.3,101.9 63.2,101.9 63.2,89.2 63.2,76.6 75.9,76.6 75.9,63.9 63.2,63.9 50.5,63.9
				50.5,76.6 50.5,89.2 38,89.2 38,101.9 50.5,101.9 50.6,101.9 50.6,114.5 63.3,114.5 75.9,114.5 88.6,114.5 88.6,101.9
				75.9,101.9 			"/>
			<polygon id="Fill-13" class="st0" points="25.3,127.2 12.7,127.2 0,127.2 0,139.9 0,152.5 0,165.2 12.7,165.2 12.7,177.8
				25.3,177.8 38,177.8 38,165.2 25.3,165.2 25.3,152.5 12.7,152.5 12.7,139.9 25.3,139.9 38,139.9 38,127.2 			"/>
			<polygon id="Fill-14" class="st0" points="139.2,63.9 126.6,63.9 126.6,63.9 113.9,63.9 101.2,63.9 101.2,76.6 113.9,76.6
				113.9,89.2 113.9,101.9 113.9,114.5 126.6,114.5 126.6,101.9 126.6,89.2 126.6,76.6 139.2,76.6 151.9,76.6 151.9,63.9 			"/>
			<polygon id="Fill-15" class="st0" points="38,0.6 25.3,0.6 12.7,0.6 0,0.6 0,13.3 0,26 0,38.6 0,51.3 12.7,51.3 25.3,51.3
				25.3,38.6 12.7,38.6 12.7,26 12.7,13.3 25.3,13.3 38,13.3 50.6,13.3 50.6,0.6 			"/>
			<polygon id="Fill-16" class="st0" points="12.7,76.6 12.7,89.2 12.7,101.9 12.7,114.5 25.3,114.5 25.3,101.9 25.3,89.2
				25.3,76.6 25.3,63.9 12.7,63.9 			"/>
			<g id="Group-30" transform="translate(164.531250, 0.234844)">
				<path id="Fill-17" class="st0" d="M4.7,13.1c-0.5,0-1-0.1-1.4-0.2c-0.4-0.1-0.8-0.3-1.1-0.6c-0.3-0.3-0.6-0.6-0.9-0.9
					C1,11,0.8,10.6,0.6,10.2l1.2-0.6c0.1,0.3,0.3,0.6,0.5,0.9c0.2,0.3,0.4,0.5,0.6,0.7c0.2,0.2,0.5,0.4,0.8,0.5
					c0.3,0.1,0.6,0.2,1,0.2c0.4,0,0.7,0,1-0.1c0.3-0.1,0.5-0.2,0.7-0.4c0.2-0.2,0.4-0.4,0.5-0.6c0.1-0.2,0.2-0.5,0.2-0.8
					c0-0.4-0.1-0.7-0.2-1C6.7,8.6,6.5,8.4,6.3,8.2C6.1,8,5.8,7.8,5.5,7.6c-0.3-0.2-0.6-0.3-1-0.5C4.3,7,4,6.9,3.7,6.7
					C3.4,6.6,3.2,6.5,2.9,6.3C2.7,6.1,2.4,6,2.2,5.8C2,5.6,1.8,5.4,1.7,5.1C1.5,4.9,1.4,4.6,1.3,4.3C1.2,4,1.1,3.7,1.1,3.3
					c0-0.5,0.1-0.9,0.3-1.3c0.2-0.4,0.4-0.7,0.7-1c0.3-0.3,0.7-0.5,1.1-0.6C3.6,0.2,4,0.2,4.5,0.2c0.5,0,0.9,0.1,1.3,0.2
					c0.4,0.1,0.7,0.3,1.1,0.6c0.3,0.2,0.6,0.5,0.8,0.8c0.2,0.3,0.4,0.7,0.6,1L7,3.4C6.9,3.1,6.8,2.9,6.6,2.6C6.5,2.4,6.3,2.2,6.1,2
					C5.9,1.8,5.7,1.7,5.4,1.6C5.1,1.5,4.9,1.4,4.5,1.4c-0.3,0-0.6,0-0.8,0.1C3.5,1.6,3.3,1.8,3.1,1.9C2.9,2.1,2.8,2.3,2.7,2.5
					C2.6,2.7,2.5,3,2.5,3.2c0,0.4,0.1,0.7,0.2,0.9c0.1,0.3,0.3,0.5,0.6,0.7c0.2,0.2,0.5,0.4,0.8,0.6c0.3,0.2,0.6,0.3,0.9,0.5
					c0.3,0.1,0.5,0.3,0.8,0.4c0.3,0.1,0.5,0.3,0.8,0.4c0.3,0.2,0.5,0.3,0.7,0.5c0.2,0.2,0.4,0.4,0.6,0.7c0.2,0.2,0.3,0.5,0.4,0.8
					c0.1,0.3,0.1,0.6,0.1,1c0,0.5-0.1,0.9-0.3,1.3c-0.2,0.4-0.4,0.8-0.7,1c-0.3,0.3-0.7,0.5-1.2,0.7C5.8,13,5.3,13.1,4.7,13.1"/>
				<path id="Fill-19" class="st0" d="M11,0.4h1.4l1.4,6.4c0.1,0.3,0.1,0.7,0.2,0.9C14,8,14,8.3,14.1,8.6c0.1,0.3,0.1,0.6,0.2,0.9
					s0.1,0.6,0.2,1h0c0.1-0.4,0.1-0.7,0.2-1s0.1-0.6,0.2-0.9C14.9,8.3,15,8,15,7.8c0.1-0.3,0.1-0.6,0.2-0.9l1.3-6.4h1.3L19.1,7
					c0.1,0.3,0.1,0.6,0.2,0.9s0.1,0.6,0.2,0.8c0.1,0.3,0.1,0.6,0.2,0.9c0.1,0.3,0.1,0.6,0.2,0.9h0c0.1-0.3,0.1-0.6,0.2-0.9
					C20,9.3,20.1,9,20.1,8.8c0.1-0.3,0.1-0.6,0.2-0.9c0.1-0.3,0.1-0.6,0.2-0.9l1.4-6.6h1.3l-2.8,12.5h-1.2l-2-10.1h0L15,12.9h-1.2
					L11,0.4z"/>
				<polygon id="Fill-21" class="st0" points="26.6,0.4 33,0.4 33,1.7 28,1.7 28,5.7 31.6,5.7 31.6,6.9 28,6.9 28,11.6 33.3,11.6
					33.3,12.9 26.6,12.9 				"/>
				<path id="Fill-23" class="st0" d="M39.8,11.6c0.6,0,1.2-0.1,1.6-0.3c0.5-0.2,0.9-0.5,1.2-0.9c0.3-0.4,0.5-0.9,0.7-1.5
					c0.2-0.6,0.2-1.4,0.2-2.3c0-0.9-0.1-1.6-0.2-2.2c-0.2-0.6-0.4-1.1-0.7-1.5c-0.3-0.4-0.7-0.7-1.2-0.9c-0.5-0.2-1-0.3-1.6-0.3
					h-1.5v9.9H39.8z M36.9,0.4h2.7c0.9,0,1.6,0.1,2.3,0.4c0.7,0.2,1.2,0.6,1.7,1.1c0.4,0.5,0.8,1.2,1,1.9c0.2,0.8,0.3,1.7,0.3,2.8
					c0,1.1-0.1,2-0.4,2.8c-0.2,0.8-0.6,1.4-1,1.9c-0.5,0.5-1,0.9-1.7,1.1c-0.7,0.2-1.4,0.4-2.3,0.4h-2.7V0.4z"/>
				<polygon id="Fill-25" class="st0" points="48.7,0.4 55,0.4 55,1.7 50.1,1.7 50.1,5.7 53.7,5.7 53.7,6.9 50.1,6.9 50.1,11.6
					55.3,11.6 55.3,12.9 48.7,12.9 				"/>
				<g id="Group-29" transform="translate(58.656250, 0.000000)">
					<path id="Fill-27" class="st0" d="M0.3,0.4h1.6L5.8,8C5.9,8.3,6,8.5,6.1,8.6C6.2,8.8,6.3,9,6.4,9.2c0.1,0.2,0.2,0.3,0.3,0.5
						c0.1,0.2,0.2,0.4,0.3,0.6h0V0.4h1.3v12.5H7L2.8,4.8C2.6,4.6,2.5,4.4,2.5,4.2C2.4,4.1,2.3,3.9,2.2,3.7C2.1,3.5,2,3.3,1.9,3.1
						C1.8,2.9,1.7,2.7,1.6,2.5h0v10.4H0.3V0.4z"/>
				</g>
			</g>
		</g>
	</g>
</g>
</svg>
