<?xml version="1.0" encoding="utf-8"?>
<!-- Generator: Adobe Illustrator 22.0.1, SVG Export Plug-In . SVG Version: 6.00 Build 0)  -->
<svg width="414px" height="37px" version="1.1" id="Lager_1" xmlns="http://www.w3.org/2000/svg" xmlns:xlink="http://www.w3.org/1999/xlink" x="0px" y="0px"
	 viewBox="0 0 414 37" style="enable-background:new 0 0 414 37;" xml:space="preserve">
<style type="text/css">
	.st0{fill:#F2E610;}
</style>
<title>211D7648-8FEF-44FE-9410-06E74167C6BA</title>
<desc>Created with sketchtool.</desc>
<g id="Page-1">
	<g id="Project" transform="translate(-90.000000, -47.000000)">
		<g id="Group-52" transform="translate(90.000000, 46.000000)">
			<g id="Group-15">
				<polygon id="Fill-1" class="st0" points="297,1.2 297,10.2 297,19.2 297,28.2 297,37.2 306,37.2 306,28.2 315,28.2 315,19.2
					306,19.2 306,10.2 306,1.2 				"/>
				<polygon id="Fill-2" class="st0" points="324,1.2 324,10.2 315,10.2 315,19.2 324,19.2 324,28.2 324,37.2 333,37.2 333,28.2
					333,19.2 333,10.2 333,1.2 				"/>
				<polygon id="Fill-3" class="st0" points="90,37.2 99,37.2 99,28.2 90,28.2 				"/>
				<polygon id="Fill-4" class="st0" points="72,1.2 72,10.2 72,19.2 81,19.2 81,10.2 81,1.2 				"/>
				<polygon id="Fill-5" class="st0" points="99,1.2 99,10.2 99,19.2 99,28.2 108,28.2 108,19.2 108,10.2 108,1.2 				"/>
				<polygon id="Fill-6" class="st0" points="81,28.2 90,28.2 90,19.2 81,19.2 				"/>
				<polygon id="Fill-7" class="st0" points="54,19.2 54,28.2 54,37.2 63,37.2 63,28.2 63,19.2 				"/>
				<polygon id="Fill-8" class="st0" points="45,19.2 54,19.2 54,10.2 45,10.2 				"/>
				<polygon id="Fill-9" class="st0" points="54,10.2 63,10.2 63,1.2 54,1.2 				"/>
				<polygon id="Fill-10" class="st0" points="279,28.2 278.9,28.2 270,28.2 270,37.2 278.9,37.2 279,37.2 287.9,37.2 287.9,28.2
									"/>
				<polygon id="Fill-11" class="st0" points="279,1.2 270,1.2 261,1.2 261,10.2 261,19.2 261,28.2 270,28.2 270,19.2 270,10.2
					279,10.2 288,10.2 288,1.2 				"/>
				<polygon id="Fill-12" class="st0" points="153,1.3 144,1.3 144,10.3 144,19.3 135,19.3 135,28.3 144,28.3 144,28.3 144,37.3
					153,37.3 162,37.3 171,37.3 171,28.3 162,28.3 153,28.3 153,28.3 153,19.3 153,10.3 162,10.3 162,1.3 				"/>
				<polygon id="Fill-13" class="st0" points="243,1.2 234,1.2 225,1.2 225,10.2 225,19.2 225,28.2 234,28.2 234,37.2 243,37.2
					252,37.2 252,28.2 243,28.2 243,19.2 234,19.2 234,10.2 243,10.2 252,10.2 252,1.2 				"/>
				<polygon id="Fill-14" class="st0" points="207,1.3 198,1.3 198,1.3 189,1.3 180,1.3 180,10.3 189,10.3 189,19.3 189,28.3
					189,37.3 198,37.3 198,28.3 198,19.3 198,10.3 207,10.3 216,10.3 216,1.3 				"/>
				<polygon id="Fill-15" class="st0" points="27,1.2 18,1.2 9,1.2 0,1.2 0,10.2 0,19.2 0,28.2 0,37.2 9,37.2 18,37.2 18,28.2
					9,28.2 9,19.2 9,10.2 18,10.2 27,10.2 36,10.2 36,1.2 				"/>
				<polygon id="Fill-16" class="st0" points="117,1.3 117,10.3 117,19.3 117,28.3 117,37.3 126,37.3 126,28.3 126,19.3 126,10.3
					126,1.3 				"/>
				<g id="Group-51" transform="translate(342.000000, 0.287500)">
					<path id="Fill-17" class="st0" d="M3.3,9.9c-0.4,0-0.7,0-1-0.1C2,9.7,1.8,9.5,1.5,9.3C1.3,9.2,1.1,8.9,0.9,8.7
						C0.7,8.4,0.5,8.1,0.4,7.8l0.9-0.4c0.1,0.2,0.2,0.4,0.4,0.6c0.1,0.2,0.3,0.4,0.5,0.5c0.2,0.1,0.4,0.3,0.6,0.3C2.9,9,3.1,9,3.3,9
						C3.6,9,3.8,9,4,8.9c0.2-0.1,0.4-0.2,0.5-0.3c0.1-0.1,0.2-0.3,0.3-0.4C5,8,5,7.8,5,7.6C5,7.3,5,7.1,4.9,6.9
						C4.8,6.7,4.6,6.6,4.5,6.4C4.3,6.3,4.1,6.1,3.9,6C3.7,5.9,3.4,5.8,3.2,5.7C3,5.6,2.8,5.5,2.6,5.4C2.4,5.3,2.2,5.2,2.1,5.1
						C1.9,5,1.7,4.8,1.6,4.7C1.4,4.6,1.3,4.4,1.2,4.2C1,4.1,1,3.9,0.9,3.7S0.8,3.2,0.8,2.9C0.8,2.6,0.9,2.3,1,2
						c0.1-0.3,0.3-0.5,0.5-0.7C1.7,1.1,2,1,2.2,0.9c0.3-0.1,0.6-0.2,1-0.2c0.4,0,0.7,0,0.9,0.1C4.4,1,4.7,1.1,4.9,1.3
						c0.2,0.2,0.4,0.4,0.6,0.6c0.2,0.2,0.3,0.5,0.4,0.7L5,3C4.9,2.8,4.8,2.6,4.7,2.5C4.6,2.3,4.5,2.1,4.3,2C4.2,1.9,4,1.8,3.8,1.7
						C3.6,1.6,3.4,1.6,3.2,1.6c-0.2,0-0.4,0-0.6,0.1C2.4,1.7,2.3,1.8,2.2,1.9C2,2.1,2,2.2,1.9,2.4C1.8,2.5,1.8,2.7,1.8,2.9
						c0,0.3,0,0.5,0.1,0.7C2,3.7,2.2,3.9,2.3,4.1c0.2,0.1,0.4,0.3,0.6,0.4c0.2,0.1,0.4,0.2,0.7,0.3C3.8,4.9,4,5,4.2,5.1
						c0.2,0.1,0.4,0.2,0.6,0.3c0.2,0.1,0.3,0.2,0.5,0.4s0.3,0.3,0.4,0.5c0.1,0.2,0.2,0.4,0.3,0.6C6,7,6,7.3,6,7.6
						c0,0.3-0.1,0.6-0.2,0.9C5.7,8.8,5.5,9,5.3,9.2C5.1,9.4,4.8,9.6,4.4,9.7C4.1,9.8,3.8,9.9,3.3,9.9"/>
					<path id="Fill-19" class="st0" d="M7.8,0.9h1l1,4.6c0.1,0.2,0.1,0.5,0.1,0.7c0,0.2,0.1,0.4,0.1,0.6c0,0.2,0.1,0.4,0.1,0.6
						c0,0.2,0.1,0.5,0.1,0.7h0c0-0.3,0.1-0.5,0.1-0.7c0-0.2,0.1-0.4,0.1-0.6c0-0.2,0.1-0.4,0.1-0.6c0-0.2,0.1-0.4,0.1-0.7l0.9-4.6
						h0.9l0.9,4.7c0,0.2,0.1,0.4,0.1,0.6c0,0.2,0.1,0.4,0.1,0.6c0,0.2,0.1,0.4,0.1,0.6C14,7.6,14,7.8,14,8.1h0
						c0-0.2,0.1-0.4,0.1-0.6c0-0.2,0.1-0.4,0.1-0.6c0-0.2,0.1-0.4,0.1-0.6c0-0.2,0.1-0.4,0.1-0.7l1-4.7h0.9l-2,8.9h-0.9l-1.5-7.1h0
						l-1.5,7.1H9.8L7.8,0.9z"/>
					<polygon id="Fill-21" class="st0" points="18.9,0.9 23.4,0.9 23.4,1.8 19.9,1.8 19.9,4.6 22.5,4.6 22.5,5.5 19.9,5.5 19.9,8.8
						23.6,8.8 23.6,9.8 18.9,9.8 					"/>
					<path id="Fill-23" class="st0" d="M28.3,8.9c0.4,0,0.8-0.1,1.2-0.2C29.8,8.5,30,8.3,30.3,8c0.2-0.3,0.4-0.7,0.5-1.1
						c0.1-0.4,0.2-1,0.2-1.6c0-0.6-0.1-1.1-0.2-1.6c-0.1-0.4-0.3-0.8-0.5-1.1C30,2.3,29.8,2.1,29.4,2c-0.3-0.1-0.7-0.2-1.2-0.2h-1.1
						v7.1H28.3z M26.2,0.9h2c0.6,0,1.2,0.1,1.6,0.3c0.5,0.2,0.9,0.4,1.2,0.8c0.3,0.4,0.6,0.8,0.7,1.4c0.2,0.6,0.2,1.2,0.2,2
						c0,0.8-0.1,1.5-0.2,2c-0.2,0.6-0.4,1-0.7,1.4c-0.3,0.4-0.7,0.6-1.2,0.8c-0.5,0.2-1,0.3-1.6,0.3h-2V0.9z"/>
					<polygon id="Fill-25" class="st0" points="34.6,0.9 39.1,0.9 39.1,1.8 35.6,1.8 35.6,4.6 38.2,4.6 38.2,5.5 35.6,5.5 35.6,8.8
						39.3,8.8 39.3,9.8 34.6,9.8 					"/>
					<path id="Fill-27" class="st0" d="M41.9,0.9H43l2.8,5.4C45.9,6.5,46,6.6,46,6.7c0.1,0.1,0.1,0.2,0.2,0.4
						c0.1,0.1,0.1,0.2,0.2,0.4c0.1,0.1,0.1,0.3,0.2,0.4h0v-7h0.9v8.9h-0.9l-3-5.7c-0.1-0.2-0.2-0.3-0.2-0.4
						c-0.1-0.1-0.1-0.3-0.2-0.4C43.2,3.1,43.1,3,43,2.8c-0.1-0.1-0.1-0.3-0.2-0.5h0v7.4h-0.9V0.9z"/>
				</g>
			</g>
		</g>
	</g>
</g>
</svg>
