<svg xmlns="http://www.w3.org/2000/svg" height="136.667" width="543.067"><g transform="matrix(.13333 0 0 -.13333 0 136.667)" fill="#000000"><path d="M3155.53 618.672h-4.33L3149.04 605l-22.32-167.051h53.29L3157.69 605l-2.16 13.672M1699.5 671.25c-7.92 25.195-23.04 28.066-49.68 28.066V325.605c26.64 0 41.76 2.891 49.68 28.809 3.61 12.246 6.49 30.957 7.21 56.172.71 25.195.71 59.043.71 102.246 0 43.203 0 77.051-.71 102.246-.72 24.473-3.6 43.203-7.21 56.172m1780.66-191.543c-12.96 9.356-28.09 7.93-34.56 7.93V324.902c6.47 0 21.6-1.445 34.56 7.911 12.96 9.355 23.03 30.234 23.03 73.457 0 43.203-10.07 64.082-23.03 73.437M623.113 671.25c-7.918 25.195-23.035 28.066-49.675 28.066V325.605c26.64 0 41.757 2.891 49.675 28.809 3.606 12.246 6.489 30.957 7.207 56.172.715 25.195.715 59.043.715 102.246 0 43.203 0 77.051-.715 102.246-.718 24.473-3.601 43.203-7.207 56.172"/><path d="M3558.64 295.371c-18-27.363-48.96-45.371-95.05-47.519h-95.77V777.09h68.41c46.08 0 82.09-8.633 105.85-30.957 23.76-22.324 36.01-56.895 36.01-109.453 0-25.196-2.16-43.926-10.08-61.211-7.93-17.266-20.17-31.68-38.17-48.242 19.44-10.801 33.84-30.957 45.37-64.805 5.76-16.563 8.64-38.164 8.64-64.805 0-39.609-7.21-74.883-25.21-102.246zm-353.43-47.519l-14.4 108.007h-74.89l-14.41-108.007h-75.6l79.93 529.238h95.05l79.92-529.238zm-268.56 0h-180.74V777.09h77.77V319.844h102.97zm-431.48 0h-72.01v354.98h-4.32l-2.88-22.324-49.68-332.656h-33.13l-49.68 332.656-2.88 22.324h-4.32v-354.98h-72.01V777.09h95.05l46.08-241.934 3.6-28.086h1.44l3.6 28.086 46.09 241.934h95.05zm-415.42 449.316h-100.09V558.203h72v-84.98h-72v-145.45h100.09v-79.921h-177.87V777.09h177.87zm-324.72-394.59c-20.88-40.332-59.77-54.726-131.77-54.726h-61.21V777.09h61.21c72 0 110.89-14.395 131.77-54.727 20.17-40.312 23.05-106.562 23.05-210.254 0-103.691-2.88-169.218-23.05-209.531zm-317.74-54.726h-77.78V777.09h77.78zm-202.09 339.14h-77.78v81.367c0 14.414-2.88 24.493-10.08 33.125-3.6 3.594-9.35 5.762-15.84 5.762-13.68 0-20.16-10.078-23.04-19.433-2.16-5.762-2.87-12.247-2.87-19.454V356.582c0-7.207.71-13.691 2.87-19.453 2.88-9.356 9.36-19.434 23.04-19.434 6.49 0 12.24 2.168 15.84 5.762 7.2 8.633 10.08 18.711 10.08 33.125V445.859h-21.04v65.528h98.82V356.582c-.73-20.879-5.04-40.332-12.96-56.894-6.49-14.395-16.57-28.79-30.97-39.59-14.4-10.801-33.85-18.008-59.77-18.008-25.91 0-46.08 7.207-60.48 18.008-14.4 10.8-23.76 25.195-30.25 39.59-7.92 16.562-12.23 36.015-12.96 56.894v311.777c.73 20.879 5.04 40.332 12.96 56.895 6.49 14.394 15.85 28.789 30.25 39.59 14.4 10.801 34.57 18.008 60.48 18.008 25.92 0 45.37-7.207 59.77-18.008 14.4-10.801 24.48-25.196 30.97-39.59 7.92-16.563 12.23-36.016 12.96-56.895zm-331.93-339.14h-77.774V777.09h77.774zm-224.625 54.726c-20.879-40.332-59.766-54.726-131.77-54.726h-61.211V777.09h61.211c72.004 0 110.891-14.395 131.77-54.727 20.164-40.312 23.043-106.562 23.043-210.254 0-103.691-2.879-169.218-23.043-209.531zM0 1025V0h4072.97v1025H0"/><path d="M3480.16 692.129c-12.96 8.633-28.09 7.91-34.56 7.91V558.906c6.47 0 21.6-.703 34.56 7.93s23.03 25.918 23.03 62.637c0 36.738-10.07 54.004-23.03 62.656"/></g></svg>