<?xml version="1.0" encoding="UTF-8" standalone="no"?>
<svg
   xmlns:dc="http://purl.org/dc/elements/1.1/"
   xmlns:cc="http://creativecommons.org/ns#"
   xmlns:rdf="http://www.w3.org/1999/02/22-rdf-syntax-ns#"
   xmlns:svg="http://www.w3.org/2000/svg"
   xmlns="http://www.w3.org/2000/svg"
   viewBox="0 0 543.06665 136.66667"
   height="136.66667"
   width="543.06665"
   xml:space="preserve"
   id="svg2"
   version="1.1"><metadata
     id="metadata8"><rdf:RDF><cc:Work
         rdf:about=""><dc:format>image/svg+xml</dc:format><dc:type
           rdf:resource="http://purl.org/dc/dcmitype/StillImage" /></cc:Work></rdf:RDF></metadata><defs
     id="defs6" /><g
     transform="matrix(1.3333333,0,0,-1.3333333,0,136.66667)"
     id="g10"><g
       transform="scale(0.1)"
       id="g12"><path
         id="path14"
         style="fill:#000000;fill-opacity:1;fill-rule:nonzero;stroke:none"
         d="m 3155.53,618.672 h -4.33 L 3149.04,605 3126.72,437.949 h 53.29 L 3157.69,605 l -2.16,13.672" /><path
         id="path16"
         style="fill:#000000;fill-opacity:1;fill-rule:nonzero;stroke:none"
         d="m 1699.5,671.25 c -7.92,25.195 -23.04,28.066 -49.68,28.066 V 325.605 c 26.64,0 41.76,2.891 49.68,28.809 3.61,12.246 6.49,30.957 7.21,56.172 0.71,25.195 0.71,59.043 0.71,102.246 0,43.203 0,77.051 -0.71,102.246 -0.72,24.473 -3.6,43.203 -7.21,56.172" /><path
         id="path18"
         style="fill:#000000;fill-opacity:1;fill-rule:nonzero;stroke:none"
         d="m 3480.16,479.707 c -12.96,9.356 -28.09,7.93 -34.56,7.93 V 324.902 c 6.47,0 21.6,-1.445 34.56,7.911 12.96,9.355 23.03,30.234 23.03,73.457 0,43.203 -10.07,64.082 -23.03,73.437" /><path
         id="path20"
         style="fill:#000000;fill-opacity:1;fill-rule:nonzero;stroke:none"
         d="m 623.113,671.25 c -7.918,25.195 -23.035,28.066 -49.675,28.066 V 325.605 c 26.64,0 41.757,2.891 49.675,28.809 3.606,12.246 6.489,30.957 7.207,56.172 0.715,25.195 0.715,59.043 0.715,102.246 0,43.203 0,77.051 -0.715,102.246 -0.718,24.473 -3.601,43.203 -7.207,56.172" /><path
         id="path22"
         style="fill:#000000;fill-opacity:1;fill-rule:nonzero;stroke:none"
         d="m 3558.64,295.371 c -18,-27.363 -48.96,-45.371 -95.05,-47.519 h -95.77 V 777.09 h 68.41 c 46.08,0 82.09,-8.633 105.85,-30.957 23.76,-22.324 36.01,-56.895 36.01,-109.453 0,-25.196 -2.16,-43.926 -10.08,-61.211 -7.93,-17.266 -20.17,-31.68 -38.17,-48.242 19.44,-10.801 33.84,-30.957 45.37,-64.805 5.76,-16.563 8.64,-38.164 8.64,-64.805 0,-39.609 -7.21,-74.883 -25.21,-102.246 z m -353.43,-47.519 -14.4,108.007 h -74.89 l -14.41,-108.007 h -75.6 l 79.93,529.238 h 95.05 l 79.92,-529.238 z m -268.56,0 H 2755.91 V 777.09 h 77.77 V 319.844 h 102.97 z m -431.48,0 h -72.01 v 354.98 h -4.32 l -2.88,-22.324 -49.68,-332.656 h -33.13 l -49.68,332.656 -2.88,22.324 h -4.32 v -354.98 h -72.01 V 777.09 h 95.05 l 46.08,-241.934 3.6,-28.086 h 1.44 l 3.6,28.086 46.09,241.934 h 95.05 z M 2089.75,697.168 H 1989.66 V 558.203 h 72 v -84.98 h -72 v -145.45 h 100.09 V 247.852 H 1911.88 V 777.09 h 177.87 z m -324.72,-394.59 c -20.88,-40.332 -59.77,-54.726 -131.77,-54.726 h -61.21 V 777.09 h 61.21 c 72,0 110.89,-14.395 131.77,-54.727 20.17,-40.312 23.05,-106.562 23.05,-210.254 0,-103.691 -2.88,-169.218 -23.05,-209.531 z m -317.74,-54.726 h -77.78 V 777.09 h 77.78 z m -202.09,339.14 h -77.78 v 81.367 c 0,14.414 -2.88,24.493 -10.08,33.125 -3.6,3.594 -9.35,5.762 -15.84,5.762 -13.68,0 -20.16,-10.078 -23.04,-19.433 -2.16,-5.762 -2.87,-12.247 -2.87,-19.454 V 484.688 356.582 c 0,-7.207 0.71,-13.691 2.87,-19.453 2.88,-9.356 9.36,-19.434 23.04,-19.434 6.49,0 12.24,2.168 15.84,5.762 7.2,8.633 10.08,18.711 10.08,33.125 v 50.547 30.82 7.91 h -21.04 v 65.528 h 98.82 v -73.438 -81.367 c -0.73,-20.879 -5.04,-40.332 -12.96,-56.894 -6.49,-14.395 -16.57,-28.79 -30.97,-39.59 -14.4,-10.801 -33.85,-18.008 -59.77,-18.008 -25.91,0 -46.08,7.207 -60.48,18.008 -14.4,10.8 -23.76,25.195 -30.25,39.59 -7.92,16.562 -12.23,36.015 -12.96,56.894 v 128.106 183.671 c 0.73,20.879 5.04,40.332 12.96,56.895 6.49,14.394 15.85,28.789 30.25,39.59 14.4,10.801 34.57,18.008 60.48,18.008 25.92,0 45.37,-7.207 59.77,-18.008 14.4,-10.801 24.48,-25.196 30.97,-39.59 7.92,-16.563 12.23,-36.016 12.96,-56.895 z M 913.27,247.852 H 835.496 V 777.09 H 913.27 Z M 688.645,302.578 C 667.766,262.246 628.879,247.852 556.875,247.852 H 495.664 V 777.09 h 61.211 c 72.004,0 110.891,-14.395 131.77,-54.727 20.164,-40.312 23.043,-106.562 23.043,-210.254 0,-103.691 -2.879,-169.218 -23.043,-209.531 z M 0,1025 V 0 H 4072.97 V 1025 H 0" /><path
         id="path24"
         style="fill:#000000;fill-opacity:1;fill-rule:nonzero;stroke:none"
         d="m 3480.16,692.129 c -12.96,8.633 -28.09,7.91 -34.56,7.91 V 558.906 c 6.47,0 21.6,-0.703 34.56,7.93 12.96,8.633 23.03,25.918 23.03,62.637 0,36.738 -10.07,54.004 -23.03,62.656" /></g></g></svg>
