<svg xmlns="http://www.w3.org/2000/svg" width="175" height="35"><path style="marker:none" d="M15.342 0C6.868 0 0 6.868 0 15.342c0 7.122 4.85 13.11 11.43 14.84L15.198 35l3.693-4.728c6.763-1.601 11.796-7.678 11.796-14.93C30.687 6.868 23.817 0 15.342 0z" color="#000" overflow="visible" fill="#20bbdf"/><path style="marker:none" d="M15.342 5.8C10.08 5.8 5.8 10.08 5.8 15.342c0 5.263 4.28 9.545 9.542 9.545 5.263 0 9.543-4.282 9.543-9.545S20.605 5.8 15.342 5.8zm0 1.31a8.223 8.223 0 0 1 8.233 8.232 8.225 8.225 0 0 1-8.233 8.236 8.225 8.225 0 0 1-8.233-8.236 8.2 8.2 0 0 1 1.986-5.369l2.935 2.936.606.608.311.311 1.44 1.438c.018.017.034.034.052.049h.003a.706.706 0 0 0 .055.04h.002c.02.013.038.026.058.036a.665.665 0 0 0 .392.08.692.692 0 0 0 .478-.26.702.702 0 0 0 .155-.374.72.72 0 0 0 0-.133V14.7a.675.675 0 0 0-.024-.131c-.006-.02-.016-.042-.025-.063v-.003a.706.706 0 0 0-.155-.232l-1.438-1.437-.31-.311-.609-.609-2.924-2.924a8.208 8.208 0 0 1 5.245-1.882zm-.16 2.904a.619.619 0 0 0-.44.183l-1.413 1.41.608.609 1.853-1.852-.167-.167a.623.623 0 0 0-.442-.183zm.919.66l-1.853 1.853 1.438 1.438a1.14 1.14 0 0 1 0 1.609 1.14 1.14 0 0 1-1.61 0l-1.437-1.438-1.83 1.83 4.239 4.24s3.086.324 4.329-.92c1.243-1.242.963-4.372.963-4.372zm-2.521 2.464a.319.319 0 0 1 .226.546.32.32 0 0 1-.453-.453.319.319 0 0 1 .227-.093zm-1.86.08l-1.39 1.388a.625.625 0 0 0 0 .883l.167.167 1.83-1.83zm3.117 1.175c.082 0 .162.033.224.095a.317.317 0 0 1 0 .45.317.317 0 0 1-.45 0 .322.322 0 1 1 .226-.546z" color="#000" overflow="visible" fill="#fff"/><g style="line-height:125%"><path d="M34.356 12.962v2.822h1.325v9.278h-1.325v2.844h7.953v-2.844h-2.18v-2.715h4.061v-2.843h-4.062v-3.72h3.228v1.903h3.784v-4.725H34.356m14.252 1.133c0 1.026.963 2.159 2.31 2.159 1.518 0 2.351-.983 2.351-2.159 0-.984-.876-2.18-2.351-2.18-1.497 0-2.31 1.196-2.31 2.18m5.388 13.81v-2.8H52.97v-7.889h-4.96v2.78h.898v5.109h-.898v2.8h5.986m8.553-10.689v2.673h1.433l-1.604 1.624-1.496-1.624h1.004v-2.673H54.96v2.673h.962l2.65 2.907-2.18 2.459H54.96v2.65h5.473v-2.65h-1.39l1.54-1.732 1.624 1.732h-1.005v2.65h6.82v-2.65h-1.004l-2.694-3.079 2.266-2.287H68v-2.673h-5.45m7.513 3.378c.812-.449 1.924-.983 3.185-.983 1.155 0 2.031.235 2.031 1.197v.748c-.107-.128-.855-.748-2.116-.748-2.416 0-4.447 1.518-4.447 3.934 0 2.48 2.18 3.57 4.211 3.57.77 0 2.096-.278 2.887-1.368l.513.962h4.575v-2.737h-1.283V21c0-3.442-3.228-4.404-5.794-4.404-1.966 0-3.805 1.005-4.66 1.518l.898 2.48m5.216 4.233c-.192.32-.727.705-1.368.705-.641 0-1.133-.406-1.133-1.004 0-.663.385-1.133 1.24-1.133.898 0 1.197.513 1.261.62v.812m21.392-8.103v8.403h-1.197v2.779h6.756v-2.78h-1.176V15.72h1.176v-2.758h-8.146l-2.052 7.996-2.16-7.996H81.77v2.758h1.133v9.428h-1.155v2.758h5.794v-2.758h-1.218v-8.423h.085a14.57 14.57 0 0 0 .45 2.65l2.394 8.53h4.468l2.245-8.315c.15-.493.449-1.903.62-2.865h.085m7.222-2.63c0 1.026.962 2.159 2.31 2.159 1.517 0 2.35-.983 2.35-2.159 0-.984-.876-2.18-2.35-2.18-1.498 0-2.31 1.196-2.31 2.18m5.388 13.81v-2.8h-1.027v-7.889h-4.96v2.78h.898v5.109h-.898v2.8h5.986m7.656 0v-2.8h-1.54v-3.036c0-.919.257-1.988 1.348-1.988 1.261 0 1.196 1.261 1.196 1.988v5.837h5.388v-2.801h-1.004v-3.57c0-2.245-.556-4.703-3.87-4.703-1.347 0-2.33.705-3.057 1.71l-.492-1.326h-4.554v2.78h.898v5.109h-.898v2.8h6.585m17.84 0h4.276v-5.344h.856v-2.288h-7.098v2.288h1.304v.898c-.321.556-.834 1.048-2.053 1.048-1.86 0-2.928-1.754-2.928-3.934 0-2.138 1.197-4.02 2.928-4.02 1.262 0 2.373.984 2.438 2.716h3.826v-6.307h-3.185l-.449 1.54c-.342-.343-1.069-1.797-4.169-1.797-3.335 0-6.563 3.207-6.563 7.868 0 4.618 2.971 7.525 6.713 7.525 1.646 0 2.972-.748 3.442-1.54l.663 1.348m7.106-7.312c.812-.449 1.924-.983 3.185-.983 1.155 0 2.031.235 2.031 1.197v.748c-.107-.128-.855-.748-2.116-.748-2.416 0-4.447 1.518-4.447 3.934 0 2.48 2.18 3.57 4.212 3.57.77 0 2.095-.278 2.886-1.368l.513.962h4.575v-2.737h-1.283V21c0-3.442-3.228-4.404-5.794-4.404-1.966 0-3.805 1.005-4.66 1.518l.898 2.48m5.216 4.233c-.192.32-.727.705-1.368.705-.641 0-1.133-.406-1.133-1.004 0-.663.385-1.133 1.24-1.133.898 0 1.197.513 1.261.62v.812m6.256-7.61v2.778h1.154v3.806c.064 2.736.171 4.49 3.378 4.49.492 0 1.946-.15 2.587-.407v-2.736c-.406.17-1.069.363-1.347.363-.834 0-.684-.984-.684-1.71v-3.805h2.03v-2.78h-2.03v-3.228l-3.934 1.262v1.966h-1.154m9.113 3.378c.813-.449 1.924-.983 3.186-.983 1.154 0 2.03.235 2.03 1.197v.748c-.106-.128-.855-.748-2.116-.748-2.416 0-4.447 1.518-4.447 3.934 0 2.48 2.181 3.57 4.212 3.57.77 0 2.095-.278 2.886-1.368l.513.962h4.575v-2.737h-1.282V21c0-3.442-3.229-4.404-5.794-4.404-1.967 0-3.806 1.005-4.66 1.518l.897 2.48m5.217 4.233c-.193.32-.727.705-1.369.705-.641 0-1.133-.406-1.133-1.004 0-.663.385-1.133 1.24-1.133.898 0 1.197.513 1.262.62v.812" style="line-height:125%;-inkscape-font-specification:ChunkFive;text-align:start" font-family="ChunkFive" font-size="75.555" letter-spacing="0" word-spacing="0"/></g></svg>