<svg xmlns="http://www.w3.org/2000/svg" width="175" height="35"><path style="marker:none" d="M15.342 0C6.868 0 0 6.868 0 15.342c0 7.122 4.85 13.11 11.43 14.84L15.198 35l3.693-4.728c6.763-1.601 11.796-7.678 11.796-14.93C30.687 6.868 23.817 0 15.342 0z" color="#000000" overflow="visible" fill="#20bbdf"/><path style="marker:none" d="M15.342 5.8C10.08 5.8 5.8 10.08 5.8 15.342c0 5.263 4.28 9.545 9.542 9.545 5.263 0 9.543-4.282 9.543-9.545S20.605 5.8 15.342 5.8zm0 1.31a8.223 8.223 0 0 1 8.233 8.232 8.225 8.225 0 0 1-8.233 8.236 8.225 8.225 0 0 1-8.233-8.236 8.2 8.2 0 0 1 1.986-5.369l2.935 2.936.606.608.311.311 1.44 1.438c.018.017.034.034.052.049h.003a.706.706 0 0 0 .055.04h.002c.02.013.038.026.058.036a.665.665 0 0 0 .392.08.692.692 0 0 0 .478-.26.702.702 0 0 0 .155-.374.72.72 0 0 0 0-.133V14.7a.675.675 0 0 0-.024-.131c-.006-.02-.016-.042-.025-.063v-.003a.706.706 0 0 0-.155-.232l-1.438-1.437-.31-.311-.609-.609-2.924-2.924a8.208 8.208 0 0 1 5.245-1.882zm-.16 2.904c-.16 0-.318.061-.44.183l-1.413 1.41.608.609 1.853-1.852-.167-.167a.623.623 0 0 0-.442-.183zm.919.66l-1.853 1.853 1.438 1.438a1.14 1.14 0 0 1 0 1.609 1.14 1.14 0 0 1-1.61 0l-1.437-1.438-1.83 1.83 4.239 4.24s3.086.324 4.329-.92c1.243-1.242.963-4.372.963-4.372zm-2.521 2.464a.319.319 0 0 1 .226.546.32.32 0 0 1-.453-.453.319.319 0 0 1 .227-.093zm-1.86.08l-1.39 1.388a.625.625 0 0 0 0 .883l.167.167 1.83-1.83zm3.117 1.175c.082 0 .162.033.224.095a.317.317 0 0 1 0 .45.317.317 0 0 1-.45 0 .322.322 0 1 1 .226-.546z" color="#000000" overflow="visible" fill="#ffffff"/><g transform="translate(-7.64 -12.525) scale(.28296)" style="line-height:125%" font-size="75.55453491px" font-family="Sans" letter-spacing="0px" word-spacing="0px" fill="#000000"><path d="M148.416 90.072v9.973h4.685v32.791h-4.685v10.049h28.107v-10.049h-7.707v-9.595h14.355v-10.05h-14.355v-13.146h11.409v6.725h13.373V90.072h-45.182m50.37 4.005c0 3.626 3.4 7.63 8.16 7.63 5.365 0 8.311-3.475 8.311-7.63 0-3.476-3.098-7.707-8.31-7.707-5.29 0-8.16 4.231-8.16 7.707m19.04 48.808v-9.898h-3.628v-27.88h-17.528v9.823h3.173v18.057h-3.173v9.898h21.155m30.228-37.777v9.444h5.062l-5.667 5.742-5.288-5.742h3.55v-9.444h-24.48v9.444h3.4l9.37 10.275-7.707 8.69h-5.062v9.368h19.342v-9.369h-4.911l5.44-6.12 5.742 6.12h-3.551v9.369h24.102v-9.369h-3.551l-9.52-10.88 8.009-8.084h4.986v-9.444h-19.266m26.552 11.937c2.872-1.586 6.8-3.475 11.258-3.475 4.08 0 7.178.83 7.178 4.23v2.645c-.378-.453-3.022-2.644-7.48-2.644-8.538 0-15.715 5.364-15.715 13.902 0 8.764 7.706 12.617 14.884 12.617 2.72 0 7.404-.982 10.2-4.835l1.813 3.4h16.169v-9.671h-4.534V118.48c0-12.165-11.408-15.565-20.475-15.565-6.95 0-13.449 3.552-16.47 5.365l3.172 8.764m18.436 14.96c-.68 1.133-2.57 2.493-4.836 2.493-2.266 0-4.004-1.435-4.004-3.55 0-2.343 1.36-4.005 4.382-4.005 3.173 0 4.231 1.813 4.458 2.19v2.872m75.6-28.635V133.063h-4.23v9.822h23.875v-9.822h-4.156V99.819h4.156v-9.747H359.5l-7.253 28.258-7.631-28.258h-28.635v9.747h4.004v33.32h-4.08v9.746h20.476v-9.747h-4.307V103.37h.302c.227 3.778 1.21 8.084 1.587 9.369l8.462 30.146h15.79l7.934-29.39c.529-1.739 1.587-6.725 2.191-10.125h.302m25.524-9.293c0 3.626 3.4 7.63 8.16 7.63 5.364 0 8.31-3.475 8.31-7.63 0-3.476-3.097-7.707-8.31-7.707-5.29 0-8.16 4.231-8.16 7.707m19.04 48.808v-9.898h-3.627v-27.88H392.05v9.823h3.173v18.057h-3.173v9.898h21.155m27.055 0v-9.898h-5.44v-10.729c0-3.248.907-7.026 4.76-7.026 4.458 0 4.23 4.458 4.23 7.026v20.627h19.04v-9.898h-3.55V120.37c0-7.934-1.965-16.622-13.676-16.622-4.76 0-8.235 2.493-10.804 6.044l-1.738-4.684H416.99v9.822h3.173v18.057h-3.173v9.898h23.27m63.05 0h15.11v-18.889h3.023v-8.084h-25.084v8.084h4.609v3.173c-1.134 1.965-2.947 3.703-7.254 3.703-6.573 0-10.35-6.196-10.35-13.902 0-7.556 4.23-14.205 10.35-14.205 4.458 0 8.387 3.476 8.614 9.596h13.524V90.072h-11.258l-1.586 5.44c-1.21-1.209-3.778-6.346-14.733-6.346-11.787 0-23.196 11.333-23.196 27.804 0 16.32 10.502 26.595 23.724 26.595 5.818 0 10.503-2.645 12.165-5.44l2.342 4.76m25.113-25.84c2.872-1.586 6.8-3.475 11.258-3.475 4.08 0 7.178.83 7.178 4.23v2.645c-.378-.453-3.022-2.644-7.48-2.644-8.538 0-15.715 5.364-15.715 13.902 0 8.764 7.706 12.617 14.884 12.617 2.72 0 7.404-.982 10.2-4.835l1.813 3.4h16.169v-9.671h-4.534V118.48c0-12.165-11.408-15.565-20.475-15.565-6.95 0-13.449 3.552-16.47 5.365l3.172 8.764m18.436 14.96c-.68 1.133-2.57 2.493-4.836 2.493-2.266 0-4.004-1.435-4.004-3.55 0-2.343 1.36-4.005 4.382-4.005 3.173 0 4.231 1.813 4.458 2.19v2.872m22.108-26.897v9.822h4.08v13.448c.226 9.671.604 15.867 11.937 15.867 1.738 0 6.876-.53 9.142-1.436v-9.67c-1.435.604-3.777 1.284-4.76 1.284-2.946 0-2.417-3.476-2.417-6.045V114.93h7.177v-9.822h-7.177v-11.41l-13.902 4.459v6.95h-4.08m32.207 11.938c2.871-1.586 6.8-3.475 11.258-3.475 4.08 0 7.178.83 7.178 4.23v2.645c-.378-.453-3.023-2.644-7.48-2.644-8.538 0-15.716 5.364-15.716 13.902 0 8.764 7.707 12.617 14.885 12.617 2.72 0 7.404-.982 10.2-4.835l1.813 3.4h16.168v-9.671h-4.533V118.48c0-12.165-11.409-15.565-20.475-15.565-6.951 0-13.449 3.552-16.471 5.365l3.173 8.764m18.436 14.96c-.68 1.133-2.57 2.493-4.836 2.493-2.267 0-4.004-1.435-4.004-3.55 0-2.343 1.36-4.005 4.382-4.005 3.173 0 4.23 1.813 4.458 2.19v2.872" style="line-height:125%;-inkscape-font-specification:ChunkFive;text-align:start" font-family="ChunkFive"/></g></svg>