<?xml version="1.0" encoding="UTF-8"?>
<!DOCTYPE svg PUBLIC "-//W3C//DTD SVG 1.1//EN" "http://www.w3.org/Graphics/SVG/1.1/DTD/svg11.dtd">
<svg version="1.1" xmlns="http://www.w3.org/2000/svg" xmlns:xlink="http://www.w3.org/1999/xlink" x="0" y="0" width="263.499" height="219.582" viewBox="0, 0, 26.35, 21.958">
  <g id="Layer_1">
    <path d="M8.783,-0 L8.783,4.392 L13.175,4.392 L13.175,8.783 L8.783,8.783 L8.783,13.175 L13.175,13.175 L17.567,13.175 L17.567,8.783 L17.567,4.392 L21.958,4.392 L21.958,-0 L17.567,-0 L13.175,-0 z" fill="#41BEBE" id="path5428"/>
    <path d="M4.392,-0 L4.392,4.392 L0,4.392 L0,8.783 L4.392,8.783 L4.392,13.175 L8.783,13.175 L8.783,8.783 L13.175,8.783 L13.175,4.392 L8.783,4.392 L8.783,-0 z" fill="#FFFFFF" id="path5432"/>
    <path d="M17.567,8.783 L17.567,13.175 L13.175,13.175 L13.175,17.567 L17.567,17.567 L17.567,21.958 L21.958,21.958 L21.958,17.567 L26.35,17.567 L26.35,13.175 L21.958,13.175 L21.958,8.783 z" fill="#FFFFFF" id="path5436"/>
  </g>
</svg>
