<svg xmlns="http://www.w3.org/2000/svg" viewBox="0 0 300 26.2"><style>.st0{display:none}.st1{fill:#fff}</style><g id="Layer_2"><path class="st1" d="M6.7 19.5H16c1 0 1.6.6 1.6 1.6v3.5c0 1-.6 1.6-1.6 1.6H1.6c-1 0-1.6-.6-1.6-1.6V1.7C0 .7.6.1 1.6.1h3.5c1 0 1.6.6 1.6 1.6v17.8zM41.1.1c1 0 1.6.6 1.6 1.6v22.8c0 1-.6 1.6-1.6 1.6h-3.5c-1 0-1.6-.6-1.6-1.6V1.7c0-1 .6-1.6 1.6-1.6h3.5zm22.1 26c-1 0-1.6-.6-1.6-1.6V1.7c0-1 .6-1.6 1.6-1.6H73c2.2 0 4.1.7 5.6 2 .6.6 1.3 1.1 1.7 2 .5.9.8 2.1.8 3.7v.1c0 1.1-.3 2.1-.8 2.9-.5.8-1.1 1.5-1.6 1.6.5.1 1.4.6 2.2 1.5.8 1 1.5 2.3 1.7 4 0 1-.1 2.2-.6 3.4-.5 1.3-1.3 2.4-2.5 3.3-1.2.9-2.7 1.5-4.7 1.5H63.2zM67.9 6v4.3h4.7c.6 0 1.1-.2 1.6-.6.4-.3.8-.8.8-1.5 0-1.2-.6-2.3-2-2.3l-5.1.1zm0 9.8v4.3h5.8c1.3 0 2.3-.7 2.3-2.2 0-1.5-1-2.2-2.5-2.2h-5.6zm53.2-7.2c0 2.6-1 5.2-2.9 6.7-.3.3-.6.4-.8.5-.3.2-.4.2-.4.2l4.5 8.2c.7 1.1 0 1.8-1.3 1.8h-3.8c-1 0-1.4-.4-1.8-1.3l-4.1-8h-3.2v7.7c0 1-.6 1.6-1.6 1.6h-3.5c-1 0-1.6-.6-1.6-1.6V1.7c0-1 .6-1.6 1.6-1.6h10.7c2.2 0 4.1.7 5.6 2 .6.6 1.3 1.4 1.7 2.4.5 1.1.9 2.5.9 4.1zm-6.4 0c0-1.3-.7-2.2-2.1-2.2h-5.2v4.3h5c1.2.2 2.3-.7 2.3-2.1zm43 16c0 1-.6 1.6-1.6 1.6H141c-1 0-1.6-.6-1.6-1.6V1.7c0-1 .6-1.6 1.6-1.6h15.1c1 0 1.6.6 1.6 1.6v3.5c0 1-.6 1.6-1.6 1.6h-10v3.3h7.4c1 0 1.6.6 1.6 1.6v3c0 1-.6 1.6-1.6 1.6h-7.4v3.3h10c1 0 1.6.6 1.6 1.6v3.4zm26.2 1.5c-1 0-1.6-.6-1.6-1.6V6.7h-5.4c-1 0-1.6-.6-1.6-1.6V1.6c0-1 .6-1.6 1.6-1.6h17.4c1 0 1.6.6 1.6 1.6v3.5c0 1-.6 1.6-1.6 1.6h-5.4v17.8c0 1-.6 1.6-1.6 1.6h-3.4zm39.7-26c.9 0 1.5.4 1.8 1.3l8 22.9c.4 1.1-.1 1.8-1.3 1.8h-3.8c-.9 0-1.5-.4-1.8-1.3l-1.1-3.2h-7.7l-1.1 3.2c-.3.9-.9 1.3-1.8 1.3h-3.7c-1.3 0-1.7-.7-1.3-1.8l8-22.9c.3-.8.9-1.3 1.8-1.3h4zm.4 15.7l-2.4-7.2-2.2 7.2h4.6zm39-8.7l4-6c.5-.7 1.1-1 2-1h4.5c1.3 0 1.7.8 1 2l-7.5 11 7.6 11.2c.8 1.1.3 2-1 2h-4.5c-.8 0-1.5-.3-2-1l-4.1-6.1-4.2 6.1c-.5.7-1.1 1-2 1h-4.5c-1.3 0-1.7-.8-1-2l7.6-11.2-7.5-11c-.8-1.1-.3-2 1-2h4.5c.8 0 1.5.3 2 1l4.1 6zm35.4-7c1 0 1.6.6 1.6 1.6v22.8c0 1-.6 1.6-1.6 1.6h-3.5c-1 0-1.6-.6-1.6-1.6V1.7c0-1 .6-1.6 1.6-1.6h3.5z"/></g></svg>