<?xml version="1.0" encoding="UTF-8" standalone="no"?>
<!-- Created with Inkscape (http://www.inkscape.org/) -->

<svg
   xmlns:dc="http://purl.org/dc/elements/1.1/"
   xmlns:cc="http://creativecommons.org/ns#"
   xmlns:rdf="http://www.w3.org/1999/02/22-rdf-syntax-ns#"
   xmlns:svg="http://www.w3.org/2000/svg"
   xmlns="http://www.w3.org/2000/svg"
   xmlns:xlink="http://www.w3.org/1999/xlink"
   xmlns:sodipodi="http://sodipodi.sourceforge.net/DTD/sodipodi-0.dtd"
   xmlns:inkscape="http://www.inkscape.org/namespaces/inkscape"
   version="1.1"
   id="svg815"
   width="520.02704"
   height="603.8822"
   viewBox="0 0 520.02701 603.8822"
   sodipodi:docname="logga.svg"
   inkscape:version="0.92.4 5da689c313, 2019-01-14">
  <metadata
     id="metadata821">
    <rdf:RDF>
      <cc:Work
         rdf:about="">
        <dc:format>image/svg+xml</dc:format>
        <dc:type
           rdf:resource="http://purl.org/dc/dcmitype/StillImage" />
        <dc:title></dc:title>
      </cc:Work>
    </rdf:RDF>
  </metadata>
  <defs
     id="defs819">
    <linearGradient
       inkscape:collect="always"
       id="linearGradient1193">
      <stop
         style="stop-color:#000007;stop-opacity:0.619"
         offset="0"
         id="stop1189" />
      <stop
         style="stop-color:#667c87;stop-opacity:0.0880829"
         offset="1"
         id="stop1191" />
    </linearGradient>
    <linearGradient
       inkscape:collect="always"
       id="linearGradient1181">
      <stop
         style="stop-color:#ffffff;stop-opacity:1"
         offset="0"
         id="stop1177" />
      <stop
         style="stop-color:#eac5d5;stop-opacity:0;"
         offset="1"
         id="stop1179" />
    </linearGradient>
    <linearGradient
       id="linearGradient1164"
       inkscape:collect="always">
      <stop
         id="stop1160"
         offset="0"
         style="stop-color:#000007;stop-opacity:1" />
      <stop
         id="stop1162"
         offset="1"
         style="stop-color:#667c87;stop-opacity:0.0880829" />
    </linearGradient>
    <linearGradient
       inkscape:collect="always"
       id="linearGradient1110">
      <stop
         style="stop-color:#d3f3f4;stop-opacity:1;"
         offset="0"
         id="stop1106" />
      <stop
         style="stop-color:#d3f3f4;stop-opacity:0;"
         offset="1"
         id="stop1108" />
    </linearGradient>
    <linearGradient
       inkscape:collect="always"
       id="linearGradient1086">
      <stop
         style="stop-color:#ffffdb;stop-opacity:1"
         offset="0"
         id="stop1082" />
      <stop
         style="stop-color:#d5ad67;stop-opacity:1"
         offset="1"
         id="stop1084" />
    </linearGradient>
    <linearGradient
       id="linearGradient1033"
       inkscape:collect="always">
      <stop
         id="stop1029"
         offset="0"
         style="stop-color:#d3f3f4;stop-opacity:1" />
      <stop
         id="stop1031"
         offset="1"
         style="stop-color:#667c87;stop-opacity:0" />
    </linearGradient>
    <linearGradient
       inkscape:collect="always"
       id="linearGradient1015">
      <stop
         style="stop-color:#667c87;stop-opacity:0.00518135"
         offset="0"
         id="stop1011" />
      <stop
         id="stop1019"
         offset="0.79203266"
         style="stop-color:#667c87;stop-opacity:0" />
      <stop
         style="stop-color:#becedb;stop-opacity:0.5699482"
         offset="1"
         id="stop1013" />
    </linearGradient>
    <linearGradient
       inkscape:collect="always"
       id="linearGradient970">
      <stop
         style="stop-color:#783619;stop-opacity:1"
         offset="0"
         id="stop966" />
      <stop
         style="stop-color:#b99763;stop-opacity:0;"
         offset="1"
         id="stop968" />
    </linearGradient>
    <linearGradient
       inkscape:collect="always"
       id="linearGradient928">
      <stop
         style="stop-color:#000007;stop-opacity:1"
         offset="0"
         id="stop924" />
      <stop
         style="stop-color:#b87f53;stop-opacity:0"
         offset="1"
         id="stop926" />
    </linearGradient>
    <linearGradient
       id="linearGradient902"
       inkscape:collect="always">
      <stop
         id="stop898"
         offset="0"
         style="stop-color:#000007;stop-opacity:1" />
      <stop
         id="stop900"
         offset="1"
         style="stop-color:#85685e;stop-opacity:0" />
    </linearGradient>
    <linearGradient
       inkscape:collect="always"
       id="linearGradient884">
      <stop
         style="stop-color:#000007;stop-opacity:1"
         offset="0"
         id="stop880" />
      <stop
         style="stop-color:#667c87;stop-opacity:0"
         offset="1"
         id="stop882" />
    </linearGradient>
    <linearGradient
       inkscape:collect="always"
       xlink:href="#linearGradient884"
       id="linearGradient886"
       x1="198.30856"
       y1="270.42017"
       x2="175.65413"
       y2="296.14142"
       gradientUnits="userSpaceOnUse" />
    <linearGradient
       inkscape:collect="always"
       xlink:href="#linearGradient902"
       id="linearGradient896"
       x1="-70.759247"
       y1="310.25354"
       x2="-7.1984377"
       y2="303.755"
       gradientUnits="userSpaceOnUse" />
    <radialGradient
       inkscape:collect="always"
       xlink:href="#linearGradient902"
       id="radialGradient912"
       cx="211.41229"
       cy="270.71725"
       fx="211.41229"
       fy="270.71725"
       r="53.516533"
       gradientTransform="matrix(-0.43282885,0.90147612,-0.62990191,-0.30243698,443.39139,158.18311)"
       gradientUnits="userSpaceOnUse" />
    <radialGradient
       inkscape:collect="always"
       xlink:href="#linearGradient928"
       id="radialGradient922"
       cx="150.03755"
       cy="359.849"
       fx="150.03755"
       fy="359.849"
       r="16.198168"
       gradientTransform="matrix(2.8100365,1.4930792,-0.83224655,1.5663223,38.856157,-432.53938)"
       gradientUnits="userSpaceOnUse" />
    <radialGradient
       inkscape:collect="always"
       xlink:href="#linearGradient884"
       id="radialGradient955"
       cx="159.05444"
       cy="300.10474"
       fx="159.05444"
       fy="300.10474"
       r="85.037407"
       gradientTransform="matrix(0.74991808,0.6615307,-1.0155827,1.1512751,368.99314,-127.96095)"
       gradientUnits="userSpaceOnUse" />
    <radialGradient
       inkscape:collect="always"
       xlink:href="#linearGradient884"
       id="radialGradient959"
       gradientUnits="userSpaceOnUse"
       gradientTransform="matrix(0.39452653,0.29057408,-0.25083906,0.34057632,186.97087,188.51812)"
       cx="84.564102"
       cy="104.45442"
       fx="84.564102"
       fy="104.45442"
       r="85.037407" />
    <linearGradient
       inkscape:collect="always"
       xlink:href="#linearGradient970"
       id="linearGradient972"
       x1="164.55397"
       y1="406.78033"
       x2="190.8493"
       y2="381.17316"
       gradientUnits="userSpaceOnUse" />
    <linearGradient
       inkscape:collect="always"
       xlink:href="#linearGradient928"
       id="linearGradient993"
       x1="177.58795"
       y1="324.50284"
       x2="146.36238"
       y2="301.7981"
       gradientUnits="userSpaceOnUse" />
    <radialGradient
       inkscape:collect="always"
       xlink:href="#linearGradient1015"
       id="radialGradient1017"
       cx="285.90363"
       cy="134.56683"
       fx="285.90363"
       fy="134.56683"
       r="31.787647"
       gradientTransform="matrix(2.9824815,-1.5464147,0.41059633,1.2316808,-622.05127,398.62373)"
       gradientUnits="userSpaceOnUse" />
    <linearGradient
       inkscape:collect="always"
       xlink:href="#linearGradient884"
       id="linearGradient1023"
       x1="291.23538"
       y1="532.44299"
       x2="260.01547"
       y2="320.46008"
       gradientUnits="userSpaceOnUse" />
    <radialGradient
       inkscape:collect="always"
       xlink:href="#linearGradient1033"
       id="radialGradient1035"
       cx="238.21666"
       cy="164.83226"
       fx="238.21666"
       fy="164.83226"
       r="85.037407"
       gradientTransform="matrix(-0.23874146,1.3112544,-1.3959131,-0.25415534,525.18036,-178.91553)"
       gradientUnits="userSpaceOnUse" />
    <radialGradient
       inkscape:collect="always"
       xlink:href="#linearGradient1086"
       id="radialGradient1080"
       cx="-19.940084"
       cy="86.879898"
       fx="-19.940084"
       fy="86.879898"
       r="24.531254"
       gradientTransform="matrix(0.4879432,1.0032412,-0.59467543,0.2892304,46.576146,91.638518)"
       gradientUnits="userSpaceOnUse" />
    <radialGradient
       inkscape:collect="always"
       xlink:href="#linearGradient1086"
       id="radialGradient1088"
       gradientUnits="userSpaceOnUse"
       gradientTransform="matrix(-0.61719372,0.87568334,-0.54051763,-0.38096428,18.666555,153.22321)"
       cx="-20.559504"
       cy="95.803833"
       fx="-20.559504"
       fy="95.803833"
       r="24.531254" />
    <radialGradient
       inkscape:collect="always"
       xlink:href="#linearGradient1110"
       id="radialGradient1112"
       cx="306.08395"
       cy="280.37054"
       fx="306.08395"
       fy="280.37054"
       r="89.660439"
       gradientTransform="matrix(0.99999251,0.00387147,-0.00496699,1.2829637,1.3590627,-76.945328)"
       gradientUnits="userSpaceOnUse" />
    <linearGradient
       inkscape:collect="always"
       xlink:href="#linearGradient970"
       id="linearGradient1138"
       x1="254.37263"
       y1="402.08771"
       x2="260.75171"
       y2="453.30209"
       gradientUnits="userSpaceOnUse" />
    <linearGradient
       inkscape:collect="always"
       xlink:href="#linearGradient970"
       id="linearGradient1148"
       x1="315.55576"
       y1="396.08731"
       x2="374.96838"
       y2="369.8121"
       gradientUnits="userSpaceOnUse" />
    <radialGradient
       inkscape:collect="always"
       xlink:href="#linearGradient1164"
       id="radialGradient1158"
       cx="245.94028"
       cy="194.13377"
       fx="245.94028"
       fy="194.13377"
       r="24.159819"
       gradientTransform="matrix(0.40322505,-0.13130082,0.2519015,0.77358997,91.422133,115.24235)"
       gradientUnits="userSpaceOnUse" />
    <radialGradient
       inkscape:collect="always"
       xlink:href="#linearGradient1181"
       id="radialGradient1183"
       cx="137.67545"
       cy="172.74577"
       fx="137.67545"
       fy="172.74577"
       r="23.087124"
       gradientTransform="matrix(0.52479867,0.19027884,-0.21567256,0.59483578,102.68007,44.432405)"
       gradientUnits="userSpaceOnUse" />
    <radialGradient
       inkscape:collect="always"
       xlink:href="#linearGradient1193"
       id="radialGradient1187"
       gradientUnits="userSpaceOnUse"
       gradientTransform="matrix(0.7942516,-0.20298901,0.20145113,0.78823426,18.699259,154.39248)"
       cx="250.08815"
       cy="192.85951"
       fx="250.08815"
       fy="192.85951"
       r="24.159819" />
    <filter
       inkscape:collect="always"
       style="color-interpolation-filters:sRGB"
       id="filter1218"
       x="-0.021531118"
       width="1.0430622"
       y="-0.13663001"
       height="1.27326">
      <feGaussianBlur
         inkscape:collect="always"
         stdDeviation="1.9182461"
         id="feGaussianBlur1220" />
    </filter>
    <radialGradient
       inkscape:collect="always"
       xlink:href="#linearGradient928"
       id="radialGradient1088-0"
       gradientUnits="userSpaceOnUse"
       gradientTransform="matrix(0.43893396,-0.82739147,0.68956254,0.36581531,235.98783,210.21053)"
       cx="-38.559818"
       cy="61.572983"
       fx="-38.559818"
       fy="61.572983"
       r="24.531254" />
    <radialGradient
       inkscape:collect="always"
       xlink:href="#linearGradient1086"
       id="radialGradient1066"
       gradientUnits="userSpaceOnUse"
       gradientTransform="matrix(-0.61719372,0.87568334,-0.54051763,-0.38096428,18.666555,153.22321)"
       cx="-20.559504"
       cy="95.803833"
       fx="-20.559504"
       fy="95.803833"
       r="24.531254" />
    <radialGradient
       inkscape:collect="always"
       xlink:href="#linearGradient1086"
       id="radialGradient1068"
       gradientUnits="userSpaceOnUse"
       gradientTransform="matrix(-0.61719372,0.87568334,-0.54051763,-0.38096428,18.666555,153.22321)"
       cx="-20.559504"
       cy="95.803833"
       fx="-20.559504"
       fy="95.803833"
       r="24.531254" />
    <radialGradient
       inkscape:collect="always"
       xlink:href="#linearGradient1086"
       id="radialGradient1070"
       gradientUnits="userSpaceOnUse"
       gradientTransform="matrix(-0.61719372,0.87568334,-0.54051763,-0.38096428,18.666555,153.22321)"
       cx="-20.559504"
       cy="95.803833"
       fx="-20.559504"
       fy="95.803833"
       r="24.531254" />
    <radialGradient
       inkscape:collect="always"
       xlink:href="#linearGradient1086"
       id="radialGradient1072"
       gradientUnits="userSpaceOnUse"
       gradientTransform="matrix(-0.61719372,0.87568334,-0.54051763,-0.38096428,18.666555,153.22321)"
       cx="-20.559504"
       cy="95.803833"
       fx="-20.559504"
       fy="95.803833"
       r="24.531254" />
    <radialGradient
       inkscape:collect="always"
       xlink:href="#linearGradient1086"
       id="radialGradient1074"
       gradientUnits="userSpaceOnUse"
       gradientTransform="matrix(-0.61719372,0.87568334,-0.54051763,-0.38096428,18.666555,153.22321)"
       cx="-20.559504"
       cy="95.803833"
       fx="-20.559504"
       fy="95.803833"
       r="24.531254" />
    <radialGradient
       inkscape:collect="always"
       xlink:href="#linearGradient1086"
       id="radialGradient1076"
       gradientUnits="userSpaceOnUse"
       gradientTransform="matrix(-0.61719372,0.87568334,-0.54051763,-0.38096428,18.666555,153.22321)"
       cx="-20.559504"
       cy="95.803833"
       fx="-20.559504"
       fy="95.803833"
       r="24.531254" />
    <radialGradient
       inkscape:collect="always"
       xlink:href="#linearGradient1086"
       id="radialGradient1078"
       gradientUnits="userSpaceOnUse"
       gradientTransform="matrix(-0.61719372,0.87568334,-0.54051763,-0.38096428,18.666555,153.22321)"
       cx="-20.559504"
       cy="95.803833"
       fx="-20.559504"
       fy="95.803833"
       r="24.531254" />
  </defs>
  <sodipodi:namedview
     pagecolor="#8f9a9d"
     bordercolor="#666666"
     borderopacity="1"
     objecttolerance="10"
     gridtolerance="10"
     guidetolerance="10"
     inkscape:pageopacity="0"
     inkscape:pageshadow="2"
     inkscape:window-width="1920"
     inkscape:window-height="1038"
     id="namedview817"
     showgrid="false"
     inkscape:zoom="1.1227319"
     inkscape:cx="134.29327"
     inkscape:cy="282.57745"
     inkscape:window-x="0"
     inkscape:window-y="42"
     inkscape:window-maximized="0"
     inkscape:current-layer="svg815"
     inkscape:snap-global="true"
     inkscape:object-paths="true"
     showguides="true"
     inkscape:guide-bbox="true"
     units="px"
     inkscape:pagecheckerboard="false"
     fit-margin-top="0"
     fit-margin-left="0"
     fit-margin-right="0"
     fit-margin-bottom="0" />
  <g
     id="g1064"
     transform="matrix(1.7230318,0,0,1.7230318,-169.94156,-229.94397)">
    <g
       inkscape:export-ydpi="225"
       inkscape:export-xdpi="225"
       id="g1030">
      <path
         style="opacity:1;vector-effect:none;fill:#25222e;fill-opacity:0.30051814;stroke:none;stroke-width:0.59133977;stroke-linecap:round;stroke-linejoin:miter;stroke-miterlimit:4;stroke-dasharray:none;stroke-dashoffset:0;stroke-opacity:1;filter:url(#filter1218)"
         d="m 277.4306,445.63056 a 69.279007,11.494017 0 0 0 -69.2793,11.49414 69.279007,11.494017 0 0 0 0.0957,0.44336 51.959255,11.651469 0 0 0 -26.23242,10.10547 51.959255,11.651469 0 0 0 51.95898,11.65234 51.959255,11.651469 0 0 0 51.76953,-10.80469 69.279007,11.494017 0 0 0 54.36133,-6.52929 51.959255,3.9363077 0 0 0 3.77148,0.0137 51.959255,3.9363077 0 0 0 51.95899,-3.93555 51.959255,3.9363077 0 0 0 -51.53711,-3.93555 69.279007,11.494017 0 0 0 -66.86719,-8.5039 z"
         id="path1195"
         inkscape:connector-curvature="0" />
      <path
         style="opacity:0.76999996;vector-effect:none;fill:url(#radialGradient1112);fill-opacity:1;stroke:none;stroke-width:1.01772976;stroke-linecap:butt;stroke-linejoin:miter;stroke-miterlimit:4;stroke-dasharray:none;stroke-dashoffset:0;stroke-opacity:0.6745098"
         d="m 272.1255,133.67983 c -43.22403,0.0411 -78.59322,31.33392 -79.86914,70.66407 -17.28281,11.94109 -8.01811,28.98023 -5.26758,39.02929 1.24617,4.46543 3.3926,7.71597 6.04687,10.22461 2.50552,13.39724 5.05469,26.77544 5.05469,31.20313 0,5.08772 0.70897,22.91129 1.33203,38.09375 -8.25594,9.84066 -12.66235,21.31687 -12.68945,33.04883 1.2e-4,33.63456 35.24201,60.90064 78.71484,60.90039 43.47283,2.6e-4 78.71473,-27.26582 78.71485,-60.90039 -0.0422,-23.33587 -17.31584,-44.60118 -44.47461,-54.75196 -5.27297,-4.68805 -4.9467,-7.14295 -3.90039,-14.99023 1.25962,-9.44714 11.80962,-8.81894 22.67383,-17.95117 9.82925,-8.26228 14.29244,-14.06669 15.09375,-15.14844 11.98445,-13.08151 18.5515,-29.5738 18.55859,-46.60742 6e-4,-40.21442 -35.81167,-72.81483 -79.98828,-72.81446 z"
         id="path1092"
         inkscape:connector-curvature="0"
         sodipodi:nodetypes="ccccscccccssccc" />
      <ellipse
         style="opacity:1;vector-effect:none;fill:#667c87;fill-opacity:1;stroke:none;stroke-width:0.69142812;stroke-linecap:round;stroke-linejoin:miter;stroke-miterlimit:4;stroke-dasharray:none;stroke-dashoffset:0;stroke-opacity:1"
         id="path999"
         cx="293.41534"
         cy="99.022339"
         rx="31.787647"
         ry="20.765062"
         transform="matrix(0.87778872,0.47904798,-0.50239999,0.86463533,0,0)" />
      <path
         style="fill:#d1c1aa;fill-opacity:1;stroke:none;stroke-width:1px;stroke-linecap:butt;stroke-linejoin:miter;stroke-opacity:1"
         d="m 158.1143,238.52994 c -0.78726,-1.73198 -5.35302,-5.19582 -5.38203,-12.54051 -0.029,-7.34469 0.88716,-16.42642 4.41494,-10.08322 4.05556,7.29219 1.57588,13.39599 14.42559,13.58837 0.15746,1.41707 -13.4585,9.03536 -13.4585,9.03536 z"
         id="path848"
         inkscape:connector-curvature="0"
         sodipodi:nodetypes="czscc" />
      <path
         style="fill:#d5ad67;fill-opacity:1;stroke:none;stroke-width:1px;stroke-linecap:butt;stroke-linejoin:miter;stroke-opacity:1"
         d="m 330.25204,380.46276 c 0,0 14.49603,-1.75472 24.85271,0.768 10.35667,2.52271 18.2632,13.14523 22.82106,3.19455 2.3785,-6.07725 -9.27908,-8.26447 -9.27908,-8.26447 0,0 0.0861,-1.03638 5.22668,-2.01446 5.14055,-0.97807 8.32597,-4.3169 3.88445,-9.06904 -4.44153,-4.75215 -23.08781,2.33994 -31.04125,6.01945 -7.95344,3.6795 -16.46457,9.36597 -16.46457,9.36597 z"
         id="path856"
         inkscape:connector-curvature="0"
         sodipodi:nodetypes="czccszzc" />
      <path
         sodipodi:nodetypes="czccszzc"
         inkscape:connector-curvature="0"
         id="path1140"
         d="m 330.25204,380.46276 c 0,0 14.49603,-1.75472 24.85271,0.768 10.35667,2.52271 18.2632,13.14523 22.82106,3.19455 2.3785,-6.07725 -9.27908,-8.26447 -9.27908,-8.26447 0,0 0.0861,-1.03638 5.22668,-2.01446 5.14055,-0.97807 8.32597,-4.3169 3.88445,-9.06904 -4.44153,-4.75215 -23.08781,2.33994 -31.04125,6.01945 -7.95344,3.6795 -16.46457,9.36597 -16.46457,9.36597 z"
         style="fill:url(#linearGradient1148);fill-opacity:1;stroke:none;stroke-width:1px;stroke-linecap:butt;stroke-linejoin:miter;stroke-opacity:1" />
      <path
         style="fill:#d5ad67;fill-opacity:1;stroke:none;stroke-width:1px;stroke-linecap:butt;stroke-linejoin:miter;stroke-opacity:1"
         d="m 260.70616,412.04521 c 0,0 2.81849,14.32725 1.06606,24.8417 -1.75244,10.51445 -11.76324,19.18249 -1.50365,22.99446 6.23604,1.92406 7.55799,-9.86304 7.55799,-9.86304 0,0 1.03991,0.01 2.39425,5.06398 1.35434,5.05446 4.91888,7.9851 9.33071,3.20537 4.41182,-4.77974 -4.03545,-22.85252 -8.29122,-30.51309 -4.25576,-7.66058 -10.55414,-15.72938 -10.55414,-15.72938 z"
         id="path856-5"
         inkscape:connector-curvature="0"
         sodipodi:nodetypes="czccszzc" />
      <path
         style="fill:#a98763;fill-opacity:1;stroke:none;stroke-width:1px;stroke-linecap:butt;stroke-linejoin:miter;stroke-opacity:1"
         d="m 150.03316,345.13059 c -0.63027,0.47174 -1.87636,-1.80693 -8.76407,5.41341 -6.88772,7.22033 -16.38757,18.80218 -16.32182,33.65617 0.0538,12.14924 15.68365,17.60857 23.66337,10.47512 7.97971,-7.13346 -2.05674,-21.12393 8.54467,-38.84673 1.56174,-3.03731 -7.12215,-10.69797 -7.12215,-10.69797 z"
         id="path836"
         inkscape:connector-curvature="0"
         sodipodi:nodetypes="ccszcc" />
      <path
         sodipodi:nodetypes="ccszcc"
         inkscape:connector-curvature="0"
         id="path914"
         d="m 150.03316,345.13059 c -0.63027,0.47174 -1.87636,-1.80693 -8.76407,5.41341 -6.88772,7.22033 -16.38757,18.80218 -16.32182,33.65617 0.0538,12.14924 15.68365,17.60857 23.66337,10.47512 7.97971,-7.13346 -2.05674,-21.12393 8.54467,-38.84673 1.56174,-3.03731 -7.12215,-10.69797 -7.12215,-10.69797 z"
         style="fill:url(#radialGradient922);fill-opacity:1;stroke:none;stroke-width:1px;stroke-linecap:butt;stroke-linejoin:miter;stroke-opacity:1" />
      <path
         style="fill:#b97f53;fill-opacity:1;stroke:none;stroke-width:1px;stroke-linecap:butt;stroke-linejoin:miter;stroke-opacity:1"
         d="m 184.88566,286.75044 c 0,0 -7.5756,13.44924 -18.33324,16.80386 -10.75766,3.35462 -15.68471,-2.62399 -19.4338,3.01587 -3.74908,5.63987 -3.50067,13.03596 2.41693,15.67293 5.91758,2.63698 12.26499,3.99919 17.81907,0.50428 5.5541,-3.49493 16.59235,-17.25669 16.70744,-18.52086 0.11507,-1.26421 0.8236,-17.47608 0.8236,-17.47608 z"
         id="path840"
         inkscape:connector-curvature="0"
         sodipodi:nodetypes="csccscc" />
      <path
         sodipodi:nodetypes="czccszzc"
         inkscape:connector-curvature="0"
         id="path1130"
         d="m 260.70616,412.04521 c 0,0 2.81849,14.32725 1.06606,24.8417 -1.75244,10.51445 -11.76324,19.18249 -1.50365,22.99446 6.23604,1.92406 7.55799,-9.86304 7.55799,-9.86304 0,0 1.03991,0.01 2.39425,5.06398 1.35434,5.05446 4.91888,7.9851 9.33071,3.20537 4.41182,-4.77974 -4.03545,-22.85252 -8.29122,-30.51309 -4.25576,-7.66058 -10.55414,-15.72938 -10.55414,-15.72938 z"
         style="fill:url(#linearGradient1138);fill-opacity:1;stroke:none;stroke-width:1px;stroke-linecap:butt;stroke-linejoin:miter;stroke-opacity:1" />
      <path
         style="opacity:1;vector-effect:none;fill:#667c87;fill-opacity:1;stroke:none;stroke-width:1.01772976;stroke-linecap:butt;stroke-linejoin:miter;stroke-miterlimit:4;stroke-dasharray:none;stroke-dashoffset:0;stroke-opacity:0.6745098"
         d="m 269.98633,133.45312 c -43.22403,0.0411 -78.59322,31.33392 -79.86914,70.66407 -17.28281,11.94109 -8.01811,28.98023 -5.26758,39.02929 1.24617,4.46543 3.3926,7.71597 6.04687,10.22461 2.50552,13.39724 5.05469,26.77544 5.05469,31.20313 0,5.08772 0.70897,22.91129 1.33203,38.09375 -8.25594,9.84066 -12.66235,21.31687 -12.68945,33.04883 1.2e-4,33.63456 35.24201,60.90064 78.71484,60.90039 43.47283,2.6e-4 78.71473,-27.26582 78.71485,-60.90039 -0.0422,-23.33587 -17.31584,-44.60118 -44.47461,-54.75196 -5.27297,-4.68805 -4.9467,-7.14295 -3.90039,-14.99023 1.25962,-9.44714 11.80962,-8.81894 22.67383,-17.95117 9.82925,-8.26228 14.29244,-14.06669 15.09375,-15.14844 11.98445,-13.08151 18.5515,-29.5738 18.55859,-46.60742 6e-4,-40.21442 -35.81167,-72.81483 -79.98828,-72.81446 z"
         id="path825"
         inkscape:connector-curvature="0"
         sodipodi:nodetypes="ccccscccccssccc" />
      <path
         style="fill:#c4d7d6;fill-opacity:1;stroke:none;stroke-width:1px;stroke-linecap:butt;stroke-linejoin:miter;stroke-opacity:1"
         d="m 259.48135,293.21664 c 0,0 -23.68589,20.75764 3.46395,29.60103 66.318,21.60145 67.73816,69.39523 4.19911,78.27153 -19.94322,3.55075 -54.58384,-3.95406 -47.65594,-45.52146 6.9279,-41.5674 6.29809,-55.4232 17.63466,-61.09148 11.33656,-5.66828 22.35822,-1.25962 22.35822,-1.25962 z"
         id="path839"
         inkscape:connector-curvature="0"
         sodipodi:nodetypes="cscssc" />
      <path
         sodipodi:nodetypes="ccccscccccssccc"
         inkscape:connector-curvature="0"
         id="path939"
         d="m 269.98633,133.45312 c -43.22403,0.0411 -78.59322,31.33392 -79.86914,70.66407 -17.28281,11.94109 -8.01811,28.98023 -5.26758,39.02929 1.24617,4.46543 3.3926,7.71597 6.04687,10.22461 2.50552,13.39724 5.05469,26.77544 5.05469,31.20313 0,5.08772 0.70897,22.91129 1.33203,38.09375 -8.25594,9.84066 -12.66235,21.31687 -12.68945,33.04883 1.2e-4,33.63456 35.24201,60.90064 78.71484,60.90039 43.47283,2.6e-4 78.71473,-27.26582 78.71485,-60.90039 -0.0422,-23.33587 -17.31584,-44.60118 -44.47461,-54.75196 -5.27297,-4.68805 -4.9467,-7.14295 -3.90039,-14.99023 1.25962,-9.44714 11.80962,-8.81894 22.67383,-17.95117 9.82925,-8.26228 14.29244,-14.06669 15.09375,-15.14844 11.98445,-13.08151 18.5515,-29.5738 18.55859,-46.60742 6e-4,-40.21442 -35.81167,-72.81483 -79.98828,-72.81446 z"
         style="opacity:1;vector-effect:none;fill:url(#radialGradient955);fill-opacity:1;stroke:none;stroke-width:1.01772976;stroke-linecap:butt;stroke-linejoin:miter;stroke-miterlimit:4;stroke-dasharray:none;stroke-dashoffset:0;stroke-opacity:0.6745098" />
      <path
         style="opacity:1;vector-effect:none;fill:url(#radialGradient959);fill-opacity:1;stroke:none;stroke-width:1.01772976;stroke-linecap:butt;stroke-linejoin:miter;stroke-miterlimit:4;stroke-dasharray:none;stroke-dashoffset:0;stroke-opacity:0.6745098"
         d="m 198.01172,174.67188 c -4.73855,8.94246 -7.55242,18.89965 -7.89453,29.44531 -11.27069,2.2549 -16.59095,9.94185 -5.26758,39.02929 1.24617,4.46543 3.3926,7.71597 6.04687,10.22461 2.50552,13.39724 5.05469,26.77544 5.05469,31.20313 0,3.19016 0.29863,11.64854 0.66016,21.0625 32.58327,-4.74731 56.75677,-32.67039 56.78906,-65.59766 -0.0372,-32.38618 -23.44788,-60.0144 -55.38867,-65.36718 z"
         id="path957"
         inkscape:connector-curvature="0"
         sodipodi:nodetypes="ccccsccc" />
      <path
         sodipodi:nodetypes="csccscc"
         inkscape:connector-curvature="0"
         id="path985"
         d="m 184.88566,286.75044 c 0,0 -7.5756,13.44924 -18.33324,16.80386 -10.75766,3.35462 -15.68471,-2.62399 -19.4338,3.01587 -3.74908,5.63987 -3.50067,13.03596 2.41693,15.67293 5.91758,2.63698 12.26499,3.99919 17.81907,0.50428 5.5541,-3.49493 16.59235,-17.25669 16.70744,-18.52086 0.11507,-1.26421 0.8236,-17.47608 0.8236,-17.47608 z"
         style="fill:url(#linearGradient993);fill-opacity:1;stroke:none;stroke-width:1px;stroke-linecap:butt;stroke-linejoin:miter;stroke-opacity:1" />
      <path
         style="opacity:1;vector-effect:none;fill:url(#linearGradient1023);fill-opacity:1;stroke:none;stroke-width:1.01772976;stroke-linecap:butt;stroke-linejoin:miter;stroke-miterlimit:4;stroke-dasharray:none;stroke-dashoffset:0;stroke-opacity:0.6745098"
         d="m 269.98633,133.45312 c -43.22403,0.0411 -78.59322,31.33392 -79.86914,70.66407 -17.28281,11.94109 -8.01811,28.98023 -5.26758,39.02929 1.24617,4.46543 3.3926,7.71597 6.04687,10.22461 2.50552,13.39724 5.05469,26.77544 5.05469,31.20313 0,5.08772 0.70897,22.91129 1.33203,38.09375 -8.25594,9.84066 -12.66235,21.31687 -12.68945,33.04883 1.2e-4,33.63456 35.24201,60.90064 78.71484,60.90039 43.47283,2.6e-4 78.71473,-27.26582 78.71485,-60.90039 -0.0422,-23.33587 -17.31584,-44.60118 -44.47461,-54.75196 -5.27297,-4.68805 -4.9467,-7.14295 -3.90039,-14.99023 1.25962,-9.44714 11.80962,-8.81894 22.67383,-17.95117 9.82925,-8.26228 14.29244,-14.06669 15.09375,-15.14844 11.98445,-13.08151 18.5515,-29.5738 18.55859,-46.60742 6e-4,-40.21442 -35.81167,-72.81483 -79.98828,-72.81446 z"
         id="path1021"
         inkscape:connector-curvature="0"
         sodipodi:nodetypes="ccccscccccssccc" />
      <path
         style="fill:#b99763;fill-opacity:1;stroke:none;stroke-width:1px;stroke-linecap:butt;stroke-linejoin:miter;stroke-opacity:1"
         d="m 204.18944,238.92614 c 0,0 21.15376,16.255 28.94725,28.72458 7.79349,12.46959 22.60113,41.86218 -3.4514,75.93086 -14.71432,19.24181 -25.3898,31.40488 -48.09697,32.62133 -18.70437,1.00201 -27.20296,-0.02 -37.52009,-13.24893 -6.91841,-8.87101 -11.61217,-28.3161 2.44939,-40.9715 14.06156,-12.65541 29.61526,-20.70842 34.7367,-28.94725 5.12143,-8.23883 10.68821,-12.69225 4.23075,-22.48978 -6.45747,-9.79753 -8.68418,-18.25904 -7.79349,-21.15376 0.89068,-2.89473 26.49786,-10.46555 26.49786,-10.46555 z"
         id="path834"
         inkscape:connector-curvature="0"
         sodipodi:nodetypes="csssszsscc" />
      <path
         style="fill:#b99763;fill-opacity:1;stroke:none;stroke-width:1px;stroke-linecap:butt;stroke-linejoin:miter;stroke-opacity:1"
         d="m 167.67137,367.18473 c 2.84883,11.17962 11.52632,28.71696 19.87561,36.73339 8.34928,8.01643 29.12919,2.76554 28.21209,-10.26062 -0.91709,-13.02616 -15.72351,-14.64554 -23.43642,-31.89793 -1.5587,-0.22267 -24.65128,5.42516 -24.65128,5.42516 z"
         id="path838"
         inkscape:connector-curvature="0"
         sodipodi:nodetypes="czzcc" />
      <path
         style="fill:#d3ad7e;fill-opacity:1;stroke:none;stroke-width:1px;stroke-linecap:butt;stroke-linejoin:miter;stroke-opacity:1"
         d="m 223.17238,263.32772 c -4.17248,2.28305 3.77886,28.81376 2.51924,40.78014 -1.25962,11.96637 -1.98397,30.54534 4.01504,41.3146 3.74197,6.71749 23.54798,-1.42171 28.23526,-9.76668 4.68729,-8.34497 -21.55486,-62.01979 -23.14971,-66.24146 -1.59485,-4.22166 -7.44734,-8.36966 -11.61983,-6.0866 z"
         id="path842"
         inkscape:connector-curvature="0"
         sodipodi:nodetypes="zsszzz" />
      <path
         style="fill:none;stroke:#977f60;stroke-width:0.75590551;stroke-linecap:butt;stroke-linejoin:miter;stroke-miterlimit:4;stroke-dasharray:none;stroke-opacity:1"
         d="m 194.92592,272.59039 c 0.62981,0.47235 5.19593,2.51923 5.98319,6.77045 0.78726,4.25121 -5.4759,14.71427 -10.67183,18.17822 -5.19592,3.46395 -15.14244,11.01702 -23.95976,18.73218 -8.81733,7.71516 -25.01773,19.76778 -21.71123,35.82791 2.84774,13.94136 14.33609,21.62895 27.21415,24.72465"
         id="path874"
         inkscape:connector-curvature="0"
         sodipodi:nodetypes="cssscc" />
      <path
         style="fill:url(#radialGradient912);fill-opacity:1;stroke:none;stroke-width:1px;stroke-linecap:butt;stroke-linejoin:miter;stroke-opacity:1"
         d="m 204.18945,238.92578 c 0,0 -25.60736,7.57207 -26.49804,10.4668 -0.89069,2.89472 1.33549,11.35481 7.79297,21.15234 6.45745,9.79753 0.89096,14.25141 -4.23047,22.49024 -5.12144,8.23883 -20.67477,16.29185 -34.73633,28.94726 -7.80329,7.02296 -9.82564,16.13565 -8.90235,24.37305 a 92.965202,91.072502 0 0 0 22.37305,2.79297 92.965202,91.072502 0 0 0 84.02149,-52.35156 c -1.54456,-12.82428 -7.04819,-23.02671 -10.87305,-29.14649 -7.79349,-12.46958 -28.94727,-28.72461 -28.94727,-28.72461 z"
         id="path904"
         inkscape:connector-curvature="0" />
      <path
         style="fill:#667387;fill-opacity:1;stroke:none;stroke-width:1px;stroke-linecap:butt;stroke-linejoin:miter;stroke-opacity:1"
         d="m 175.13086,280.34298 c -1.83452,8.08347 -4.82669,12.34047 3.22873,17.25701 8.05542,4.91654 9.90887,8.79551 17.47969,8.57284 7.57082,-0.22267 9.24085,-1.89271 8.90684,-2.78339 -0.334,-0.89068 -0.55668,-2.67205 -5.45544,-13.4716 -4.89877,-10.79956 -13.30856,-20.02922 -13.53123,-19.24987 -0.22267,0.77935 -10.62859,9.67501 -10.62859,9.67501 z"
         id="path852"
         inkscape:connector-curvature="0"
         sodipodi:nodetypes="czscssc" />
      <path
         sodipodi:nodetypes="czscssc"
         inkscape:connector-curvature="0"
         id="path878"
         d="m 175.13086,280.34298 c -1.83452,8.08347 -4.82669,12.34047 3.22873,17.25701 8.05542,4.91654 9.90887,8.79551 17.47969,8.57284 7.57082,-0.22267 9.24085,-1.89271 8.90684,-2.78339 -0.334,-0.89068 -0.55668,-2.67205 -5.45544,-13.4716 -4.89877,-10.79956 -13.30856,-20.02922 -13.53123,-19.24987 -0.22267,0.77935 -10.62859,9.67501 -10.62859,9.67501 z"
         style="fill:url(#linearGradient886);fill-opacity:1;stroke:none;stroke-width:1px;stroke-linecap:butt;stroke-linejoin:miter;stroke-opacity:1" />
      <path
         style="fill:#b99763;fill-opacity:1;stroke:none;stroke-width:1px;stroke-linecap:butt;stroke-linejoin:miter;stroke-opacity:1"
         d="m 184.09664,228.39377 c -10.47564,-2.05057 -36.15107,4.70039 -43.33158,7.78074 -7.18051,3.08037 -24.7278,10.05903 -26.96909,14.64918 -2.24127,4.59014 -5.87234,28.81742 4.63537,38.1528 10.50771,9.33538 4.28003,24.78375 20.09045,16.72205 15.8104,-8.0617 43.79575,-20.63389 52.88574,-27.00545 9.08999,-6.37156 18.38227,-13.27357 19.51083,-19.97061 1.12856,-6.69705 9.85205,-3.20599 3.0671,-11.43769 -6.78494,-8.23169 -19.41318,-16.84046 -29.88882,-18.89102 z"
         id="path832"
         inkscape:connector-curvature="0"
         sodipodi:nodetypes="zccsssszz" />
      <path
         style="fill:#a5815f;fill-opacity:1;stroke:none;stroke-width:1px;stroke-linecap:butt;stroke-linejoin:miter;stroke-opacity:1"
         d="m 179.52148,228.01367 c -12.03046,-0.0394 -32.47291,5.46485 -38.75586,8.16016 -7.1805,3.08037 -24.72746,10.06024 -26.96874,14.65039 -2.24128,4.59014 -5.87295,28.81696 4.63476,38.15234 3.36493,2.98951 7.01525,5.81035 10.9375,8.00977 4.83591,-3.35896 24.61291,-17.16107 39.86133,-28.89063 17.36835,-13.36027 24.90865,-23.21782 28.6875,-32.03515 0.26286,-0.61334 0.44161,-1.19405 0.55859,-1.75196 -4.7567,-2.84589 -9.77696,-5.01287 -14.38086,-5.91406 -1.30945,-0.25632 -2.85558,-0.37523 -4.57422,-0.38086 z"
         id="path869"
         inkscape:connector-curvature="0" />
      <ellipse
         ry="25.16184"
         rx="24.159819"
         cy="256.802"
         cx="253.83336"
         id="ellipse1185"
         style="opacity:0.63599997;vector-effect:none;fill:url(#radialGradient1187);fill-opacity:1;stroke:none;stroke-width:0.81599998;stroke-linecap:round;stroke-linejoin:miter;stroke-miterlimit:4;stroke-dasharray:none;stroke-dashoffset:0;stroke-opacity:1" />
      <path
         sodipodi:nodetypes="ccccscccccssccc"
         inkscape:connector-curvature="0"
         id="path1025"
         d="m 269.98633,133.45312 c -43.22403,0.0411 -78.59322,31.33392 -79.86914,70.66407 -17.28281,11.94109 -8.01811,28.98023 -5.26758,39.02929 1.24617,4.46543 3.3926,7.71597 6.04687,10.22461 2.50552,13.39724 5.05469,26.77544 5.05469,31.20313 0,5.08772 0.70897,22.91129 1.33203,38.09375 -8.25594,9.84066 -12.66235,21.31687 -12.68945,33.04883 1.2e-4,33.63456 35.24201,60.90064 78.71484,60.90039 43.47283,2.6e-4 78.71473,-27.26582 78.71485,-60.90039 -0.0422,-23.33587 -17.31584,-44.60118 -44.47461,-54.75196 -5.27297,-4.68805 -4.9467,-7.14295 -3.90039,-14.99023 1.25962,-9.44714 11.80962,-8.81894 22.67383,-17.95117 9.82925,-8.26228 14.29244,-14.06669 15.09375,-15.14844 11.98445,-13.08151 18.5515,-29.5738 18.55859,-46.60742 6e-4,-40.21442 -35.81167,-72.81483 -79.98828,-72.81446 z"
         style="opacity:1;vector-effect:none;fill:url(#radialGradient1035);fill-opacity:1;stroke:none;stroke-width:1.01772976;stroke-linecap:butt;stroke-linejoin:miter;stroke-miterlimit:4;stroke-dasharray:none;stroke-dashoffset:0;stroke-opacity:0.6745098" />
      <path
         style="fill:#bc8863;fill-opacity:1;stroke:none;stroke-width:1px;stroke-linecap:butt;stroke-linejoin:miter;stroke-opacity:1"
         d="m 185.00643,228.64151 c 14.6037,2.12561 9.58481,5.24079 22.4959,8.86219 12.91108,3.62141 22.6929,-1.5997 21.11838,4.85584 -1.57452,6.45555 -12.00574,12.95046 -21.45287,10.90358 -9.44714,-2.04688 -22.46865,-14.54431 -25.19237,-16.29632 0.5314,-0.88566 3.03096,-8.32529 3.03096,-8.32529 z"
         id="path844"
         inkscape:connector-curvature="0"
         sodipodi:nodetypes="cssscc" />
      <path
         style="fill:#d1c1aa;fill-opacity:1;stroke:none;stroke-width:1px;stroke-linecap:butt;stroke-linejoin:miter;stroke-opacity:1"
         d="m 171.04141,229.67556 c 0.94471,-4.01503 14.1707,-2.75541 17.71337,-6.57363 6.08831,-6.56184 5.94384,-14.09198 8.46307,-9.21096 2.51924,4.88102 2.47987,15.43032 -3.54267,19.09109 -4.58249,2.78543 -13.06854,4.48739 -16.4144,3.50332 -3.34587,-0.98408 -7.16409,-2.79478 -6.21937,-6.80982 z"
         id="path846"
         inkscape:connector-curvature="0"
         sodipodi:nodetypes="zscczz" />
      <path
         style="opacity:1;vector-effect:none;fill:#311d32;fill-opacity:1;stroke:none;stroke-width:1.12251973;stroke-linecap:butt;stroke-linejoin:miter;stroke-miterlimit:4;stroke-dasharray:none;stroke-dashoffset:0;stroke-opacity:0.6745098"
         d="m 222.20627,204.09235 c -2.99376,-1.80893 -6.9917,-1.47569 -10.56185,0.87991 2.34757,0.99473 4.94174,2.34054 7.48734,3.8843 2.66255,1.61726 5.1548,3.38031 7.16741,5.0701 0.46149,-4.27871 -1.08968,-8.0058 -4.0929,-9.83431 z"
         id="path837"
         inkscape:connector-curvature="0"
         sodipodi:nodetypes="ccccc" />
      <path
         sodipodi:nodetypes="ccccc"
         inkscape:connector-curvature="0"
         id="path843"
         d="m 299.41433,247.8438 c 2.98649,1.8209 4.5361,5.52135 4.09421,9.7757 -1.96596,-1.62345 -4.35719,-3.30363 -6.90159,-4.84935 -2.66359,-1.61555 -5.3779,-3.01274 -7.80586,-4.01824 3.58271,-2.38422 7.605,-2.72838 10.61324,-0.90811 z"
         style="opacity:1;vector-effect:none;fill:#311d32;fill-opacity:1;stroke:none;stroke-width:1.12251973;stroke-linecap:butt;stroke-linejoin:miter;stroke-miterlimit:4;stroke-dasharray:none;stroke-dashoffset:0;stroke-opacity:0.6745098" />
      <path
         style="fill:#667c87;fill-opacity:1;stroke:none;stroke-width:1px;stroke-linecap:butt;stroke-linejoin:miter;stroke-opacity:1"
         d="m 253.57689,265.4263 c -1.10216,0.94472 -37.08001,16.45377 -48.73147,18.973 -11.65147,2.51924 -22.23106,-0.80308 -15.77552,7.69934 6.45554,8.50242 18.4522,14.02908 36.55922,14.65889 18.10701,0.62981 49.28256,-1.57453 56.84027,-9.9195 7.55771,-8.34497 7.08535,-10.5493 7.08535,-10.5493 0,0 11.96637,-14.01326 0.0787,-24.32637 -11.10735,-9.63618 -36.05658,3.46394 -36.05658,3.46394 z"
         id="path850"
         inkscape:connector-curvature="0"
         sodipodi:nodetypes="csssscsc" />
      <path
         style="fill:#a5815f;fill-opacity:1;stroke:none;stroke-width:1px;stroke-linecap:butt;stroke-linejoin:miter;stroke-opacity:1"
         d="m 107.99551,248.50101 c 0,0 7.18114,-1.22469 17.86936,-5.95646 10.68821,-4.73176 17.92502,-7.40381 17.92502,-7.40381 l 6.95848,0.167 c 0,0 8.23883,29.83794 7.79349,30.50595 -0.44535,0.66801 -21.71044,15.80965 -21.71044,15.80965 0,0 -17.31268,-24.8835 -17.42402,-25.10617 -0.11133,-0.22267 -7.18114,-6.34613 -8.01616,-6.34613 -0.83502,0 -3.39573,-1.67003 -3.39573,-1.67003 z"
         id="path930"
         inkscape:connector-curvature="0" />
      <path
         style="fill:#ae745b;fill-opacity:1;stroke:none;stroke-width:1px;stroke-linecap:butt;stroke-linejoin:miter;stroke-opacity:1"
         d="m 111.33156,247.86902 c -0.94471,0.31491 -10.71542,0.76333 -10.94222,7.60287 -0.22731,6.85477 0.021,11.8508 6.94892,26.80877 6.9279,14.95796 11.72924,21.26069 22.19422,26.93089 10.49464,-2.75216 9.80104,-4.01698 9.80104,-4.01698 0,0 7.16831,-15.85829 -2.43628,-34.12276 -9.60459,-18.26446 -25.56568,-23.20279 -25.56568,-23.20279 z"
         id="path859"
         inkscape:connector-curvature="0"
         sodipodi:nodetypes="cssccsc" />
      <ellipse
         style="opacity:1;vector-effect:none;fill:#89675b;fill-opacity:1;stroke:none;stroke-width:1.35402894;stroke-linecap:butt;stroke-linejoin:miter;stroke-miterlimit:4;stroke-dasharray:none;stroke-dashoffset:0;stroke-opacity:1"
         id="path861"
         cx="-20.383057"
         cy="303.755"
         rx="13.184619"
         ry="31.580353"
         transform="matrix(0.90779391,-0.41941651,0.44650666,0.89478031,0,0)" />
      <ellipse
         style="opacity:1;vector-effect:none;fill:#462d14;fill-opacity:1;stroke:none;stroke-width:1.71767902;stroke-linecap:butt;stroke-linejoin:miter;stroke-miterlimit:4;stroke-dasharray:none;stroke-dashoffset:0;stroke-opacity:1"
         id="path863"
         cx="250.4442"
         cy="195.50116"
         rx="2.8313613"
         ry="6.88871"
         transform="matrix(0.95978618,0.28073206,-0.33257783,0.94307581,0,0)" />
      <ellipse
         transform="matrix(0.90779391,-0.41941651,0.44650666,0.89478031,0,0)"
         ry="31.580353"
         rx="13.184619"
         cy="303.755"
         cx="-20.383057"
         id="ellipse888"
         style="opacity:1;vector-effect:none;fill:url(#linearGradient896);fill-opacity:1;stroke:none;stroke-width:1.35402894;stroke-linecap:butt;stroke-linejoin:miter;stroke-miterlimit:4;stroke-dasharray:none;stroke-dashoffset:0;stroke-opacity:1" />
      <ellipse
         style="opacity:1;vector-effect:none;fill:#462d14;fill-opacity:1;stroke:none;stroke-width:0.97020173;stroke-linecap:butt;stroke-linejoin:miter;stroke-miterlimit:4;stroke-dasharray:none;stroke-dashoffset:0;stroke-opacity:1"
         id="path865"
         cx="4.9712815"
         cy="307.33182"
         rx="2.3458807"
         ry="10.705027"
         transform="matrix(0.9353365,-0.3537593,0.38097823,0.92458401,0,0)" />
      <ellipse
         transform="matrix(0.85590219,-0.51713775,0.47577429,0.87956741,0,0)"
         ry="10.214048"
         rx="2.1381991"
         cy="303.51074"
         cx="-37.72356"
         id="ellipse867"
         style="opacity:1;vector-effect:none;fill:#462d14;fill-opacity:1;stroke:none;stroke-width:0.90477002;stroke-linecap:butt;stroke-linejoin:miter;stroke-miterlimit:4;stroke-dasharray:none;stroke-dashoffset:0;stroke-opacity:1" />
      <path
         style="fill:#a5815f;fill-opacity:1;stroke:none;stroke-width:1px;stroke-linecap:butt;stroke-linejoin:miter;stroke-opacity:1"
         d="m 156.48157,231.39295 c -0.3149,-0.36603 -0.55214,-1.83366 0.0284,-3.16893 0.56589,-1.30156 3.99212,-4.45533 3.99212,-4.45533 0,0 -1.64138,2.44839 -1.28827,4.49691 0.19676,1.14154 1.05373,1.03002 1.05373,1.03002 0,0 -0.12509,-1.42093 0.29242,-2.49253 0.4175,-1.07161 2.29869,-1.65892 2.29869,-1.65892 0,0 -0.99358,1.51927 -0.69463,2.45143 0.29895,0.93216 1.68082,1.19365 1.55556,1.19365 0,0 -1.59089,-1.12348 0.84722,-2.94422 0,0 0.0204,2.38995 2.10252,2.83825 2.08209,0.44829 3.56274,0.167 3.56274,0.167 0,0 -3.4514,3.72974 -3.6184,4.00808 -0.16701,0.27834 -6.01212,1.94837 -6.01212,1.94837 l -3.78541,-1.05769 c 0,0 -1.44737,-0.66801 -1.83704,-1.00202 -0.38968,-0.334 -0.006,-3.14219 -0.006,-3.14219 0.51172,1.45643 1.50806,1.78812 1.50806,1.78812 z"
         id="path876"
         inkscape:connector-curvature="0"
         sodipodi:nodetypes="ccccczczcczccccccc" />
      <path
         style="fill:none;stroke:#a5815f;stroke-width:1px;stroke-linecap:round;stroke-linejoin:miter;stroke-opacity:1"
         d="m 153.64309,277.44826 c 2.33805,3.67407 2.33805,3.67407 2.33805,3.67407 0,0 -0.55668,-2.22671 0,0"
         id="path932"
         inkscape:connector-curvature="0" />
      <path
         style="fill:none;stroke:#90684e;stroke-width:1px;stroke-linecap:round;stroke-linejoin:miter;stroke-opacity:1"
         d="m 155.79436,275.79404 2.33804,3.00607"
         id="path934"
         inkscape:connector-curvature="0" />
      <path
         style="fill:none;stroke:#90684e;stroke-width:1.00157475;stroke-linecap:round;stroke-linejoin:miter;stroke-miterlimit:4;stroke-dasharray:none;stroke-opacity:1"
         d="m 158.56984,274.19714 2.11537,2.67206"
         id="path936"
         inkscape:connector-curvature="0" />
      <path
         sodipodi:nodetypes="czzcc"
         inkscape:connector-curvature="0"
         id="path964"
         d="m 167.67137,367.18473 c 2.84883,11.17962 11.52632,28.71696 19.87561,36.73339 8.34928,8.01643 29.12919,2.76554 28.21209,-10.26062 -0.91709,-13.02616 -15.72351,-14.64554 -23.43642,-31.89793 -1.5587,-0.22267 -24.65128,5.42516 -24.65128,5.42516 z"
         style="fill:url(#linearGradient972);fill-opacity:1;stroke:none;stroke-width:1px;stroke-linecap:butt;stroke-linejoin:miter;stroke-opacity:1" />
      <path
         inkscape:connector-curvature="0"
         id="path974"
         d="m 176.26028,363.73066 1.35336,3.55968"
         style="fill:none;stroke:#a37b4e;stroke-width:1px;stroke-linecap:round;stroke-linejoin:miter;stroke-opacity:1" />
      <path
         inkscape:connector-curvature="0"
         id="path976"
         d="m 179.3821,363.01819 1.23847,3.17504"
         style="fill:none;stroke:#a37b4e;stroke-width:1.00157475;stroke-linecap:round;stroke-linejoin:miter;stroke-miterlimit:4;stroke-dasharray:none;stroke-opacity:1" />
      <path
         inkscape:connector-curvature="0"
         id="path995"
         d="m 221.03701,263.10178 2.33804,3.00607"
         style="fill:none;stroke:#ad7e6a;stroke-width:1px;stroke-linecap:round;stroke-linejoin:miter;stroke-opacity:1" />
      <path
         inkscape:connector-curvature="0"
         id="path997"
         d="m 223.81249,261.50488 2.11537,2.67206"
         style="fill:none;stroke:#ad7e6a;stroke-width:1.00157475;stroke-linecap:round;stroke-linejoin:miter;stroke-miterlimit:4;stroke-dasharray:none;stroke-opacity:1" />
      <ellipse
         transform="matrix(0.87778872,0.47904798,-0.50239999,0.86463533,0,0)"
         ry="20.765062"
         rx="31.787647"
         cy="99.022339"
         cx="293.41534"
         id="ellipse1009"
         style="opacity:1;vector-effect:none;fill:url(#radialGradient1017);fill-opacity:1;stroke:none;stroke-width:0.69142812;stroke-linecap:round;stroke-linejoin:miter;stroke-miterlimit:4;stroke-dasharray:none;stroke-dashoffset:0;stroke-opacity:1" />
      <ellipse
         style="opacity:0.63599997;vector-effect:none;fill:url(#radialGradient1158);fill-opacity:1;stroke:none;stroke-width:0.81599998;stroke-linecap:round;stroke-linejoin:miter;stroke-miterlimit:4;stroke-dasharray:none;stroke-dashoffset:0;stroke-opacity:1"
         id="path1150"
         cx="240.60736"
         cy="232.23946"
         rx="24.159819"
         ry="25.16184" />
      <path
         inkscape:connector-curvature="0"
         style="fill:#d5ad67;fill-opacity:1;stroke:none;stroke-width:0.81636089px;stroke-linecap:butt;stroke-linejoin:miter;stroke-opacity:1"
         d="m 261.53629,225.62482 c -4.11222,0.92208 -8.64703,1.94052 -12.59165,1.40002 -5.00548,-0.62918 -7.71286,-3.88929 -10.83095,-1.26513 -3.11809,2.62416 -5.11255,9.86915 -1.58791,18.03949 2.03455,4.71619 4.70864,7.52717 7.72912,9.06524 2.67833,2.07737 6.3607,3.29907 11.49426,3.13048 8.89338,-0.29209 14.59826,-5.1831 15.64394,-9.12205 1.04568,-3.93894 -3.0572,-4.9994 -5.75894,-9.25984 -2.16954,-3.33845 -3.18013,-7.87501 -4.09787,-11.98821 z"
         id="path1037" />
      <g
         transform="matrix(0.68933803,0.4373307,-0.4373307,0.68933803,308.08861,167.55459)"
         id="g1072"
         style="opacity:0.49100001;fill:url(#radialGradient1080);fill-opacity:1">
        <path
           inkscape:connector-curvature="0"
           style="fill:url(#radialGradient1066);fill-opacity:1;stroke:none;stroke-width:1px;stroke-linecap:butt;stroke-linejoin:miter;stroke-opacity:1"
           d="m -10.044922,90.613281 c -3.648397,3.652262 -7.670663,7.68149 -12.105469,9.710939 -5.590309,2.63387 -10.530016,1.03839 -12.033203,5.79883 -1.503186,4.76044 1.188107,13.56309 10.195313,19.70117 5.199271,3.5431 9.809827,4.69586 13.943359,4.30469 4.1335321,0.39117 8.7440885,-0.76159 13.9433595,-4.30469 9.0072055,-6.13808 11.6984985,-14.94073 10.1953125,-19.70117 -1.503187,-4.76044 -6.4428941,-3.16496 -12.0332031,-5.79883 -4.434806,-2.029449 -8.4570718,-6.058677 -12.1054689,-9.710939 z"
           id="path1068" />
        <path
           id="path1222"
           d="m -10.044922,90.613281 c -3.648397,3.652262 -7.670663,7.68149 -12.105469,9.710939 -5.590309,2.63387 -10.530016,1.03839 -12.033203,5.79883 -1.503186,4.76044 1.188107,13.56309 10.195313,19.70117 5.199271,3.5431 9.809827,4.69586 13.943359,4.30469 4.1335321,0.39117 8.7440885,-0.76159 13.9433595,-4.30469 9.0072055,-6.13808 11.6984985,-14.94073 10.1953125,-19.70117 -1.503187,-4.76044 -6.4428941,-3.16496 -12.0332031,-5.79883 -4.434806,-2.029449 -8.4570718,-6.058677 -12.1054689,-9.710939 z"
           style="fill:url(#radialGradient1068);fill-opacity:1;stroke:none;stroke-width:1px;stroke-linecap:butt;stroke-linejoin:miter;stroke-opacity:1"
           inkscape:connector-curvature="0" />
        <path
           inkscape:connector-curvature="0"
           style="fill:url(#radialGradient1070);fill-opacity:1;stroke:none;stroke-width:1px;stroke-linecap:butt;stroke-linejoin:miter;stroke-opacity:1"
           d="m -10.044922,90.613281 c -3.648397,3.652262 -7.670663,7.68149 -12.105469,9.710939 -5.590309,2.63387 -10.530016,1.03839 -12.033203,5.79883 -1.503186,4.76044 1.188107,13.56309 10.195313,19.70117 5.199271,3.5431 9.809827,4.69586 13.943359,4.30469 4.1335321,0.39117 8.7440885,-0.76159 13.9433595,-4.30469 9.0072055,-6.13808 11.6984985,-14.94073 10.1953125,-19.70117 -1.503187,-4.76044 -6.4428941,-3.16496 -12.0332031,-5.79883 -4.434806,-2.029449 -8.4570718,-6.058677 -12.1054689,-9.710939 z"
           id="path1226" />
        <path
           id="path1228"
           d="m -10.044922,90.613281 c -3.648397,3.652262 -7.670663,7.68149 -12.105469,9.710939 -5.590309,2.63387 -10.530016,1.03839 -12.033203,5.79883 -1.503186,4.76044 1.188107,13.56309 10.195313,19.70117 5.199271,3.5431 9.809827,4.69586 13.943359,4.30469 4.1335321,0.39117 8.7440885,-0.76159 13.9433595,-4.30469 9.0072055,-6.13808 11.6984985,-14.94073 10.1953125,-19.70117 -1.503187,-4.76044 -6.4428941,-3.16496 -12.0332031,-5.79883 -4.434806,-2.029449 -8.4570718,-6.058677 -12.1054689,-9.710939 z"
           style="fill:url(#radialGradient1072);fill-opacity:1;stroke:none;stroke-width:1px;stroke-linecap:butt;stroke-linejoin:miter;stroke-opacity:1"
           inkscape:connector-curvature="0" />
        <path
           inkscape:connector-curvature="0"
           style="fill:url(#radialGradient1074);fill-opacity:1;stroke:none;stroke-width:1px;stroke-linecap:butt;stroke-linejoin:miter;stroke-opacity:1"
           d="m -10.044922,90.613281 c -3.648397,3.652262 -7.670663,7.68149 -12.105469,9.710939 -5.590309,2.63387 -10.530016,1.03839 -12.033203,5.79883 -1.503186,4.76044 1.188107,13.56309 10.195313,19.70117 5.199271,3.5431 9.809827,4.69586 13.943359,4.30469 4.1335321,0.39117 8.7440885,-0.76159 13.9433595,-4.30469 9.0072055,-6.13808 11.6984985,-14.94073 10.1953125,-19.70117 -1.503187,-4.76044 -6.4428941,-3.16496 -12.0332031,-5.79883 -4.434806,-2.029449 -8.4570718,-6.058677 -12.1054689,-9.710939 z"
           id="path1230" />
        <path
           id="path1232"
           d="m -10.044922,90.613281 c -3.648397,3.652262 -7.670663,7.68149 -12.105469,9.710939 -5.590309,2.63387 -10.530016,1.03839 -12.033203,5.79883 -1.503186,4.76044 1.188107,13.56309 10.195313,19.70117 5.199271,3.5431 9.809827,4.69586 13.943359,4.30469 4.1335321,0.39117 8.7440885,-0.76159 13.9433595,-4.30469 9.0072055,-6.13808 11.6984985,-14.94073 10.1953125,-19.70117 -1.503187,-4.76044 -6.4428941,-3.16496 -12.0332031,-5.79883 -4.434806,-2.029449 -8.4570718,-6.058677 -12.1054689,-9.710939 z"
           style="fill:url(#radialGradient1076);fill-opacity:1;stroke:none;stroke-width:1px;stroke-linecap:butt;stroke-linejoin:miter;stroke-opacity:1"
           inkscape:connector-curvature="0" />
        <path
           inkscape:connector-curvature="0"
           style="fill:url(#radialGradient1078);fill-opacity:1;stroke:none;stroke-width:1px;stroke-linecap:butt;stroke-linejoin:miter;stroke-opacity:1"
           d="m -10.044922,90.613281 c -3.648397,3.652262 -7.670663,7.68149 -12.105469,9.710939 -5.590309,2.63387 -10.530016,1.03839 -12.033203,5.79883 -1.503186,4.76044 1.188107,13.56309 10.195313,19.70117 5.199271,3.5431 9.809827,4.69586 13.943359,4.30469 4.1335321,0.39117 8.7440885,-0.76159 13.9433595,-4.30469 9.0072055,-6.13808 11.6984985,-14.94073 10.1953125,-19.70117 -1.503187,-4.76044 -6.4428941,-3.16496 -12.0332031,-5.79883 -4.434806,-2.029449 -8.4570718,-6.058677 -12.1054689,-9.710939 z"
           id="path1234" />
        <path
           id="path1236"
           d="m -10.044922,90.613281 c -3.648397,3.652262 -7.670663,7.68149 -12.105469,9.710939 -5.590309,2.63387 -10.530016,1.03839 -12.033203,5.79883 -1.503186,4.76044 1.188107,13.56309 10.195313,19.70117 5.199271,3.5431 9.809827,4.69586 13.943359,4.30469 4.1335321,0.39117 8.7440885,-0.76159 13.9433595,-4.30469 9.0072055,-6.13808 11.6984985,-14.94073 10.1953125,-19.70117 -1.503187,-4.76044 -6.4428941,-3.16496 -12.0332031,-5.79883 -4.434806,-2.029449 -8.4570718,-6.058677 -12.1054689,-9.710939 z"
           style="fill:url(#radialGradient1088);fill-opacity:1;stroke:none;stroke-width:1px;stroke-linecap:butt;stroke-linejoin:miter;stroke-opacity:1"
           inkscape:connector-curvature="0" />
      </g>
      <path
         inkscape:connector-curvature="0"
         id="path1039"
         d="m 239.09114,227.67461 c 0,0 0.96003,14.75521 8.56663,19.78295 7.60662,5.02773 21.65507,-0.60966 21.65507,-0.60966"
         style="fill:none;stroke:#956335;stroke-width:0.81599998;stroke-linecap:round;stroke-linejoin:miter;stroke-miterlimit:4;stroke-dasharray:none;stroke-opacity:1"
         sodipodi:nodetypes="csc" />
      <path
         style="opacity:1;vector-effect:none;fill:#eac5d5;fill-opacity:1;stroke:none;stroke-width:0.58380997;stroke-linecap:round;stroke-linejoin:miter;stroke-miterlimit:4;stroke-dasharray:none;stroke-dashoffset:0;stroke-opacity:1"
         d="m 155.83653,158.75795 c 6.27299,-2.4066 13.2731,0.63322 15.63566,6.78984 0.0576,0.15563 0.11045,0.31298 0.16122,0.47096 l 0.007,-0.002 c 0,0 0.0354,0.12613 0.0388,0.13629 2.72262,8.92434 -0.42191,13.19812 -2.95992,18.78999 -5.07376,8.48604 -2.60358,13.96963 -2.60358,13.96963 -19.07193,-1.47933 -34.34771,-5.23099 -38.77906,-16.43047 -2.3622,-6.15676 0.80775,-13.09891 7.08047,-15.50621 4.82573,-1.84524 10.26884,-0.49854 13.57558,3.35959 -0.12283,-5.07983 3.02219,-9.72228 7.84376,-11.57837 z"
         id="path1055"
         inkscape:connector-curvature="0"
         sodipodi:nodetypes="ccccccccccc" />
      <path
         style="opacity:1;vector-effect:none;fill:#956335;fill-opacity:1;stroke:none;stroke-width:0.40511656;stroke-linecap:round;stroke-linejoin:miter;stroke-miterlimit:4;stroke-dasharray:none;stroke-dashoffset:0;stroke-opacity:1"
         d="m 239.31641,226.73438 a 1.9483725,1.8927047 0 0 0 -1.94922,1.89257 1.9483725,1.8927047 0 0 0 0.17578,0.78125 1.9483725,1.8927047 0 0 1 1.93945,-1.72656 1.9483725,1.8927047 0 0 1 1.77344,1.11133 1.9483725,1.8927047 0 0 0 0.008,-0.16602 1.9483725,1.8927047 0 0 0 -1.94726,-1.89257 z"
         id="path1166"
         inkscape:connector-curvature="0" />
      <path
         id="path1171"
         d="m 269.87728,246.05143 a 1.9483725,1.8927047 54.350543 0 1 -0.40185,2.68697 1.9483725,1.8927047 54.350543 0 1 -0.73729,0.31249 1.9483725,1.8927047 54.350543 0 0 0.27264,-2.58228 1.9483725,1.8927047 54.350543 0 0 -1.93667,-0.79338 1.9483725,1.8927047 54.350543 0 1 0.13025,-0.10326 1.9483725,1.8927047 54.350543 0 1 2.67281,0.4793 z"
         style="opacity:1;vector-effect:none;fill:#956335;fill-opacity:1;stroke:none;stroke-width:0.40511656;stroke-linecap:round;stroke-linejoin:miter;stroke-miterlimit:4;stroke-dasharray:none;stroke-dashoffset:0;stroke-opacity:1"
         inkscape:connector-curvature="0" />
      <path
         sodipodi:nodetypes="ccccccccccc"
         inkscape:connector-curvature="0"
         id="path1175"
         d="m 155.83653,158.75795 c 6.27299,-2.4066 13.2731,0.63322 15.63566,6.78984 0.0576,0.15563 0.11045,0.31298 0.16122,0.47096 l 0.007,-0.002 c 0,0 0.0354,0.12613 0.0388,0.13629 2.72262,8.92434 -0.42191,13.19812 -2.95992,18.78999 -5.07376,8.48604 -2.60358,13.96963 -2.60358,13.96963 -19.07193,-1.47933 -34.34771,-5.23099 -38.77906,-16.43047 -2.3622,-6.15676 0.80775,-13.09891 7.08047,-15.50621 4.82573,-1.84524 10.26884,-0.49854 13.57558,3.35959 -0.12283,-5.07983 3.02219,-9.72228 7.84376,-11.57837 z"
         style="opacity:1;vector-effect:none;fill:url(#radialGradient1183);fill-opacity:1;stroke:none;stroke-width:0.58380997;stroke-linecap:round;stroke-linejoin:miter;stroke-miterlimit:4;stroke-dasharray:none;stroke-dashoffset:0;stroke-opacity:1" />
    </g>
    <path
       id="path1236-7"
       d="m 261.5363,225.62481 c -4.11222,0.92209 -8.64703,1.94053 -12.59165,1.40003 -5.00549,-0.62919 -7.71286,-3.8893 -10.83095,-1.26514 -3.11809,2.62417 -5.11255,9.86915 -1.58791,18.03949 2.03455,4.7162 4.70864,7.52718 7.72911,9.06525 2.67833,2.07737 6.3607,3.29907 11.49426,3.13047 8.89338,-0.29208 14.59826,-5.1831 15.64395,-9.12204 1.04568,-3.93894 -3.0572,-4.9994 -5.75894,-9.25984 -2.16954,-3.33846 -3.18014,-7.87502 -4.09787,-11.98822 z"
       style="opacity:1;fill:url(#radialGradient1088-0);fill-opacity:1;stroke:none;stroke-width:0.81636089px;stroke-linecap:butt;stroke-linejoin:miter;stroke-opacity:1"
       inkscape:connector-curvature="0" />
  </g>
</svg>
