<svg height="603.882" width="520.027" xmlns="http://www.w3.org/2000/svg" xmlns:xlink="http://www.w3.org/1999/xlink"><linearGradient id="a"><stop offset="0" stop-color="#ffffdb"/><stop offset="1" stop-color="#d5ad67"/></linearGradient><linearGradient id="b"><stop offset="0" stop-color="#783619"/><stop offset="1" stop-color="#b99763" stop-opacity="0"/></linearGradient><linearGradient id="c"><stop offset="0" stop-color="#000007"/><stop offset="1" stop-color="#b87f53" stop-opacity="0"/></linearGradient><linearGradient id="d"><stop offset="0" stop-color="#000007"/><stop offset="1" stop-color="#85685e" stop-opacity="0"/></linearGradient><linearGradient id="e"><stop offset="0" stop-color="#000007"/><stop offset="1" stop-color="#667c87" stop-opacity="0"/></linearGradient><linearGradient id="f" gradientUnits="userSpaceOnUse" x1="198.309" x2="175.654" xlink:href="#e" y1="270.42" y2="296.141"/><linearGradient id="g" gradientUnits="userSpaceOnUse" x1="-70.759" x2="-7.198" xlink:href="#d" y1="310.254" y2="303.755"/><radialGradient id="h" cx="211.412" cy="270.717" gradientTransform="matrix(-.43283 .90148 -.6299 -.30244 443.391 158.183)" gradientUnits="userSpaceOnUse" r="53.517" xlink:href="#d"/><radialGradient id="i" cx="150.038" cy="359.849" gradientTransform="matrix(2.81004 1.49308 -.83225 1.56632 38.856 -432.54)" gradientUnits="userSpaceOnUse" r="16.198" xlink:href="#c"/><radialGradient id="j" cx="159.054" cy="300.105" gradientTransform="matrix(.74992 .66153 -1.01558 1.15128 368.993 -127.961)" gradientUnits="userSpaceOnUse" r="85.037" xlink:href="#e"/><radialGradient id="k" cx="84.564" cy="104.454" gradientTransform="matrix(.39453 .29057 -.25084 .34058 186.97 188.518)" gradientUnits="userSpaceOnUse" r="85.037" xlink:href="#e"/><linearGradient id="l" gradientUnits="userSpaceOnUse" x1="164.554" x2="190.849" xlink:href="#b" y1="406.78" y2="381.173"/><linearGradient id="m" gradientUnits="userSpaceOnUse" x1="177.588" x2="146.362" xlink:href="#c" y1="324.503" y2="301.798"/><radialGradient id="n" cx="285.904" cy="134.567" gradientTransform="matrix(2.98248 -1.54641 .4106 1.23168 -622.051 398.624)" gradientUnits="userSpaceOnUse" r="31.788"><stop offset="0" stop-color="#667c87" stop-opacity=".005"/><stop offset=".792" stop-color="#667c87" stop-opacity="0"/><stop offset="1" stop-color="#becedb" stop-opacity=".57"/></radialGradient><linearGradient id="o" gradientUnits="userSpaceOnUse" x1="291.235" x2="260.015" xlink:href="#e" y1="532.443" y2="320.46"/><radialGradient id="p" cx="238.217" cy="164.832" gradientTransform="matrix(-.23874 1.31125 -1.39591 -.25416 525.18 -178.916)" gradientUnits="userSpaceOnUse" r="85.037"><stop offset="0" stop-color="#d3f3f4"/><stop offset="1" stop-color="#667c87" stop-opacity="0"/></radialGradient><radialGradient cx="-19.94" cy="86.88" gradientTransform="matrix(.48794 1.00324 -.59468 .28923 46.576 91.639)" gradientUnits="userSpaceOnUse" r="24.531" xlink:href="#a"/><radialGradient id="q" cx="-20.56" cy="95.804" gradientTransform="matrix(-.6172 .87568 -.54052 -.38096 18.667 153.223)" gradientUnits="userSpaceOnUse" r="24.531" xlink:href="#a"/><radialGradient id="r" cx="306.084" cy="280.371" gradientTransform="matrix(1 .00387 -.00497 1.28296 1.36 -76.945)" gradientUnits="userSpaceOnUse" r="89.66"><stop offset="0" stop-color="#d3f3f4"/><stop offset="1" stop-color="#d3f3f4" stop-opacity="0"/></radialGradient><linearGradient id="s" gradientUnits="userSpaceOnUse" x1="254.373" x2="260.752" xlink:href="#b" y1="402.088" y2="453.302"/><linearGradient id="t" gradientUnits="userSpaceOnUse" x1="315.556" x2="374.968" xlink:href="#b" y1="396.087" y2="369.812"/><radialGradient id="u" cx="245.94" cy="194.134" gradientTransform="matrix(.40323 -.1313 .2519 .77359 91.422 115.242)" gradientUnits="userSpaceOnUse" r="24.16"><stop offset="0" stop-color="#000007"/><stop offset="1" stop-color="#667c87" stop-opacity=".088"/></radialGradient><radialGradient id="v" cx="137.675" cy="172.746" gradientTransform="matrix(.5248 .19028 -.21567 .59484 102.68 44.432)" gradientUnits="userSpaceOnUse" r="23.087"><stop offset="0" stop-color="#fff"/><stop offset="1" stop-color="#eac5d5" stop-opacity="0"/></radialGradient><radialGradient id="w" cx="250.088" cy="192.86" gradientTransform="matrix(.79425 -.20299 .20145 .78823 18.7 154.392)" gradientUnits="userSpaceOnUse" r="24.16"><stop offset="0" stop-color="#000007" stop-opacity=".619"/><stop offset="1" stop-color="#667c87" stop-opacity=".088"/></radialGradient><filter id="x" color-interpolation-filters="sRGB" height="1.273" width="1.043" x="-.022" y="-.137"><feGaussianBlur stdDeviation="1.918"/></filter><radialGradient id="y" cx="-38.56" cy="61.573" gradientTransform="matrix(.43893 -.8274 .68956 .36582 235.988 210.21)" gradientUnits="userSpaceOnUse" r="24.531" xlink:href="#c"/><g transform="matrix(1.72303 0 0 1.72303 -169.942 -229.944)"><path d="m277.43 445.63a69.279 11.494 0 0 0 -69.279 11.495 69.279 11.494 0 0 0 .096.443 51.96 11.651 0 0 0 -26.232 10.106 51.96 11.651 0 0 0 51.959 11.652 51.96 11.651 0 0 0 51.77-10.805 69.279 11.494 0 0 0 54.36-6.53 51.96 3.936 0 0 0 3.772.015 51.96 3.936 0 0 0 51.959-3.936 51.96 3.936 0 0 0 -51.537-3.936 69.279 11.494 0 0 0 -66.867-8.503z" fill="#25222e" fill-opacity=".301" filter="url(#x)"/><path d="m272.125 133.68c-43.224.04-78.593 31.334-79.869 70.664-17.282 11.941-8.018 28.98-5.267 39.03 1.246 4.465 3.392 7.715 6.047 10.224 2.505 13.397 5.054 26.775 5.054 31.203 0 5.088.71 22.911 1.332 38.094-8.256 9.84-12.662 21.317-12.69 33.049.001 33.634 35.243 60.9 78.716 60.9s78.714-27.266 78.715-60.9c-.043-23.336-17.316-44.602-44.475-54.752-5.273-4.688-4.947-7.143-3.9-14.99 1.26-9.448 11.81-8.82 22.673-17.952 9.83-8.262 14.293-14.067 15.094-15.148 11.985-13.082 18.552-29.574 18.559-46.608 0-40.214-35.812-72.815-79.989-72.814z" fill="url(#r)" opacity=".77"/><ellipse cx="293.415" cy="99.022" fill="#667c87" rx="31.788" ry="20.765" transform="matrix(.87779 .47905 -.5024 .86464 0 0)"/><path d="m158.114 238.53c-.787-1.732-5.353-5.196-5.382-12.54-.029-7.345.887-16.427 4.415-10.084 4.056 7.292 1.576 13.396 14.426 13.589.157 1.417-13.459 9.035-13.459 9.035z" fill="#d1c1aa"/><path d="m330.252 380.463s14.496-1.755 24.853.768c10.356 2.522 18.263 13.145 22.82 3.194 2.38-6.077-9.278-8.264-9.278-8.264s.086-1.037 5.226-2.015c5.141-.978 8.326-4.317 3.885-9.069-4.442-4.752-23.088 2.34-31.041 6.02-7.954 3.68-16.465 9.366-16.465 9.366z" fill="#d5ad67"/><path d="m330.252 380.463s14.496-1.755 24.853.768c10.356 2.522 18.263 13.145 22.82 3.194 2.38-6.077-9.278-8.264-9.278-8.264s.086-1.037 5.226-2.015c5.141-.978 8.326-4.317 3.885-9.069-4.442-4.752-23.088 2.34-31.041 6.02-7.954 3.68-16.465 9.366-16.465 9.366z" fill="url(#t)"/><path d="m260.706 412.045s2.819 14.327 1.066 24.842c-1.752 10.514-11.763 19.182-1.503 22.994 6.236 1.924 7.558-9.863 7.558-9.863s1.04.01 2.394 5.064c1.354 5.055 4.919 7.985 9.33 3.206 4.412-4.78-4.035-22.853-8.29-30.513-4.256-7.661-10.555-15.73-10.555-15.73z" fill="#d5ad67"/><path d="m150.033 345.13c-.63.472-1.876-1.806-8.764 5.414s-16.387 18.802-16.322 33.656c.054 12.15 15.684 17.609 23.664 10.475 7.98-7.133-2.057-21.124 8.544-38.846 1.562-3.038-7.122-10.698-7.122-10.698z" fill="#a98763"/><path d="m150.033 345.13c-.63.472-1.876-1.806-8.764 5.414s-16.387 18.802-16.322 33.656c.054 12.15 15.684 17.609 23.664 10.475 7.98-7.133-2.057-21.124 8.544-38.846 1.562-3.038-7.122-10.698-7.122-10.698z" fill="url(#i)"/><path d="m184.886 286.75s-7.576 13.45-18.334 16.804c-10.757 3.355-15.684-2.624-19.433 3.016-3.75 5.64-3.501 13.036 2.417 15.673 5.917 2.637 12.265 4 17.819.504 5.554-3.495 16.592-17.256 16.707-18.52.115-1.265.824-17.477.824-17.477z" fill="#b97f53"/><path d="m260.706 412.045s2.819 14.327 1.066 24.842c-1.752 10.514-11.763 19.182-1.503 22.994 6.236 1.924 7.558-9.863 7.558-9.863s1.04.01 2.394 5.064c1.354 5.055 4.919 7.985 9.33 3.206 4.412-4.78-4.035-22.853-8.29-30.513-4.256-7.661-10.555-15.73-10.555-15.73z" fill="url(#s)"/><path d="m269.986 133.453c-43.224.041-78.593 31.334-79.869 70.664-17.283 11.941-8.018 28.98-5.267 39.03 1.246 4.465 3.392 7.715 6.046 10.224 2.506 13.397 5.055 26.776 5.055 31.203 0 5.088.71 22.912 1.332 38.094-8.256 9.84-12.662 21.317-12.69 33.049 0 33.634 35.243 60.9 78.716 60.9 43.472 0 78.714-27.266 78.714-60.9-.042-23.336-17.315-44.601-44.474-54.752-5.273-4.688-4.947-7.143-3.9-14.99 1.26-9.448 11.81-8.82 22.673-17.952 9.83-8.262 14.293-14.066 15.094-15.148 11.984-13.082 18.552-29.574 18.559-46.607 0-40.215-35.812-72.815-79.989-72.815z" fill="#667c87"/><path d="m259.481 293.217s-23.686 20.757 3.464 29.6c66.318 21.602 67.738 69.396 4.2 78.272-19.944 3.55-54.584-3.954-47.657-45.521 6.928-41.568 6.299-55.423 17.635-61.092 11.337-5.668 22.358-1.26 22.358-1.26z" fill="#c4d7d6"/><path d="m269.986 133.453c-43.224.041-78.593 31.334-79.869 70.664-17.283 11.941-8.018 28.98-5.267 39.03 1.246 4.465 3.392 7.715 6.046 10.224 2.506 13.397 5.055 26.776 5.055 31.203 0 5.088.71 22.912 1.332 38.094-8.256 9.84-12.662 21.317-12.69 33.049 0 33.634 35.243 60.9 78.716 60.9 43.472 0 78.714-27.266 78.714-60.9-.042-23.336-17.315-44.601-44.474-54.752-5.273-4.688-4.947-7.143-3.9-14.99 1.26-9.448 11.81-8.82 22.673-17.952 9.83-8.262 14.293-14.066 15.094-15.148 11.984-13.082 18.552-29.574 18.559-46.607 0-40.215-35.812-72.815-79.989-72.815z" fill="url(#j)"/><path d="m198.012 174.672c-4.739 8.942-7.553 18.9-7.895 29.445-11.27 2.255-16.59 9.942-5.267 39.03 1.246 4.465 3.392 7.715 6.046 10.224 2.506 13.397 5.055 26.776 5.055 31.203 0 3.19.299 11.649.66 21.063 32.584-4.748 56.757-32.67 56.79-65.598-.038-32.386-23.448-60.014-55.39-65.367z" fill="url(#k)"/><path d="m184.886 286.75s-7.576 13.45-18.334 16.804c-10.757 3.355-15.684-2.624-19.433 3.016-3.75 5.64-3.501 13.036 2.417 15.673 5.917 2.637 12.265 4 17.819.504 5.554-3.495 16.592-17.256 16.707-18.52.115-1.265.824-17.477.824-17.477z" fill="url(#m)"/><path d="m269.986 133.453c-43.224.041-78.593 31.334-79.869 70.664-17.283 11.941-8.018 28.98-5.267 39.03 1.246 4.465 3.392 7.715 6.046 10.224 2.506 13.397 5.055 26.776 5.055 31.203 0 5.088.71 22.912 1.332 38.094-8.256 9.84-12.662 21.317-12.69 33.049 0 33.634 35.243 60.9 78.716 60.9 43.472 0 78.714-27.266 78.714-60.9-.042-23.336-17.315-44.601-44.474-54.752-5.273-4.688-4.947-7.143-3.9-14.99 1.26-9.448 11.81-8.82 22.673-17.952 9.83-8.262 14.293-14.066 15.094-15.148 11.984-13.082 18.552-29.574 18.559-46.607 0-40.215-35.812-72.815-79.989-72.815z" fill="url(#o)"/><path d="m204.19 238.926s21.153 16.255 28.947 28.725c7.793 12.47 22.6 41.862-3.452 75.93-14.714 19.242-25.39 31.405-48.097 32.622-18.704 1.002-27.203-.02-37.52-13.249-6.918-8.871-11.612-28.316 2.45-40.972 14.061-12.655 29.615-20.708 34.736-28.947 5.122-8.239 10.689-12.692 4.231-22.49-6.457-9.797-8.684-18.259-7.793-21.153.89-2.895 26.497-10.466 26.497-10.466z" fill="#b99763"/><path d="m167.671 367.185c2.85 11.18 11.527 28.717 19.876 36.733 8.35 8.017 29.13 2.766 28.212-10.26-.917-13.027-15.723-14.646-23.436-31.898-1.56-.223-24.652 5.425-24.652 5.425z" fill="#b99763"/><path d="m223.172 263.328c-4.172 2.283 3.78 28.813 2.52 40.78-1.26 11.966-1.984 30.545 4.015 41.314 3.742 6.718 23.548-1.421 28.235-9.766s-21.555-62.02-23.15-66.242c-1.595-4.221-7.447-8.37-11.62-6.086z" fill="#d3ad7e"/><path d="m194.926 272.59c.63.473 5.196 2.52 5.983 6.77.787 4.252-5.476 14.715-10.672 18.18-5.196 3.463-15.142 11.016-23.96 18.731-8.817 7.715-25.017 19.768-21.71 35.828 2.847 13.942 14.335 21.63 27.213 24.725" fill="none" stroke="#977f60" stroke-width=".756"/><path d="m204.19 238.926s-25.608 7.572-26.499 10.467c-.89 2.894 1.336 11.354 7.793 21.152 6.458 9.797.891 14.251-4.23 22.49-5.122 8.239-20.675 16.292-34.736 28.947-7.804 7.023-9.826 16.136-8.903 24.373a92.965 91.073 0 0 0 22.373 2.793 92.965 91.073 0 0 0 84.022-52.351c-1.545-12.824-7.048-23.027-10.873-29.147-7.794-12.47-28.948-28.724-28.948-28.724z" fill="url(#h)"/><path d="m175.13 280.343c-1.834 8.083-4.826 12.34 3.23 17.257 8.055 4.917 9.908 8.795 17.48 8.573 7.57-.223 9.24-1.893 8.906-2.784-.334-.89-.557-2.672-5.455-13.471-4.9-10.8-13.309-20.03-13.532-19.25-.222.78-10.628 9.675-10.628 9.675z" fill="#667387"/><path d="m175.13 280.343c-1.834 8.083-4.826 12.34 3.23 17.257 8.055 4.917 9.908 8.795 17.48 8.573 7.57-.223 9.24-1.893 8.906-2.784-.334-.89-.557-2.672-5.455-13.471-4.9-10.8-13.309-20.03-13.532-19.25-.222.78-10.628 9.675-10.628 9.675z" fill="url(#f)"/><path d="m184.097 228.394c-10.476-2.05-36.151 4.7-43.332 7.78-7.18 3.08-24.728 10.06-26.969 14.65s-5.872 28.817 4.635 38.152c10.508 9.336 4.28 24.784 20.09 16.723 15.811-8.062 43.797-20.634 52.887-27.006 9.09-6.371 18.382-13.273 19.51-19.97 1.129-6.698 9.852-3.207 3.067-11.438-6.784-8.232-19.413-16.84-29.888-18.891z" fill="#b99763"/><path d="m179.521 228.014c-12.03-.04-32.472 5.465-38.755 8.16-7.18 3.08-24.728 10.06-26.97 14.65-2.24 4.59-5.872 28.817 4.636 38.153 3.365 2.99 7.015 5.81 10.937 8.01 4.836-3.36 24.613-17.162 39.861-28.891 17.369-13.36 24.91-23.218 28.688-32.035a9.236 9.236 0 0 0 .559-1.752c-4.757-2.846-9.777-5.013-14.381-5.914-1.31-.257-2.856-.376-4.575-.381z" fill="#a5815f"/><ellipse cx="253.833" cy="256.802" fill="url(#w)" opacity=".636" rx="24.16" ry="25.162"/><path d="m269.986 133.453c-43.224.041-78.593 31.334-79.869 70.664-17.283 11.941-8.018 28.98-5.267 39.03 1.246 4.465 3.392 7.715 6.046 10.224 2.506 13.397 5.055 26.776 5.055 31.203 0 5.088.71 22.912 1.332 38.094-8.256 9.84-12.662 21.317-12.69 33.049 0 33.634 35.243 60.9 78.716 60.9 43.472 0 78.714-27.266 78.714-60.9-.042-23.336-17.315-44.601-44.474-54.752-5.273-4.688-4.947-7.143-3.9-14.99 1.26-9.448 11.81-8.82 22.673-17.952 9.83-8.262 14.293-14.066 15.094-15.148 11.984-13.082 18.552-29.574 18.559-46.607 0-40.215-35.812-72.815-79.989-72.815z" fill="url(#p)"/><path d="m185.006 228.642c14.604 2.125 9.585 5.24 22.496 8.862 12.911 3.621 22.693-1.6 21.119 4.856-1.575 6.455-12.006 12.95-21.453 10.903s-22.469-14.544-25.193-16.296c.532-.886 3.031-8.325 3.031-8.325z" fill="#bc8863"/><path d="m171.041 229.676c.945-4.015 14.171-2.756 17.714-6.574 6.088-6.562 5.944-14.092 8.463-9.211 2.52 4.881 2.48 15.43-3.543 19.091-4.582 2.785-13.068 4.487-16.414 3.503s-7.164-2.794-6.22-6.81z" fill="#d1c1aa"/><path d="m222.206 204.092c-2.993-1.809-6.991-1.475-10.562.88 2.348.995 4.942 2.34 7.488 3.885 2.662 1.617 5.155 3.38 7.167 5.07.462-4.279-1.09-8.006-4.093-9.835zm77.208 43.752c2.987 1.82 4.536 5.521 4.095 9.775-1.966-1.623-4.358-3.303-6.902-4.849-2.664-1.615-5.378-3.013-7.806-4.018 3.583-2.384 7.605-2.728 10.613-.908z" fill="#311d32"/><path d="m253.577 265.426c-1.102.945-37.08 16.454-48.732 18.973-11.651 2.52-22.23-.803-15.775 7.7 6.455 8.502 18.452 14.029 36.56 14.659 18.106.63 49.282-1.575 56.84-9.92 7.557-8.345 7.085-10.55 7.085-10.55s11.966-14.013.078-24.326c-11.107-9.636-36.056 3.464-36.056 3.464z" fill="#667c87"/><path d="m107.996 248.501s7.18-1.225 17.869-5.956c10.688-4.732 17.925-7.404 17.925-7.404l6.958.167s8.24 29.838 7.794 30.506c-.445.668-21.71 15.81-21.71 15.81s-17.313-24.884-17.425-25.107c-.11-.223-7.18-6.346-8.016-6.346-.835 0-3.395-1.67-3.395-1.67z" fill="#a5815f"/><path d="m111.332 247.869c-.945.315-10.716.763-10.943 7.603-.227 6.855.021 11.85 6.95 26.809 6.927 14.958 11.728 21.26 22.193 26.93 10.495-2.752 9.802-4.016 9.802-4.016s7.168-15.859-2.437-34.123c-9.604-18.265-25.565-23.203-25.565-23.203z" fill="#ae745b"/><ellipse cx="-20.383" cy="303.755" fill="#89675b" rx="13.185" ry="31.58" transform="matrix(.9078 -.41942 .4465 .89478 0 0)"/><ellipse cx="250.444" cy="195.501" fill="#462d14" rx="2.831" ry="6.889" transform="matrix(.95979 .28073 -.33258 .94308 0 0)"/><ellipse cx="-20.383" cy="303.755" fill="url(#g)" rx="13.185" ry="31.58" transform="matrix(.9078 -.41942 .4465 .89478 0 0)"/><ellipse cx="4.971" cy="307.332" fill="#462d14" rx="2.346" ry="10.705" transform="matrix(.93534 -.35376 .38098 .92458 0 0)"/><ellipse cx="-37.724" cy="303.511" fill="#462d14" rx="2.138" ry="10.214" transform="matrix(.8559 -.51714 .47577 .87957 0 0)"/><path d="m156.482 231.393c-.315-.366-.553-1.834.028-3.169.566-1.302 3.992-4.455 3.992-4.455s-1.641 2.448-1.288 4.497c.197 1.141 1.054 1.03 1.054 1.03s-.126-1.421.292-2.493c.417-1.072 2.299-1.659 2.299-1.659s-.994 1.52-.695 2.452 1.68 1.193 1.556 1.193c0 0-1.591-1.123.847-2.944 0 0 .02 2.39 2.102 2.838 2.082.449 3.563.167 3.563.167s-3.451 3.73-3.618 4.008c-.167.279-6.012 1.949-6.012 1.949l-3.786-1.058s-1.447-.668-1.837-1.002-.006-3.142-.006-3.142c.512 1.456 1.508 1.788 1.508 1.788z" fill="#a5815f"/><path d="m153.643 277.448 2.338 3.674s-.557-2.226 0 0" fill="none" stroke="#a5815f" stroke-linecap="round"/><path d="m155.794 275.794 2.338 3.006" fill="none" stroke="#90684e" stroke-linecap="round"/><path d="m158.57 274.197 2.115 2.672" fill="none" stroke="#90684e" stroke-linecap="round" stroke-width="1.002"/><path d="m167.671 367.185c2.85 11.18 11.527 28.717 19.876 36.733 8.35 8.017 29.13 2.766 28.212-10.26-.917-13.027-15.723-14.646-23.436-31.898-1.56-.223-24.652 5.425-24.652 5.425z" fill="url(#l)"/><g fill="none" stroke-linecap="round"><path d="m176.26 363.73 1.354 3.56" stroke="#a37b4e"/><path d="m179.382 363.018 1.239 3.175" stroke="#a37b4e" stroke-width="1.002"/><path d="m221.037 263.102 2.338 3.006" stroke="#ad7e6a"/><path d="m223.812 261.505 2.116 2.672" stroke="#ad7e6a" stroke-width="1.002"/></g><ellipse cx="293.415" cy="99.022" fill="url(#n)" rx="31.788" ry="20.765" transform="matrix(.87779 .47905 -.5024 .86464 0 0)"/><ellipse cx="240.607" cy="232.239" fill="url(#u)" opacity=".636" rx="24.16" ry="25.162"/><path d="m261.536 225.625c-4.112.922-8.647 1.94-12.591 1.4-5.006-.63-7.713-3.89-10.831-1.265-3.118 2.624-5.113 9.869-1.588 18.04 2.034 4.715 4.708 7.526 7.729 9.064 2.678 2.078 6.36 3.3 11.494 3.13 8.894-.291 14.598-5.182 15.644-9.121 1.046-3.94-3.057-5-5.759-9.26-2.17-3.338-3.18-7.875-4.098-11.988z" fill="#d5ad67"/><g fill="url(#q)" opacity=".491" transform="matrix(.68933661 .43733132 -.43733132 .68933661 308.088613 167.555639)"><path d="m-10.045 90.613c-3.648 3.653-7.67 7.682-12.105 9.711-5.59 2.634-10.53 1.039-12.034 5.799-1.503 4.76 1.189 13.563 10.196 19.701 5.199 3.543 9.81 4.696 13.943 4.305 4.134.391 8.744-.762 13.943-4.305 9.008-6.138 11.699-14.94 10.196-19.701-1.503-4.76-6.443-3.165-12.033-5.799-4.435-2.03-8.458-6.058-12.106-9.71z"/><path d="m-10.045 90.613c-3.648 3.653-7.67 7.682-12.105 9.711-5.59 2.634-10.53 1.039-12.034 5.799-1.503 4.76 1.189 13.563 10.196 19.701 5.199 3.543 9.81 4.696 13.943 4.305 4.134.391 8.744-.762 13.943-4.305 9.008-6.138 11.699-14.94 10.196-19.701-1.503-4.76-6.443-3.165-12.033-5.799-4.435-2.03-8.458-6.058-12.106-9.71z"/><path d="m-10.045 90.613c-3.648 3.653-7.67 7.682-12.105 9.711-5.59 2.634-10.53 1.039-12.034 5.799-1.503 4.76 1.189 13.563 10.196 19.701 5.199 3.543 9.81 4.696 13.943 4.305 4.134.391 8.744-.762 13.943-4.305 9.008-6.138 11.699-14.94 10.196-19.701-1.503-4.76-6.443-3.165-12.033-5.799-4.435-2.03-8.458-6.058-12.106-9.71z"/><path d="m-10.045 90.613c-3.648 3.653-7.67 7.682-12.105 9.711-5.59 2.634-10.53 1.039-12.034 5.799-1.503 4.76 1.189 13.563 10.196 19.701 5.199 3.543 9.81 4.696 13.943 4.305 4.134.391 8.744-.762 13.943-4.305 9.008-6.138 11.699-14.94 10.196-19.701-1.503-4.76-6.443-3.165-12.033-5.799-4.435-2.03-8.458-6.058-12.106-9.71z"/><path d="m-10.045 90.613c-3.648 3.653-7.67 7.682-12.105 9.711-5.59 2.634-10.53 1.039-12.034 5.799-1.503 4.76 1.189 13.563 10.196 19.701 5.199 3.543 9.81 4.696 13.943 4.305 4.134.391 8.744-.762 13.943-4.305 9.008-6.138 11.699-14.94 10.196-19.701-1.503-4.76-6.443-3.165-12.033-5.799-4.435-2.03-8.458-6.058-12.106-9.71z"/><path d="m-10.045 90.613c-3.648 3.653-7.67 7.682-12.105 9.711-5.59 2.634-10.53 1.039-12.034 5.799-1.503 4.76 1.189 13.563 10.196 19.701 5.199 3.543 9.81 4.696 13.943 4.305 4.134.391 8.744-.762 13.943-4.305 9.008-6.138 11.699-14.94 10.196-19.701-1.503-4.76-6.443-3.165-12.033-5.799-4.435-2.03-8.458-6.058-12.106-9.71z"/><path d="m-10.045 90.613c-3.648 3.653-7.67 7.682-12.105 9.711-5.59 2.634-10.53 1.039-12.034 5.799-1.503 4.76 1.189 13.563 10.196 19.701 5.199 3.543 9.81 4.696 13.943 4.305 4.134.391 8.744-.762 13.943-4.305 9.008-6.138 11.699-14.94 10.196-19.701-1.503-4.76-6.443-3.165-12.033-5.799-4.435-2.03-8.458-6.058-12.106-9.71z"/><path d="m-10.045 90.613c-3.648 3.653-7.67 7.682-12.105 9.711-5.59 2.634-10.53 1.039-12.034 5.799-1.503 4.76 1.189 13.563 10.196 19.701 5.199 3.543 9.81 4.696 13.943 4.305 4.134.391 8.744-.762 13.943-4.305 9.008-6.138 11.699-14.94 10.196-19.701-1.503-4.76-6.443-3.165-12.033-5.799-4.435-2.03-8.458-6.058-12.106-9.71z"/></g><path d="m239.091 227.675s.96 14.755 8.567 19.783c7.606 5.027 21.655-.61 21.655-.61" fill="none" stroke="#956335" stroke-linecap="round" stroke-width=".816"/><path d="m155.837 158.758c6.273-2.407 13.273.633 15.635 6.79.058.155.11.313.161.47l.007-.001s.036.126.04.136c2.722 8.924-.423 13.198-2.96 18.79-5.074 8.486-2.604 13.97-2.604 13.97-19.072-1.48-34.348-5.231-38.78-16.43-2.362-6.158.808-13.1 7.081-15.507 4.826-1.845 10.269-.499 13.576 3.36-.123-5.08 3.022-9.723 7.843-11.579z" fill="#eac5d5"/><path d="m239.316 226.734a1.948 1.893 0 0 0 -1.949 1.893 1.948 1.893 0 0 0 .176.781 1.948 1.893 0 0 1 1.94-1.726 1.948 1.893 0 0 1 1.773 1.111 1.948 1.893 0 0 0 .008-.166 1.948 1.893 0 0 0 -1.947-1.893zm30.561 19.317a1.948 1.893 54.35 0 1 -.402 2.687 1.948 1.893 54.35 0 1 -.737.313 1.948 1.893 54.35 0 0 .273-2.582 1.948 1.893 54.35 0 0 -1.937-.794 1.948 1.893 54.35 0 1 .13-.103 1.948 1.893 54.35 0 1 2.673.48z" fill="#956335"/><path d="m155.837 158.758c6.273-2.407 13.273.633 15.635 6.79.058.155.11.313.161.47l.007-.001s.036.126.04.136c2.722 8.924-.423 13.198-2.96 18.79-5.074 8.486-2.604 13.97-2.604 13.97-19.072-1.48-34.348-5.231-38.78-16.43-2.362-6.158.808-13.1 7.081-15.507 4.826-1.845 10.269-.499 13.576 3.36-.123-5.08 3.022-9.723 7.843-11.579z" fill="url(#v)"/><path d="m261.536 225.625c-4.112.922-8.647 1.94-12.591 1.4-5.006-.63-7.713-3.89-10.831-1.265-3.118 2.624-5.113 9.869-1.588 18.04 2.034 4.715 4.708 7.526 7.729 9.064 2.678 2.078 6.36 3.3 11.494 3.13 8.894-.291 14.598-5.182 15.644-9.121 1.046-3.94-3.057-5-5.759-9.26-2.17-3.338-3.18-7.875-4.098-11.988z" fill="url(#y)"/></g></svg>