<svg width="300" height="84" xmlns="http://www.w3.org/2000/svg" xmlns:xlink="http://www.w3.org/1999/xlink"><defs><path id="a" d="M0 0.233L299.225 0.233 299.225 84 0 84z"/></defs><g fill="none" fill-rule="evenodd"><path d="M0 .233V84H299.225V.234H0zm5.655 5.655H293.57v72.458H5.655V5.888z" fill="#30F"/><path d="M46.191 55.328c1.883 0 2.952-.204 3.512-2.036.254-.866.458-2.189.509-3.97.05-1.782.05-4.175.05-7.229 0-3.054 0-5.447-.05-7.228-.051-1.73-.255-3.054-.509-3.97-.56-1.782-1.629-1.985-3.512-1.985v26.418zm-5.498 5.496v-37.41h4.327c5.09 0 7.839 1.016 9.315 3.867 1.425 2.85 1.629 7.533 1.629 14.863 0 7.33-.204 11.962-1.629 14.812-1.476 2.851-4.225 3.868-9.315 3.868h-4.327z" fill="#30F"/><mask id="b" fill="#fff"><use xlink:href="#a"/></mask><path fill="#30F" mask="url(#b)" d="M64.716 23.413L70.214 23.413 70.214 60.825 64.716 60.825z"/><path fill="#30F" mask="url(#b)" d="M102.465 23.413L107.963 23.413 107.963 60.825 102.465 60.825z"/><path d="M122.28 55.328c1.883 0 2.952-.204 3.512-2.036.254-.866.458-2.189.509-3.97.05-1.782.05-4.175.05-7.229 0-3.054 0-5.447-.05-7.228-.051-1.73-.255-3.054-.51-3.97-.56-1.782-1.628-1.985-3.511-1.985v26.418zm-5.498 5.496v-37.41h4.327c5.09 0 7.839 1.016 9.315 3.867 1.425 2.85 1.629 7.533 1.629 14.863 0 7.33-.204 11.962-1.63 14.812-1.475 2.851-4.224 3.868-9.314 3.868h-4.327z" fill="#30F" mask="url(#b)"/><path fill="#30F" mask="url(#b)" d="M140.8047 23.4127L153.3777 23.4127 153.3777 29.0627 146.3027 29.0627 146.3027 38.8857 151.3917 38.8857 151.3917 44.8927 146.3027 44.8927 146.3027 55.1747 153.3777 55.1747 153.3777 60.8247 140.8047 60.8247z"/><path fill="#30F" mask="url(#b)" d="M171.2908 60.8244L167.7788 37.3094 167.5748 35.7304 167.2698 35.7304 167.2698 60.8244 162.1788 60.8244 162.1788 23.4124 168.8978 23.4124 172.1558 40.5154 172.4108 42.5004 172.5118 42.5004 172.7668 40.5154 176.0238 23.4124 182.7428 23.4124 182.7428 60.8244 177.6538 60.8244 177.6538 35.7304 177.3478 35.7304 177.1438 37.3094 173.6328 60.8244z"/><path fill="#30F" mask="url(#b)" d="M200.4679 23.4127L205.9659 23.4127 205.9659 55.7357 213.2449 55.7357 213.2449 60.8247 200.4679 60.8247z"/><path d="M228.87 35.578l-.154-.966h-.305l-.153.966-1.578 11.809h3.767l-1.578-11.81zm-9.316 25.247l5.65-37.412h6.72l5.65 37.412h-5.346l-1.017-7.635h-5.295l-1.018 7.635h-5.344zm29.667-5.447c.458 0 1.527.102 2.443-.56.916-.661 1.63-2.136 1.63-5.192 0-3.054-.714-4.53-1.63-5.191-.916-.661-1.985-.561-2.443-.561v11.504zm0-16.542c.458 0 1.527.05 2.443-.56.916-.61 1.63-1.833 1.63-4.428 0-2.597-.714-3.818-1.63-4.43-.916-.61-1.985-.558-2.443-.558v9.976zm-5.498 21.989V23.413h4.836c3.258 0 5.803.61 7.482 2.188 1.68 1.578 2.546 4.022 2.546 7.737 0 1.78-.153 3.105-.713 4.328-.56 1.22-1.425 2.239-2.698 3.41 1.374.763 2.392 2.188 3.207 4.58.407 1.172.611 2.699.611 4.582 0 2.8-.51 5.293-1.782 7.228-1.272 1.934-3.46 3.207-6.719 3.359h-6.77zM93.677 36.85v-5.752c-.051-1.476-.356-2.85-.916-4.021-.458-1.018-1.171-2.036-2.189-2.799-1.018-.763-2.393-1.272-4.225-1.272-1.832 0-3.258.509-4.276 1.273-1.017.762-1.679 1.78-2.138 2.797-.56 1.171-.865 2.546-.916 4.023v22.04c.051 1.475.356 2.85.916 4.021.459 1.018 1.121 2.036 2.138 2.799 1.018.763 2.444 1.272 4.276 1.272 1.832 0 3.207-.509 4.225-1.273 1.018-.762 1.731-1.78 2.189-2.797.56-1.172.865-2.547.916-4.023V42.197h-6.985v4.632h1.487V53.138c0 1.02-.203 1.732-.712 2.342-.255.254-.662.408-1.12.408-.967 0-1.425-.713-1.629-1.374-.153-.408-.203-.867-.203-1.376V31.1c0-.51.05-.968.203-1.375.204-.662.662-1.375 1.629-1.375.458 0 .865.154 1.12.409.509.61.712 1.322.712 2.34v5.752h5.498z" fill="#30F" mask="url(#b)"/></g></svg>