<svg xmlns="http://www.w3.org/2000/svg" width="407.116" height="516.247"><defs><clipPath id="a"><path d="M0 551.584h595.28V0H0z"/></clipPath></defs><g clip-path="url(#a)" transform="matrix(1.33333 0 0 -1.33333 -110.148 618.659)"><path d="M387.448 229.477c0-84.04-68.126-152.169-152.169-152.169-84.042 0-152.168 68.128-152.168 152.17 0 84.043 68.126 152.17 152.168 152.17 84.043 0 152.17-68.127 152.17-152.17" fill="#fccb3f"/><path d="M387.448 229.477c0-84.04-68.126-152.169-152.169-152.169-84.042 0-152.168 68.128-152.168 152.17 0 84.043 68.126 152.17 152.168 152.17 84.043 0 152.17-68.127 152.17-152.17z" fill="none" stroke="#ffffff" stroke-miterlimit="10"/><path d="M278.165 328.857l-80.594-11.706 1.281-7.756 74.821-7.722z" fill="#e96946"/><path d="M270.137 280.275l-65.53-5.702 1.667-10.09 61.018-1.426z" fill="#e96946"/><path d="M261.468 227.813l1.05 6.352-52.871 9.908 3.852-23.314z" fill="#e96946"/><path d="M260.44 221.597l-45.963-6.758 2.8-16.954 41.79 15.402z" fill="#e96946"/><path d="M257.942 206.477l-39.668-14.62 1.223-7.403 34.263-3.287z" fill="#e96946"/><path d="M252.78 175.234l-32.27 3.095 2.501-15.142 28.607 5.02z" fill="#e96946"/><path d="M250.581 161.933l-26.59-4.667 3.426-20.74L248.23 147.7z" fill="#e96946"/><path d="M233.978 96.822c.516-2.663 5.33-2.663 5.844 0l2.966 17.952-12.1 1.96z" fill="#e96946"/><path d="M246.994 140.227l-18.543-9.956 1.205-7.292 14.11-2.285z" fill="#e96946"/><path d="M266.304 257.079l-59.034 1.38 1.336-8.087 54.89-10.286z" fill="#e96946"/><path d="M272.693 295.743l-72.826 7.516 3.759-22.748 67.52 5.875z" fill="#e96946"/><path d="M266.984 347.08h-60.168c-6.673 0-12.083-5.712-12.083-12.757l1.86-11.25 82.44 11.973c-.357 6.707-5.607 12.033-12.049 12.033" fill="#e96946"/><path d="M197.129 413.357l7.458 24.64c19.973-28.67 20.529-82.496 20.529-82.496" fill="none" stroke="#89af38" stroke-width="6" stroke-linecap="round" stroke-linejoin="round" stroke-miterlimit="10"/><path d="M227.144 431.036l-22.557 6.962" fill="none" stroke="#89af38" stroke-width="6" stroke-linecap="round" stroke-linejoin="round" stroke-miterlimit="10"/><path d="M228.451 452.913l37.854 8.04c-18.536-13.409-27.024-40.236-28.544-63.634-1.417-21.806-.9-41.818-.9-41.818" fill="none" stroke="#89af38" stroke-width="6" stroke-linecap="round" stroke-linejoin="round" stroke-miterlimit="10"/><path d="M270.137 427.58l-3.832 33.372" fill="none" stroke="#89af38" stroke-width="6" stroke-linecap="round" stroke-linejoin="round" stroke-miterlimit="10"/><path d="M283.088 408.227c-37.067-7.055-34.284-52.726-34.284-52.726m34.284 52.726l-4.923-16.5" fill="none" stroke="#89af38" stroke-width="6" stroke-linecap="round" stroke-linejoin="round" stroke-miterlimit="10"/><path d="M283.11 408.227l-17.188 7.335" fill="none" stroke="#89af38" stroke-width="6" stroke-linecap="round" stroke-linejoin="round" stroke-miterlimit="10"/></g></svg>