<svg xmlns="http://www.w3.org/2000/svg" width="524" height="166" viewBox="0 0 0 0 524 0 166"><path d="M103.1 63c4.2 4.2 7 9.7 7.9 15.6l12.1-12.1 30.4-30.4L130 12.6 99.6 42.9V0H66.4v60.1c11.3-8.1 26.8-6.9 36.7 2.9z" fill="#03D1FF"/><path d="M111 87.5c-2.4 15.4-16.9 26-32.3 23.5-4.4-.7-8.6-2.4-12.2-5.1V166h33.2v-42.9l30.4 30.4 23.5-23.5-30.4-30.4L111 87.5z" fill="#00D1FF"/><path d="M111 87.5c-2.5 15.4-17 26-32.5 23.5-15.4-2.5-26-17-23.5-32.5 1-5.9 3.8-11.4 7.9-15.6 1.1-1.1 2.2-2 3.4-2.9 12.6-9.2 30.3-6.4 39.5 6.2 2.6 3.6 4.4 7.8 5.1 12.3L123 66.4 153.4 36 130 12.6 99.6 42.9V0H66.4v42.9L36.1 12.6 12.6 36.1 43 66.5H0v33.2h42.9L12.6 130l23.5 23.5 30.4-30.4V166h33.2v-42.9l30.4 30.4 23.5-23.5-30.4-30.4L111 87.5zm-6.8-40.1l25.9-25.9L144.6 36l-25.9 26-4.9 4.9c-1.7-3.1-3.7-5.9-6.2-8.4s-5.3-4.6-8.3-6.2l4.9-4.9zm-10.9-41V50c-6.7-2-13.8-2-20.5 0V6.3s20.5 0 20.5.1zM21.6 36.1l14.5-14.5 24 24V57c-.6.5-1.1 1-1.6 1.5-2.5 2.5-4.6 5.3-6.2 8.4L47.4 62 21.6 36.1zM6.4 93.3V72.8H50c-2 6.7-2 13.8 0 20.5H6.4zm53.7 27.2l-24.1 24L21.5 130l25.9-25.8 4.9-4.9c1.7 3.1 3.7 5.9 6.2 8.3.5.5 1 1 1.6 1.5v11.4zm33.2 2.6v36.6H72.7v-43.6c6.7 2 13.8 2 20.5 0l.1 7zm36.7 21.4l-25.8-25.9-4.9-4.9c6.2-3.3 11.2-8.3 14.5-14.5l4.9 4.9 25.9 25.9-14.6 14.5zm79.492-87.717q0 3.577-1.192 6.626-1.193 3.049-3.353 5.276-2.16 2.228-5.197 3.476-3.038 1.249-6.728 1.249t-6.738-1.249q-3.049-1.248-5.22-3.476-2.172-2.227-3.364-5.276-1.193-3.049-1.193-6.626 0-3.578 1.193-6.627 1.192-3.048 3.364-5.276 2.171-2.227 5.22-3.476 3.048-1.249 6.738-1.249 3.69 0 6.728 1.26 3.037 1.26 5.197 3.476 2.16 2.217 3.353 5.265 1.192 3.049 1.192 6.627zm-6.21 0q0-2.678-.708-4.804-.709-2.126-2.037-3.611-1.327-1.485-3.228-2.273-1.902-.787-4.287-.787t-4.297.787q-1.913.788-3.251 2.273-1.339 1.485-2.059 3.611-.72 2.126-.72 4.804 0 2.677.72 4.803.72 2.127 2.059 3.6 1.338 1.474 3.251 2.262 1.912.787 4.297.787t4.287-.787q1.901-.788 3.228-2.262 1.328-1.473 2.037-3.6.708-2.126.708-4.803zm10.665 23.805V49.965h3.398q.54 0 .922.248.383.247.495.765l.45 2.137q1.395-1.597 3.207-2.587 1.811-.99 4.241-.99 1.89 0 3.454.787 1.563.788 2.7 2.284 1.136 1.496 1.755 3.69.618 2.194.618 5.029 0 2.587-.697 4.792-.698 2.205-1.991 3.825-1.294 1.62-3.128 2.531-1.834.912-4.106.912-1.958 0-3.319-.597-1.361-.596-2.441-1.653v9.45zm10.8-26.663q-1.732 0-2.958.731-1.227.732-2.284 2.059v10.35q.945 1.17 2.059 1.631 1.113.462 2.396.462 1.26 0 2.284-.473 1.023-.472 1.732-1.44.709-.967 1.091-2.441.383-1.474.383-3.476 0-2.025-.326-3.432-.327-1.406-.934-2.283-.608-.878-1.474-1.283-.866-.405-1.969-.405zm24.188-4.32q2.182 0 4.016.698 1.834.697 3.161 2.036 1.328 1.339 2.07 3.285.743 1.946.743 4.444 0 .63-.056 1.046-.057.416-.203.652-.146.237-.394.338-.247.101-.63.101h-14.265q.248 3.555 1.913 5.22 1.665 1.665 4.41 1.665 1.35 0 2.329-.315.978-.315 1.71-.697.731-.383 1.282-.698.551-.315 1.069-.315.337 0 .585.135.247.135.427.383l1.62 2.025q-.922 1.08-2.07 1.811-1.147.731-2.396 1.17-1.249.439-2.542.619-1.294.18-2.509.18-2.408 0-4.478-.799t-3.6-2.363q-1.53-1.563-2.407-3.87-.878-2.306-.878-5.343 0-2.363.765-4.444t2.194-3.623q1.429-1.541 3.488-2.441 2.058-.9 4.646-.9zm.112 3.983q-2.43 0-3.802 1.372-1.373 1.373-1.755 3.893h10.44q0-1.08-.293-2.037-.292-.956-.9-1.676-.607-.72-1.53-1.136-.922-.416-2.16-.416zm14.4 19.462V49.965h3.398q1.08 0 1.417 1.013l.383 1.822q.697-.72 1.474-1.305.776-.585 1.642-1.012.866-.428 1.856-.653.99-.225 2.16-.225 1.89 0 3.353.641 1.462.642 2.441 1.8.979 1.159 1.485 2.768.506 1.609.506 3.544V73.05h-5.557V58.358q0-2.115-.979-3.274-.979-1.159-2.936-1.159-1.44 0-2.7.653-1.26.652-2.385 1.777V73.05zm40.838-18.9h1.417q.855 0 1.418-.236.562-.236.967-.754l8.978-11.362q.562-.72 1.181-1.002.619-.281 1.564-.281h5.22l-10.958 13.523q-.517.63-.99 1.057-.472.428-1.012.698.742.27 1.339.765.596.495 1.158 1.26l11.295 15.232h-5.355q-1.08 0-1.608-.304-.529-.303-.889-.888l-9.203-12.015q-.45-.585-1.012-.844-.563-.259-1.598-.259h-1.912v14.31h-6.053V40.493h6.053zm24.84 18.9V49.965h3.397q1.08 0 1.418 1.013l.382 1.822q.698-.72 1.474-1.305t1.643-1.012q.866-.428 1.856-.653.99-.225 2.16-.225 1.89 0 3.352.641 1.463.642 2.442 1.8.978 1.159 1.485 2.768.506 1.609.506 3.544V73.05h-5.558V58.358q0-2.115-.978-3.274-.979-1.159-2.937-1.159-1.44 0-2.7.653-1.26.652-2.385 1.777V73.05zm35.437-23.445q2.588 0 4.692.833 2.103.832 3.588 2.362 1.485 1.53 2.295 3.735.81 2.205.81 4.928 0 2.745-.81 4.95t-2.295 3.757q-1.485 1.553-3.588 2.385-2.104.833-4.692.833-2.587 0-4.702-.833-2.115-.832-3.611-2.385-1.497-1.552-2.318-3.757t-.821-4.95q0-2.723.821-4.928t2.318-3.735q1.496-1.53 3.611-2.362 2.115-.833 4.702-.833zm0 19.508q2.88 0 4.264-1.935 1.384-1.935 1.384-5.67t-1.384-5.693q-1.384-1.957-4.264-1.957-2.925 0-4.32 1.968-1.395 1.969-1.395 5.682 0 3.712 1.395 5.658 1.395 1.947 4.32 1.947zm12.915-19.148h4.41q.63 0 1.058.293.427.292.54.742l3.307 12.33q.27 1.013.439 1.98.169.968.326 1.935.248-.967.529-1.935.281-.967.596-1.98l3.825-12.375q.135-.45.54-.742.405-.293.945-.293h2.453q.607 0 1.012.293.405.292.54.742l3.78 12.6q.293.968.529 1.879.236.911.461 1.834.158-.968.349-1.935.191-.968.484-2.003L407.02 51q.112-.45.54-.742.427-.293.99-.293h4.207l-7.312 23.085h-4.478q-.72 0-1.035-.99l-4.162-13.342q-.203-.653-.371-1.317-.169-.663-.282-1.316-.135.675-.292 1.339-.158.664-.36 1.339l-4.208 13.297q-.315.99-1.215.99h-4.252zm44.325-10.35V73.05h-5.557V39.615zm15.818 9.99q2.182 0 4.016.698 1.834.697 3.161 2.036 1.328 1.339 2.07 3.285.743 1.946.743 4.444 0 .63-.056 1.046-.057.416-.203.652-.146.237-.394.338-.247.101-.63.101h-14.265q.248 3.555 1.913 5.22 1.665 1.665 4.41 1.665 1.35 0 2.329-.315.978-.315 1.71-.697.731-.383 1.282-.698.551-.315 1.069-.315.337 0 .585.135.247.135.427.383l1.62 2.025q-.922 1.08-2.07 1.811-1.147.731-2.396 1.17-1.249.439-2.542.619-1.294.18-2.509.18-2.408 0-4.478-.799t-3.6-2.363q-1.53-1.563-2.407-3.87-.878-2.306-.878-5.343 0-2.363.765-4.444t2.194-3.623q1.429-1.541 3.488-2.441 2.058-.9 4.646-.9zm.112 3.983q-2.43 0-3.802 1.372-1.373 1.373-1.755 3.893h10.44q0-1.08-.293-2.037-.292-.956-.9-1.676-.607-.72-1.53-1.136-.922-.416-2.16-.416zm30.645 19.462q-1.08 0-1.417-1.012l-.45-2.228q-.72.81-1.508 1.463-.787.652-1.698 1.125-.912.472-1.958.731-1.046.259-2.261.259-1.89 0-3.465-.788-1.575-.787-2.711-2.284-1.137-1.496-1.755-3.701-.619-2.205-.619-5.04 0-2.565.697-4.77.698-2.205 2.003-3.825 1.305-1.62 3.127-2.531 1.823-.911 4.095-.911 1.935 0 3.308.618 1.372.619 2.452 1.654V39.615h5.558V73.05zm-7.402-4.072q1.732 0 2.947-.72t2.295-2.048V55.86q-.945-1.147-2.058-1.62-1.114-.472-2.397-.472-1.26 0-2.283.472-1.024.473-1.733 1.429-.709.956-1.091 2.43-.383 1.474-.383 3.476 0 2.025.327 3.431.326 1.407.933 2.295.608.889 1.485 1.283.878.394 1.958.394zM485.77 49.56q1.485 0 2.79.304t2.385.889h6.637v2.07q0 .517-.27.81-.27.292-.922.405l-2.07.382q.225.585.349 1.238.123.652.123 1.372 0 1.71-.686 3.094t-1.89 2.351q-1.204.968-2.857 1.496-1.654.529-3.589.529-1.305 0-2.543-.247-1.08.652-1.08 1.462 0 .698.642 1.024.641.326 1.687.461t2.374.169q1.327.034 2.722.146 1.395.113 2.723.394 1.327.281 2.374.889 1.046.607 1.687 1.653.641 1.047.641 2.689 0 1.53-.753 2.97-.754 1.44-2.183 2.565-1.429 1.125-3.499 1.811-2.07.687-4.725.687-2.632 0-4.567-.507-1.935-.506-3.206-1.35-1.272-.843-1.902-1.946-.629-1.102-.629-2.295 0-1.62.989-2.722.99-1.103 2.745-1.755-.855-.473-1.372-1.26-.518-.788-.518-2.048 0-.517.18-1.069.18-.551.552-1.091.371-.54.933-1.024.563-.483 1.328-.866-1.755-.945-2.756-2.52-1.002-1.575-1.002-3.69 0-1.71.687-3.094.686-1.383 1.912-2.362 1.227-.979 2.903-1.496 1.676-.518 3.656-.518zm6.097 24.525q0-.675-.405-1.102-.405-.428-1.102-.664-.698-.236-1.631-.349-.934-.112-1.98-.169-1.047-.056-2.16-.112-1.114-.056-2.149-.191-.945.517-1.519 1.226t-.574 1.631q0 .608.304 1.136.304.529.968.912.664.382 1.721.596 1.057.214 2.587.214 1.553 0 2.678-.237 1.125-.236 1.856-.652.731-.416 1.069-.99.337-.574.337-1.249zm-6.097-13.14q1.035 0 1.8-.281.765-.281 1.271-.776.506-.495.765-1.193.259-.697.259-1.53 0-1.71-1.024-2.711t-3.071-1.001q-2.048 0-3.071 1.001-1.024 1.001-1.024 2.711 0 .81.259 1.508.258.697.765 1.203.506.507 1.282.788t1.789.281zm24.84-11.34q2.182 0 4.016.698 1.834.697 3.161 2.036 1.328 1.339 2.07 3.285.743 1.946.743 4.444 0 .63-.056 1.046-.057.416-.203.652-.146.237-.393.338-.248.101-.63.101h-14.266q.248 3.555 1.913 5.22 1.665 1.665 4.41 1.665 1.35 0 2.329-.315.978-.315 1.71-.697.731-.383 1.282-.698.551-.315 1.069-.315.337 0 .585.135.247.135.427.383l1.62 2.025q-.922 1.08-2.069 1.811-1.148.731-2.397 1.17-1.249.439-2.542.619-1.294.18-2.509.18-2.408 0-4.478-.799t-3.6-2.363q-1.53-1.563-2.407-3.87-.878-2.306-.878-5.343 0-2.363.765-4.444t2.194-3.623q1.429-1.541 3.488-2.441 2.058-.9 4.646-.9zm.112 3.983q-2.43 0-3.802 1.372-1.373 1.373-1.755 3.893h10.44q0-1.08-.293-2.037-.292-.956-.9-1.676-.607-.72-1.529-1.136-.923-.416-2.161-.416zM195.43 99.848q-.203.337-.428.506-.225.169-.585.169-.382 0-.888-.383-.507-.382-1.283-.844-.776-.461-1.867-.843-1.092-.383-2.644-.383-1.463 0-2.588.394t-1.878 1.069q-.754.675-1.137 1.586-.382.911-.382 1.969 0 1.35.664 2.238.663.889 1.755 1.519 1.091.63 2.475 1.091 1.383.462 2.835.957 1.451.495 2.835 1.113 1.383.619 2.475 1.564 1.091.945 1.755 2.318.663 1.372.663 3.375 0 2.115-.72 3.971-.72 1.856-2.103 3.229-1.384 1.372-3.398 2.16-2.014.787-4.579.787-3.127 0-5.703-1.136-2.577-1.136-4.399-3.071l1.26-2.07q.18-.248.439-.417.258-.168.573-.168.473 0 1.08.506.608.506 1.519 1.114.911.607 2.205 1.113 1.294.507 3.161.507 1.553 0 2.768-.428 1.215-.427 2.059-1.204.843-.776 1.293-1.856.45-1.08.45-2.407 0-1.463-.663-2.397-.664-.933-1.744-1.563-1.08-.63-2.464-1.069l-2.835-.9q-1.451-.461-2.835-1.069-1.384-.607-2.464-1.575-1.08-.967-1.743-2.419-.664-1.451-.664-3.588 0-1.71.664-3.308.663-1.597 1.923-2.835 1.26-1.237 3.117-1.98 1.856-.742 4.263-.742 2.7 0 4.928.855 2.227.855 3.892 2.475zm3.735 4.41h3.15q.495 0 .81.247.315.248.427.585l4.365 14.67q.18.81.338 1.564.157.754.27 1.519.18-.765.405-1.519.225-.754.472-1.564l4.815-14.76q.113-.337.394-.562.281-.225.709-.225h1.732q.45 0 .743.225.292.225.405.562l4.702 14.76q.248.788.439 1.553.191.765.371 1.507.113-.742.293-1.552t.382-1.508l4.455-14.67q.113-.36.428-.596t.742-.236h3.015l-7.38 22.792h-3.172q-.585 0-.81-.765l-5.04-15.457q-.18-.518-.293-1.047-.112-.528-.225-1.046-.112.518-.225 1.058-.112.54-.292 1.057l-5.108 15.435q-.247.765-.922.765h-3.015zm46.462-.36q2.048 0 3.78.686 1.733.686 2.993 1.98 1.26 1.294 1.969 3.195.708 1.901.708 4.331 0 .945-.202 1.26-.203.315-.765.315h-15.165q.045 2.16.585 3.758.54 1.597 1.485 2.666.945 1.069 2.25 1.597 1.305.529 2.925.529 1.507 0 2.599-.349 1.091-.348 1.878-.753.788-.405 1.317-.754.528-.349.911-.349.495 0 .765.383l1.125 1.462q-.743.9-1.778 1.564-1.035.664-2.216 1.091-1.181.428-2.441.641-1.26.214-2.498.214-2.362 0-4.353-.799-1.992-.798-3.443-2.34-1.451-1.541-2.261-3.813-.81-2.273-.81-5.22 0-2.385.731-4.455.731-2.07 2.104-3.589 1.372-1.519 3.352-2.385 1.98-.866 4.455-.866zm.09 2.947q-2.902 0-4.567 1.676-1.665 1.677-2.07 4.647h12.397q0-1.395-.382-2.554-.383-1.159-1.125-2.003-.743-.843-1.811-1.305-1.069-.461-2.442-.461zm30.51 20.205q-.855 0-1.08-.832l-.36-2.768q-1.462 1.778-3.341 2.846-1.879 1.069-4.309 1.069-1.957 0-3.555-.754-1.597-.753-2.722-2.216-1.125-1.462-1.733-3.645-.607-2.182-.607-5.017 0-2.52.675-4.692.675-2.171 1.946-3.768 1.271-1.598 3.094-2.509 1.822-.911 4.14-.911 2.092 0 3.577.708 1.485.709 2.655 1.992V93.908h4.005v33.142zm-7.762-2.925q1.957 0 3.431-.9t2.711-2.542v-11.025q-1.102-1.485-2.418-2.082-1.317-.596-2.914-.596-3.195 0-4.905 2.273-1.71 2.272-1.71 6.48 0 2.227.382 3.813.383 1.587 1.125 2.61.743 1.024 1.823 1.497 1.08.472 2.475.472zm25.897-20.227q2.048 0 3.78.686 1.733.686 2.993 1.98 1.26 1.294 1.969 3.195.708 1.901.708 4.331 0 .945-.202 1.26-.203.315-.765.315H287.68q.045 2.16.585 3.758.54 1.597 1.485 2.666.945 1.069 2.25 1.597 1.305.529 2.925.529 1.507 0 2.599-.349 1.091-.348 1.878-.753.788-.405 1.317-.754.528-.349.911-.349.495 0 .765.383l1.125 1.462q-.743.9-1.778 1.564-1.035.664-2.216 1.091-1.181.428-2.441.641-1.26.214-2.498.214-2.362 0-4.353-.799-1.992-.798-3.443-2.34-1.451-1.541-2.261-3.813-.81-2.273-.81-5.22 0-2.385.731-4.455.731-2.07 2.104-3.589 1.372-1.519 3.352-2.385 1.98-.866 4.455-.866zm.09 2.947q-2.902 0-4.567 1.676-1.665 1.677-2.07 4.647h12.397q0-1.395-.382-2.554-.383-1.159-1.125-2.003-.743-.843-1.811-1.305-1.069-.461-2.442-.461zm14.468 20.205v-22.792h2.385q.855 0 1.08.832l.315 2.475q1.485-1.642 3.319-2.655 1.833-1.012 4.241-1.012 1.867 0 3.296.618 1.429.619 2.385 1.755.956 1.137 1.451 2.734.495 1.598.495 3.533v14.512h-4.005v-14.512q0-2.588-1.181-4.017-1.181-1.428-3.611-1.428-1.778 0-3.319.855t-2.846 2.317v16.785z"/></svg>