<?xml version="1.0" encoding="UTF-8"?>
<!DOCTYPE svg PUBLIC "-//W3C//DTD SVG 1.1//EN" "http://www.w3.org/Graphics/SVG/1.1/DTD/svg11.dtd">
<svg version="1.1" xmlns="http://www.w3.org/2000/svg" xmlns:xlink="http://www.w3.org/1999/xlink" x="0" y="0" width="1000" height="600" viewBox="0, 0, 1000, 600">
  <g id="Layer_1">
    <path d="M231.67,268.425 C238.316,275.073 242.682,283.658 244.14,292.945 L263.24,273.845 L311.05,226.035 L274.05,189.035 L226.25,236.865 L226.25,169.245 L173.95,169.245 L173.95,263.875 C191.697,251.013 216.157,252.941 231.67,268.425 z" fill="#00D1FF"/>
    <path d="M244.14,307.045 C241.721,322.356 231.513,335.307 217.192,341.237 C202.87,347.168 186.495,345.224 173.96,336.105 L173.96,430.735 L226.25,430.735 L226.25,363.125 L274.07,410.935 L311.07,373.935 L263.25,326.115 z" fill="#00D1FF"/>
    <path d="M168.54,331.555 C151.107,314.122 151.107,285.858 168.54,268.425 C170.222,266.77 172.031,265.248 173.95,263.875 L173.95,236.875 L126.15,189.045 L89.15,226.045 L136.98,273.845 L69.36,273.845 L69.36,326.135 L136.98,326.135 L89.16,373.955 L126.16,410.955 L173.97,363.145 L173.97,336.145 C172.041,334.762 170.225,333.227 168.54,331.555 z" fill="#D9DBDC"/>
    <path d="M244.14,307.045 C241.083,326.124 226.093,341.067 207.005,344.065 C187.916,347.063 169.068,337.434 160.309,320.211 C151.551,302.987 154.873,282.084 168.54,268.425 C170.222,266.77 172.031,265.248 173.95,263.875 C186.487,254.751 202.867,252.805 217.192,258.738 C231.518,264.671 241.725,277.629 244.14,292.945 L263.24,273.845 L311.05,226.035 L274.05,189.035 L226.25,236.865 L226.25,169.245 L173.95,169.245 L173.95,236.865 L126.15,189.045 L89.15,226.045 L136.98,273.845 L69.36,273.845 L69.36,326.135 L136.98,326.135 L89.16,373.955 L126.16,410.955 L173.97,363.145 L173.97,430.755 L226.26,430.755 L226.26,363.125 L274.08,410.935 L311.08,373.935 L263.26,326.115 z M233.36,243.915 L274.12,203.155 L296.99,226.035 L256.18,266.785 L248.43,274.545 C245.877,269.69 242.603,265.249 238.72,261.375 C234.844,257.5 230.412,254.223 225.57,251.655 z M216.36,179.215 L216.36,247.815 C205.82,244.572 194.549,244.572 184.01,247.815 L184.01,179.245 z M103.36,226.035 L126.15,203.155 L163.98,240.995 L163.98,259.055 C163.1,259.825 162.27,260.595 161.49,261.375 C157.608,265.248 154.329,269.68 151.76,274.525 L144.03,266.785 z M79.36,316.165 L79.36,283.815 L147.92,283.815 C144.677,294.354 144.677,305.625 147.92,316.165 L79.36,316.165 z M164.01,358.985 L126.15,396.825 L103.27,373.955 L144.03,333.245 L151.76,325.505 C154.326,330.346 157.602,334.775 161.48,338.645 C162.27,339.435 163.1,340.205 163.98,340.975 z M216.31,363.125 L216.31,420.765 L183.93,420.765 L183.93,352.125 C194.469,355.368 205.74,355.368 216.28,352.125 z M274.1,396.825 L233.36,356.065 L225.62,348.325 C235.365,343.163 243.331,335.187 248.48,325.435 L256.23,333.185 L296.99,373.955 z" fill="#231F20"/>
    <path d="M448.83,294.158 Q448.83,305.288 445.12,314.773 Q441.41,324.258 434.69,331.188 Q427.97,338.117 418.52,342.003 Q409.07,345.888 397.59,345.888 Q386.11,345.888 376.625,342.003 Q367.14,338.117 360.385,331.188 Q353.63,324.258 349.92,314.773 Q346.21,305.288 346.21,294.158 Q346.21,283.027 349.92,273.542 Q353.63,264.057 360.385,257.128 Q367.14,250.197 376.625,246.312 Q386.11,242.427 397.59,242.427 Q409.07,242.427 418.52,246.348 Q427.97,250.267 434.69,257.163 Q441.41,264.057 445.12,273.542 Q448.83,283.027 448.83,294.158 z M429.51,294.158 Q429.51,285.827 427.305,279.212 Q425.1,272.598 420.97,267.978 Q416.84,263.357 410.925,260.908 Q405.01,258.457 397.59,258.457 Q390.17,258.457 384.22,260.908 Q378.27,263.357 374.105,267.978 Q369.94,272.598 367.7,279.212 Q365.46,285.827 365.46,294.158 Q365.46,302.487 367.7,309.103 Q369.94,315.717 374.105,320.302 Q378.27,324.888 384.22,327.338 Q390.17,329.787 397.59,329.787 Q405.01,329.787 410.925,327.338 Q416.84,324.888 420.97,320.302 Q425.1,315.717 427.305,309.103 Q429.51,302.487 429.51,294.158 z" fill="#000000"/>
    <path d="M462.62,368.218 L462.62,272.948 L473.19,272.948 Q474.87,272.948 476.06,273.717 Q477.25,274.487 477.6,276.098 L479,282.747 Q483.34,277.777 488.975,274.698 Q494.61,271.617 502.17,271.617 Q508.05,271.617 512.915,274.068 Q517.78,276.517 521.315,281.172 Q524.85,285.828 526.775,292.652 Q528.7,299.478 528.7,308.297 Q528.7,316.347 526.53,323.208 Q524.36,330.068 520.335,335.107 Q516.31,340.148 510.605,342.982 Q504.9,345.818 497.83,345.818 Q491.74,345.818 487.505,343.963 Q483.27,342.107 479.91,338.818 L479.91,368.218 z M496.22,285.267 Q490.83,285.267 487.015,287.543 Q483.2,289.818 479.91,293.948 L479.91,326.148 Q482.85,329.787 486.315,331.222 Q489.78,332.657 493.77,332.657 Q497.69,332.657 500.875,331.188 Q504.06,329.718 506.265,326.708 Q508.47,323.698 509.66,319.112 Q510.85,314.528 510.85,308.297 Q510.85,301.997 509.835,297.622 Q508.82,293.247 506.93,290.517 Q505.04,287.788 502.345,286.527 Q499.65,285.267 496.22,285.267 z" fill="#000000"/>
    <path d="M571.4,271.828 Q578.19,271.828 583.895,273.997 Q589.6,276.168 593.73,280.332 Q597.86,284.497 600.17,290.552 Q602.48,296.608 602.48,304.378 Q602.48,306.337 602.305,307.633 Q602.13,308.927 601.675,309.663 Q601.22,310.397 600.45,310.712 Q599.68,311.027 598.49,311.027 L554.11,311.027 Q554.88,322.088 560.06,327.268 Q565.24,332.448 573.78,332.448 Q577.98,332.448 581.025,331.468 Q584.07,330.487 586.345,329.297 Q588.62,328.107 590.335,327.128 Q592.05,326.148 593.66,326.148 Q594.71,326.148 595.48,326.568 Q596.25,326.987 596.81,327.758 L601.85,334.057 Q598.98,337.417 595.41,339.693 Q591.84,341.968 587.955,343.333 Q584.07,344.698 580.045,345.258 Q576.02,345.818 572.24,345.818 Q564.75,345.818 558.31,343.333 Q551.87,340.847 547.11,335.982 Q542.35,331.117 539.62,323.943 Q536.89,316.768 536.89,307.318 Q536.89,299.967 539.27,293.492 Q541.65,287.017 546.095,282.223 Q550.54,277.427 556.945,274.628 Q563.35,271.828 571.4,271.828 z M571.75,284.217 Q564.19,284.217 559.92,288.487 Q555.65,292.758 554.46,300.598 L586.94,300.598 Q586.94,297.237 586.03,294.263 Q585.12,291.288 583.23,289.048 Q581.34,286.807 578.47,285.513 Q575.6,284.217 571.75,284.217 z" fill="#000000"/>
    <path d="M616.48,344.768 L616.48,272.948 L627.05,272.948 Q630.41,272.948 631.46,276.098 L632.65,281.767 Q634.82,279.527 637.235,277.707 Q639.65,275.887 642.345,274.557 Q645.04,273.228 648.12,272.527 Q651.2,271.827 654.84,271.827 Q660.72,271.827 665.27,273.823 Q669.82,275.818 672.865,279.422 Q675.91,283.027 677.485,288.033 Q679.06,293.038 679.06,299.057 L679.06,344.768 L661.77,344.768 L661.77,299.057 Q661.77,292.478 658.725,288.872 Q655.68,285.267 649.59,285.267 Q645.11,285.267 641.19,287.297 Q637.27,289.327 633.77,292.827 L633.77,344.768 z" fill="#000000"/>
    <path d="M764.74,329.578 Q770.2,329.578 774.505,327.758 Q778.81,325.938 781.785,322.648 Q784.76,319.357 786.335,314.667 Q787.91,309.978 787.91,304.168 L787.91,243.547 L806.74,243.547 L806.74,304.168 Q806.74,313.198 803.835,320.862 Q800.93,328.528 795.47,334.092 Q790.01,339.657 782.24,342.773 Q774.47,345.888 764.74,345.888 Q755.01,345.888 747.24,342.773 Q739.47,339.657 734.045,334.092 Q728.62,328.528 725.715,320.862 Q722.81,313.198 722.81,304.168 L722.81,243.547 L741.64,243.547 L741.64,304.098 Q741.64,309.908 743.215,314.597 Q744.79,319.287 747.73,322.612 Q750.67,325.938 754.975,327.758 Q759.28,329.578 764.74,329.578 z" fill="#000000"/>
    <path d="M824.94,368.218 L824.94,272.948 L835.51,272.948 Q837.19,272.948 838.38,273.717 Q839.57,274.487 839.92,276.098 L841.32,282.747 Q845.66,277.777 851.295,274.698 Q856.93,271.617 864.49,271.617 Q870.37,271.617 875.235,274.068 Q880.1,276.517 883.635,281.172 Q887.17,285.828 889.095,292.652 Q891.02,299.478 891.02,308.297 Q891.02,316.347 888.85,323.208 Q886.68,330.068 882.655,335.107 Q878.63,340.148 872.925,342.982 Q867.22,345.818 860.15,345.818 Q854.06,345.818 849.825,343.963 Q845.59,342.107 842.23,338.818 L842.23,368.218 z M858.54,285.267 Q853.15,285.267 849.335,287.543 Q845.52,289.818 842.23,293.948 L842.23,326.148 Q845.17,329.787 848.635,331.222 Q852.1,332.657 856.09,332.657 Q860.01,332.657 863.195,331.188 Q866.38,329.718 868.585,326.708 Q870.79,323.698 871.98,319.112 Q873.17,314.528 873.17,308.297 Q873.17,301.997 872.155,297.622 Q871.14,293.247 869.25,290.517 Q867.36,287.788 864.665,286.527 Q861.97,285.267 858.54,285.267 z" fill="#000000"/>
    <path d="M928.4,243.548 L928.4,283.587 Q928.4,289.957 927.77,296.082 Q927.14,302.207 926.09,309.068 L914.4,309.068 Q913.35,302.207 912.72,296.082 Q912.09,289.957 912.09,283.587 L912.09,243.548 z M909.43,335.247 Q909.43,333.078 910.235,331.117 Q911.04,329.158 912.475,327.758 Q913.91,326.357 915.87,325.518 Q917.83,324.677 920.07,324.677 Q922.24,324.677 924.2,325.518 Q926.16,326.357 927.56,327.758 Q928.96,329.158 929.8,331.117 Q930.64,333.078 930.64,335.247 Q930.64,337.487 929.8,339.412 Q928.96,341.338 927.56,342.737 Q926.16,344.138 924.2,344.943 Q922.24,345.747 920.07,345.747 Q917.83,345.747 915.87,344.943 Q913.91,344.138 912.475,342.737 Q911.04,341.338 910.235,339.412 Q909.43,337.487 909.43,335.247 z" fill="#000000"/>
  </g>
</svg>
