<svg width="81" height="104" xmlns="http://www.w3.org/2000/svg"><g transform="translate(0 -1)" fill="none" fill-rule="evenodd"><path d="M29.514 1.624c2.217 0 4.212.358 5.99 1.073 1.776.716 3.299 1.696 4.569 2.942a12.824 12.824 0 0 1 2.908 4.328c.669 1.638 1.003 3.404 1.003 5.296 0 2.907-.611 5.424-1.834 7.547-1.224 2.122-3.22 3.738-5.988 4.845v.14c1.338.369 2.445.934 3.322 1.696a9.404 9.404 0 0 1 2.147 2.699 12.579 12.579 0 0 1 1.212 3.427c.252 1.246.426 2.493.518 3.739.045.786.094 1.708.139 2.77.046 1.062.127 2.145.242 3.254.113 1.108.299 2.158.554 3.15.254.993.633 1.835 1.141 2.527H34.569c-.6-1.569-.969-3.438-1.108-5.608a83.402 83.402 0 0 0-.623-6.231c-.37-2.585-1.154-4.477-2.354-5.678-1.201-1.199-3.162-1.8-5.885-1.8h-10.87v19.317H2.86V1.624h26.654zm-3.876 22.362c2.493 0 4.362-.554 5.608-1.661 1.246-1.108 1.869-2.909 1.869-5.401 0-2.398-.623-4.141-1.869-5.227-1.246-1.084-3.115-1.627-5.608-1.627H13.729v13.916h11.909z" fill="#000"/><path fill="#000" d="M50.56 51.057L61.429 51.057 61.429 1.625 50.56 1.625z"/><path fill="#BEBC00" d="M67.878 51.001L80.633 51.001 80.633 38.246 67.878 38.246z"/><path d="M11.762 91.571c.599 1.155 1.396 2.089 2.389 2.804.992.717 2.156 1.248 3.496 1.594 1.338.346 2.723.518 4.154.518.969 0 2.008-.079 3.115-.243a10.775 10.775 0 0 0 3.116-.934 6.789 6.789 0 0 0 2.423-1.905c.646-.805.969-1.834.969-3.079 0-1.34-.427-2.424-1.281-3.255-.854-.831-1.973-1.524-3.357-2.077-1.385-.554-2.955-1.039-4.708-1.453a128.536 128.536 0 0 1-5.331-1.386 46.773 46.773 0 0 1-5.4-1.696c-1.755-.668-3.324-1.533-4.708-2.596a12.197 12.197 0 0 1-3.358-3.98C2.426 72.291 2 70.363 2 68.103c0-2.539.542-4.745 1.627-6.614a14.754 14.754 0 0 1 4.258-4.673c1.754-1.246 3.738-2.169 5.954-2.77a25.414 25.414 0 0 1 6.646-.899c2.585 0 5.065.29 7.443.866 2.376.577 4.489 1.512 6.335 2.803a14.21 14.21 0 0 1 4.396 4.95c1.084 2.008 1.627 4.443 1.627 7.303H29.763c-.093-1.474-.405-2.698-.935-3.668-.531-.967-1.235-1.731-2.112-2.284-.877-.554-1.881-.945-3.011-1.177-1.132-.231-2.366-.346-3.704-.346-.877 0-1.755.094-2.631.277a7.063 7.063 0 0 0-2.389.969 5.986 5.986 0 0 0-1.766 1.731c-.461.692-.692 1.569-.692 2.632 0 .967.185 1.754.555 2.353.368.599 1.095 1.153 2.18 1.662 1.084.508 2.585 1.014 4.5 1.522a758.04 758.04 0 0 0 7.512 1.94c.923.184 2.204.518 3.843 1.003 1.638.485 3.264 1.258 4.88 2.319 1.616 1.063 3.013 2.481 4.19 4.258 1.177 1.777 1.765 4.05 1.765 6.818 0 2.264-.439 4.363-1.315 6.301-.878 1.938-2.181 3.613-3.913 5.02-1.73 1.409-3.877 2.504-6.438 3.289-2.562.784-5.528 1.176-8.897 1.176-2.724 0-5.365-.336-7.926-1.003-2.563-.67-4.824-1.719-6.786-3.15C4.711 99.279 3.154 97.457 2 95.24.846 93.026.292 90.396.338 87.349h10.524c0 1.659.3 3.069.9 4.222" fill="#000"/><path fill="#000" d="M80.614 54.324L80.614 63.463 56.377 63.463 56.377 74.055 79.143 74.055 79.143 82.501 56.377 82.501 56.377 94.618 80.583 94.618 80.583 103.756 45.506 103.756 45.506 54.324 80.614 54.324"/></g></svg>