<svg viewBox="0 0 396.9 116.6" xmlns="http://www.w3.org/2000/svg"><g fill="#59a732"><path d="m307.7 59.5 4.5.1-.3 10.7s4.8 4 6.3 5.7 3 6.6 5.1 7.7c2.1 1.2 2.7.9 9.6.5s8.4 0 10.2-1 3.6-3.7 5.7-5.9 3.3-3.3 5.1-3.7 4.2.5 4.2.5-3 .1-3.3 1.2c-.3 1-1.8 4.8-3.3 6-1.5 1.3 0 3-5.4 4.1-5.4 1.2-12 2.1-14.1 3.3-2.1 1.3-2.7 3.9-2.7 3.9l.3 8.5s.9 1 2.4 1.7c1.5.6 4.5 1.7 7.2 1.9 2.7.3 5.1 1.8 3.6 2.2s-4.8-.3-4.8-.3-1.2-.8-3.9-.6c-2.7.1-2.4-.8-4.8-.8s-5.1-.5-6.3.1-6 1.5-6.9 2.2c-.9.6-2.7 1-2.7 1s-1.5-.9-.3-1.7 1.2-1.5 1.2-1.5-3.3-.8-6-.1c-2.7.6-4.8 1.3-6 1.3s-2.1-.5-2.1-.5.3-.6 4.2-1.8 6.6-1.3 9-2.1.9-.4 2.4-.8.6-4.5.3-6.7-2.4-5.4-2.1-7.2-.6-6.3-1.5-7.5-4.2-2.3-6-3c-1.8-.6.6-1.2-3-1.3s-5.4-.4-7.5-.8-3.3-.4-4.2-1.5c-.9-1.2-1.5-1.9-2.7-2.4s-3.6-2.2-3.6-2.2l1.2-.9s4.8 2.7 6.6 3.5 4.2 1.8 6.6 1.9 5.7 1.2 6.9.8 0-5.1.3-6.3.6-6.6.6-7.5zm-11.9-16.3c-2.5-.3-4.2-2.5-3.9-5s2.5-4.2 5-3.9 4.2 2.5 3.9 5c-.3 2.4-2.5 4.2-5 3.9m14.4-.4c.2-.7.4-1.5.5-2.3.1-1 .1-1.9.1-2.8l3.8-.8-.7-3.7-3.9.8c-.6-1.7-1.5-3.2-2.6-4.5l2.6-2.8-3-2.7-2.6 2.9c-1.4-1-3-1.7-4.8-2.1l.4-3.8-3.8-.5-.5 3.9c-1.8.1-3.5.5-5.1 1.2l-1.9-3.3-3.3 1.9 1.9 3.4c-1.4 1.1-2.5 2.4-3.4 3.9l-3.5-1.6-1.6 3.5 3.6 1.7c-.2.7-.3 1.4-.4 2.1-.1 1-.1 2.1 0 3l-3.8.8.7 3.7 4-.8c.6 1.6 1.5 3.1 2.6 4.4l-2.7 2.9 2.8 2.6 2.8-3c1.4.9 3 1.6 4.7 2l-.5 4 3.8.5.5-4.1c1.8-.1 3.4-.5 5-1.1l2 3.5 3.3-1.9-2-3.6c1.4-1.1 2.5-2.3 3.4-3.8l3.6 1.7 1.6-3.5zm9.2-23.3c-1.5-.2-2.5-1.5-2.4-3 .2-1.5 1.5-2.5 3-2.4 1.5.2 2.5 1.5 2.4 3-.2 1.5-1.5 2.6-3 2.4m8.7-.3c.1-.4.2-.9.3-1.4.1-.6.1-1.1 0-1.7l2.3-.5-.4-2.3-2.3.5c-.4-1-.9-1.9-1.6-2.7l1.6-1.7-1.7-1.6-1.6 1.7c-.9-.6-1.8-1-2.9-1.3l.3-2.3-2.3-.3-.3 2.3c-1.1 0-2.1.3-3.1.7l-1.1-2-2 1.1 1.2 2.1c-.8.7-1.5 1.5-2.1 2.4l-2.1-1-1 2.1 2.2 1c-.1.4-.2.8-.2 1.3-.1.6-.1 1.2 0 1.8l-2.3.5.5 2.3 2.4-.5c.4 1 .9 1.9 1.6 2.7l-1.6 1.8 1.7 1.6 1.4-1.8c.8.6 1.8 1 2.8 1.2l-.3 2.4 2.3.3.3-2.5c1.1 0 2.1-.3 3-.7l1.2 2.1 2-1.1-1.2-2.1c.8-.6 1.5-1.4 2.1-2.3l2.2 1 1-2.1zm40.7 24.2c-1.1-.1-1.9-1.1-1.7-2.2.1-1.1 1.1-1.9 2.2-1.7 1.1.1 1.9 1.1 1.7 2.2-.1 1.1-1.1 1.9-2.2 1.7m6.3-.2c.1-.3.2-.7.2-1 .1-.4.1-.8 0-1.2l1.7-.3-.3-1.7-1.7.3c-.3-.7-.7-1.4-1.2-2l1.1-1.2-1.2-1.1-1.2 1.3c-.6-.4-1.3-.7-2.1-.9l.2-1.7-1.7-.2-.2 1.7c-.8 0-1.6.2-2.3.5l-.8-1.5-1.5.8.8 1.5c-.6.5-1.1 1.1-1.5 1.7l-1.5-.7-.7 1.5 1.6.7c-.1.3-.1.6-.2.9-.1.5-.1.9 0 1.3l-1.7.3.3 1.7 1.7-.3c.3.7.7 1.4 1.2 1.9l-1.2 1.3 1.2 1.1 1.2-1.3c.6.4 1.3.7 2.1.9l-.2 1.8 1.7.2.2-1.8c.8 0 1.5-.2 2.2-.5l.9 1.5 1.5-.8-.9-1.6c.6-.5 1.1-1 1.5-1.7l1.6.7.7-1.5zm-100.3 18.6c-1.1-.1-1.9-1.1-1.7-2.2.1-1.1 1.1-1.9 2.2-1.7 1.1.1 1.9 1.1 1.7 2.2-.1 1-1.1 1.8-2.2 1.7m6.3-.2c.1-.3.2-.7.2-1 .1-.4.1-.8 0-1.2l1.7-.3-.3-1.7-1.7.3c-.3-.7-.7-1.4-1.2-2l1.1-1.2-1.2-1.1-1.2 1.3c-.6-.4-1.3-.7-2.1-.9l.2-1.7-1.7-.2-.2 1.7c-.8 0-1.6.2-2.3.5l-.8-1.5-1.5.8.8 1.5c-.6.5-1.1 1.1-1.5 1.7l-1.5-.7-.7 1.5 1.6.7c-.1.3-.1.6-.2.9-.1.5-.1.9 0 1.3l-1.7.3.3 1.7 1.7-.3c.3.7.7 1.4 1.2 1.9l-1.2 1.3 1.2 1.1 1.2-1.3c.6.4 1.3.7 2.1.9l-.2 1.8 1.7.2.2-1.8c.8 0 1.5-.2 2.2-.5l.9 1.5 1.5-.8-.9-1.6c.6-.5 1.1-1 1.5-1.7l1.6.7.7-1.5zm80.4-31.3c-.6-.1-1-.6-.9-1.1.1-.6.6-1 1.1-.9.6.1 1 .6.9 1.1s-.6.9-1.1.9m3.2-.2c.1-.2.1-.3.1-.5v-.6l.9-.2-.2-.8-.9.2c-.1-.4-.3-.7-.6-1l.6-.6-.6-.6-.6.6c-.3-.2-.7-.4-1.1-.5l.1-.9-.9-.1-.1.9c-.4 0-.8.1-1.2.3l-.4-.7-.8.4.4.8c-.3.2-.6.5-.8.9l-.8-.4-.4.8.8.4c0 .2-.1.3-.1.5v.7l-.9.2.2.8.9-.2c.1.4.3.7.6 1l-.6.7.6.6.6-.7c.3.2.7.4 1.1.5l-.1.9.9.1.1-.9c.4 0 .8-.1 1.1-.2l.4.8.8-.4-.5-.8c.3-.2.6-.5.8-.9l.8.4.4-.8zm3.4 34.8c-1.2-.1-2-1.2-1.8-2.3.1-1.2 1.2-2 2.3-1.8 1.2.1 2 1.2 1.8 2.3-.1 1.1-1.2 2-2.3 1.8m6.7-.2c.1-.3.2-.7.2-1.1.1-.4.1-.9 0-1.3l1.8-.4-.3-1.7-1.8.4c-.3-.8-.7-1.5-1.2-2.1l1.2-1.3-1.3-1.2-1.2 1.3c-.7-.5-1.4-.8-2.2-1l.2-1.8-1.8-.2-.2 1.8c-.8 0-1.6.2-2.4.5l-.9-1.6-1.6.9.9 1.6c-.6.5-1.2 1.1-1.6 1.8l-1.6-.8-.7 1.6 1.7.8c-.1.3-.2.6-.2 1-.1.5-.1 1 0 1.4l-1.8.4.3 1.8 1.9-.4c.3.8.7 1.5 1.2 2.1l-1.3 1.4 1.3 1.2 1.3-1.4c.7.4 1.4.8 2.2.9l-.2 1.9 1.8.2.2-1.9c.8 0 1.6-.2 2.3-.5l.9 1.6 1.6-.9-.9-1.7c.6-.5 1.2-1.1 1.6-1.8l1.7.8.7-1.6zm-27.4-40.7c-1.1-.1-1.9-1.1-1.7-2.2.1-1.1 1.1-1.9 2.2-1.7 1.1.1 1.9 1.1 1.7 2.2s-1.2 1.8-2.2 1.7m6.3-.2c.1-.3.2-.7.2-1 .1-.4.1-.8 0-1.2l1.7-.3-.3-1.7-1.7.3c-.3-.7-.7-1.4-1.2-2l1.1-1.2-1.2-1.1-1.2 1.3c-.6-.4-1.3-.7-2.1-.9l.2-1.7-1.7-.2-.2 1.7c-.8 0-1.6.2-2.3.5l-.8-1.5-1.5.8.8 1.5c-.6.5-1.1 1.1-1.5 1.7l-1.5-.7-.7 1.5 1.6.7c-.1.3-.1.6-.2.9-.1.5-.1.9 0 1.3l-1.7.3.3 1.7 1.7-.3c.3.7.7 1.4 1.2 1.9l-1.2 1.3 1.2 1.1 1.2-1.3c.6.4 1.3.7 2.1.9v1.9l1.7.2.2-1.8c.8 0 1.5-.2 2.2-.5l.9 1.5 1.5-.8-.9-1.6c.6-.5 1.1-1 1.5-1.7l1.6.7.7-1.5z"/><path d="m336.9 58.5c-3 0-5.5-2.5-5.5-5.5s2.5-5.5 5.5-5.5 5.5 2.5 5.5 5.5-2.4 5.5-5.5 5.5m17.4-2.7c.2-.9.2-1.9.2-2.9 0-1.2-.1-2.3-.3-3.4l4.5-1.5-1.4-4.4-4.6 1.5c-1-1.9-2.3-3.6-3.8-5.1l2.7-3.8-3.8-2.7-2.8 3.8c-1.9-1-3.9-1.6-6.1-1.8v-4.6h-4.7v4.7c-2.2.3-4.2 1.1-6 2.1l-2.7-3.8-3.8 2.7 2.8 3.9c-1.5 1.5-2.7 3.3-3.6 5.3l-4.5-1.5-1.4 4.4 4.6 1.5c-.1.9-.2 1.7-.2 2.6 0 1.3.1 2.5.4 3.7l-4.6 1.5 1.4 4.4 4.7-1.5c1 1.9 2.3 3.6 3.8 5l-2.9 3.9 3.8 2.7 2.9-4c1.8.9 3.9 1.5 6 1.8v4.9h4.7v-5c2.1-.3 4.1-1 5.9-2.1l2.9 4 3.8-2.7-2.9-4c1.5-1.5 2.7-3.2 3.6-5.1l4.6 1.5 1.4-4.4zm-320.7 31.8c-5.4 0-11.1-.8-12.7-1.3v-4.3c3.5.4 7.7.8 12.7.8 6.1 0 9.1-2.1 9.1-7.3 0-3.5-1.3-5.6-6.1-7.8l-7.6-3.4c-6-2.6-9.2-5.9-9.2-12.1 0-7.3 4.8-10.8 14.6-10.8 5.4 0 10.7.8 12.3 1.2v4.4c-2.7-.3-7.8-.8-12.1-.8-5.9 0-9.2 1.4-9.2 6 0 3.4 1.3 5.3 6 7.5l7.7 3.4c6.3 2.8 9.3 6.2 9.3 12.4 0 7.7-4.9 12.1-14.8 12.1m40-16.7h-4.9c-7 0-9.8.8-9.8 6.1v1.6c0 3.7 2.3 4.7 5.5 4.7 3.9 0 7.8-1.7 9.2-2.6zm.3 15.9v-2.2c-2 1.4-5.6 3.1-10.5 3.1-6.2 0-9.9-2.8-9.9-9.4v-1.2c0-8.7 6-10.2 15.2-10.2h4.9v-2.4c0-5.7-1.1-7-7.8-7-3.7 0-6.6.3-10.2.7v-3.8c1-.4 5.5-1.4 10.6-1.4 11 0 12.7 4 12.7 11.5v22.4h-5zm49.7 0v-21.9c0-4.6 0-7.3-4.9-7.3-2.3 0-5.5 1.1-8.4 2.8.2 1.6.2 3.1.2 4.6v21.9h-5.4v-22c0-4.6 0-7.3-4.5-7.3-2.9 0-6.2 1.5-8.6 2.9v26.4h-5.4v-33.2h5.4v2.6c2.7-2 6.1-3.4 9.9-3.4s6 1.4 7.3 3.5c3.8-2.5 7.2-3.5 10.2-3.5 9.6 0 9.6 6.9 9.6 12v21.9zm34.8-20c0-6.7-2.1-9.3-7.8-9.3-1.7 0-5.7.3-8.2 1.7v23.3c1.5.1 3.9.3 6.9.3 6.2 0 9.1-2.5 9.1-10.4zm-9.3 20.8c-4.1 0-6.6-.2-12.1-.8v-46.5h5.4v14.7c2.9-1.6 6.2-2.2 8.9-2.2 8.5 0 12.5 4.5 12.5 14.1v5.6c0 10.6-4.9 15.1-14.7 15.1m26.8-27.1v26.3h-5.3v-33.1h5.3v2.6c3.1-2.5 7.2-3.5 11.8-3.5v4.8c-4.5.1-9.3 1.3-11.8 2.9m37.2 26.3v-2.6c-4.4 2.2-8.1 3.4-11.5 3.4-8.2 0-9.8-5.7-9.8-12.8v-21.1h5.4v21.1c0 6 1 8.2 5.6 8.2 2.6 0 6-1 10.3-2.9v-26.4h5.4v33.1z"/><path d="m245.2 86.8-13.3-16.4v16.4h-5.4v-46.5h5.4v28.3l13.3-14.9h6.9l-14.3 15.7 14.6 17.4z"/><path d="m251.4 106.2c.3-.2.5-.4.7-.7s.3-.6.4-1 .1-.7.1-1.1 0-.7-.1-1-.2-.6-.4-.9-.4-.5-.7-.7-.6-.2-1.1-.2c-.4 0-.8.1-1.1.2-.3.2-.5.4-.7.6-.2.3-.3.6-.4.9-.1.4-.1.7-.1 1.1s0 .7.1 1.1.2.7.4 1 .4.5.7.7.7.3 1.1.3c.5-.1.8-.2 1.1-.3m1.7 3.6c-.6.6-1.5 1-2.8 1-.4 0-.7 0-1.1-.1s-.7-.2-1.1-.4c-.3-.2-.6-.4-.8-.7s-.3-.7-.3-1.1h1.3c0 .2.1.4.2.6s.3.3.5.4.4.2.7.2c.2 0 .5.1.7.1.4 0 .8-.1 1.1-.2s.5-.4.7-.6c.2-.3.3-.6.4-1s.1-.8.1-1.2v-.5c-.2.5-.6.9-1 1.1-.5.2-.9.3-1.5.3s-1.1-.1-1.6-.3c-.4-.2-.8-.5-1.1-.9s-.5-.8-.7-1.3-.2-1-.2-1.6c0-.5.1-1 .2-1.5s.3-1 .6-1.4.7-.7 1.1-1c.5-.3 1.1-.4 1.7-.4.5 0 1 .1 1.4.3s.8.6 1 1v-1.1h1.2v7.3c.2 1.3-.1 2.3-.7 3m-13.3-10.3v1.3c.5-1 1.4-1.5 2.6-1.5.5 0 1 .1 1.3.2.4.1.6.3.9.6.2.3.4.6.5.9.1.4.1.7.1 1.2v5.3h-1.3v-5.4c0-.5-.1-.9-.4-1.2s-.7-.4-1.2-.4c-.4 0-.8.1-1 .2-.3.1-.5.3-.7.5s-.3.5-.4.8-.1.6-.1 1v4.5h-1.3v-8zm-3.3 8h-1.3v-8h1.3zm-1.3-11h1.3v1.6h-1.3zm-2.2 11h-1.3v-11h1.3zm-8-11v6.5l3.7-3.5h1.8l-3.2 2.9 3.4 5.1h-1.7l-2.7-4.2-1.2 1.1v3h-1.3v-11h1.2zm-4.9 4.4c-.3-.3-.8-.4-1.3-.4s-.9.1-1.2.3-.6.4-.8.7-.3.6-.4 1-.1.8-.1 1.2 0 .7.1 1.1c.1.3.2.7.4.9.2.3.4.5.7.7s.7.2 1.1.2c.6 0 1.2-.2 1.5-.5.4-.3.6-.8.7-1.4h1.3c-.1 1-.5 1.8-1.1 2.3s-1.4.8-2.4.8c-.6 0-1.1-.1-1.6-.3s-.9-.5-1.2-.8c-.3-.4-.6-.8-.7-1.3-.2-.5-.2-1-.2-1.6s.1-1.2.2-1.7c.2-.5.4-1 .7-1.4s.7-.7 1.2-.9 1-.3 1.7-.3c.5 0 .9.1 1.3.2s.7.3 1 .5.6.5.8.9c.2.3.3.8.4 1.2h-1.4c-.2-.7-.4-1.1-.7-1.4m-7.4 6.1c-.6.5-1.4.7-2.3.7-.6 0-1.2-.1-1.7-.3s-.9-.5-1.2-.9-.6-.8-.7-1.3c-.2-.5-.2-1.1-.3-1.7 0-.6.1-1.2.3-1.7s.4-.9.8-1.3c.3-.4.7-.7 1.2-.9s1-.3 1.5-.3c.7 0 1.3.1 1.8.4s.8.7 1.1 1.1c.3.5.5.9.6 1.5.1.5.2 1 .1 1.5h-6c0 .4 0 .7.1 1s.2.6.4.8.5.4.8.6c.3.1.7.2 1.1.2.6 0 1-.1 1.4-.4s.6-.6.7-1.2h1.3c0 1.1-.4 1.7-1 2.2m-.3-5.2c-.1-.3-.3-.5-.5-.7s-.4-.4-.7-.5-.6-.2-.9-.2-.6.1-.9.2-.5.3-.7.5-.3.4-.5.7c-.1.3-.2.6-.2.9h4.6c-.1-.3-.1-.6-.2-.9m-10.9 5.7-3-8h1.5l2.2 6.7 2.2-6.7h1.4l-2.9 8zm-3.7-8v1.2h-1.6v5.4c0 .1.1.2.1.2.1.1.2.1.3.1h1.1v1.2h-1c-.3 0-.6 0-.9-.1-.2 0-.4-.1-.6-.3-.1-.1-.3-.3-.3-.5-.1-.2-.1-.5-.1-.9v-5.1h-1.4v-1.2h1.4v-2.4h1.3v2.4zm-6.6 8v-1.3c-.3.5-.6.9-1.1 1.1-.4.2-.9.3-1.5.3-.5 0-1-.1-1.3-.2s-.6-.3-.8-.6-.4-.6-.5-.9c-.1-.4-.1-.8-.1-1.2v-5.3h1.3v5.4c0 .5.1.9.4 1.2s.7.4 1.2.4c.4 0 .7-.1 1-.2s.5-.3.7-.5.3-.5.4-.8.1-.6.1-1v-4.5h1.3v8h-1.1zm-12.1-1.8c.1.2.3.4.5.5s.4.2.7.3c.3 0 .5.1.8.1h.7c.2 0 .4-.1.6-.2s.3-.2.5-.4c.1-.2.2-.4.2-.6 0-.3-.1-.6-.4-.8s-.6-.3-1-.4-.8-.2-1.3-.3-.9-.2-1.3-.4-.7-.4-1-.7-.4-.7-.4-1.2c0-.4.1-.7.3-1s.4-.5.7-.7.6-.3 1-.4.7-.1 1.1-.1c.5 0 .9 0 1.3.1s.7.2 1 .4.5.5.7.8.3.7.3 1.2h-1.3c0-.3-.1-.5-.2-.6-.1-.2-.3-.3-.4-.4-.2-.1-.4-.2-.6-.2s-.4-.1-.6-.1h-.6c-.2 0-.4.1-.6.2s-.3.2-.4.3-.2.3-.2.5.1.4.2.6c.2.1.4.3.6.4s.5.2.8.2c.3.1.6.1.9.2s.7.2 1 .3.6.2.8.4l.6.6c.1.3.2.6.2 1 0 .5-.1.9-.3 1.2s-.5.6-.8.8-.7.3-1.1.4-.8.1-1.2.1-.9 0-1.3-.1-.8-.2-1.1-.5c-.3-.2-.6-.5-.7-.8-.2-.3-.3-.8-.3-1.3h1.3zm-2.5-6.2v1.2h-1.6v5.4c0 .1.1.2.1.2.1.1.2.1.3.1h1.1v1.2h-1c-.3 0-.6 0-.9-.1-.2 0-.4-.1-.6-.3-.2-.1-.3-.3-.3-.5-.1-.2-.1-.5-.1-.9v-5.1h-1.4v-1.2h1.4v-2.4h1.3v2.4zm-6 7.5c-.6.5-1.4.7-2.3.7-.6 0-1.2-.1-1.7-.3s-.9-.5-1.2-.9-.6-.8-.7-1.3c-.2-.5-.2-1.1-.3-1.7 0-.6.1-1.2.3-1.7s.4-.9.8-1.3c.3-.4.7-.7 1.2-.9s1-.3 1.5-.3c.7 0 1.3.1 1.8.4s.8.7 1.1 1.1c.3.5.5.9.6 1.5.1.5.2 1 .1 1.5h-6c0 .4 0 .7.1 1s.2.6.4.8.5.4.8.6c.3.1.7.2 1.1.2.6 0 1-.1 1.4-.4s.6-.6.7-1.2h1.3c-.1 1.1-.4 1.7-1 2.2m-.4-5.2c-.1-.3-.3-.5-.5-.7s-.4-.4-.7-.5-.6-.2-.9-.2-.6.1-.9.2-.5.3-.7.5-.3.4-.5.7c-.1.3-.2.6-.2.9h4.6c0-.3 0-.6-.2-.9m-12.6-5.3v4.2c.1-.2.2-.5.4-.6.2-.2.4-.3.6-.4s.5-.2.7-.2c.3-.1.5-.1.7-.1.5 0 1 .1 1.3.2.4.1.6.3.9.6.2.3.4.6.5.9.1.4.1.7.1 1.2v5.3h-1.3v-5.4c0-.5-.1-.9-.4-1.2s-.7-.4-1.2-.4c-.4 0-.8.1-1 .2-.3.1-.5.3-.7.5s-.3.5-.4.8-.1.6-.1 1v4.5h-1.3v-11h1.2zm-13.3 3v1.2c.6-.9 1.5-1.4 2.6-1.4.5 0 .9.1 1.3.3s.7.6.9 1.1c.3-.4.6-.8 1.1-1 .4-.2.9-.4 1.4-.4.4 0 .8 0 1.1.1s.6.2.8.4.4.4.5.7.2.6.2 1.1v5.9h-1.2v-5.2c0-.2 0-.5-.1-.7 0-.2-.1-.4-.2-.6s-.3-.3-.5-.4-.5-.1-.8-.1c-.7 0-1.2.2-1.5.6-.4.4-.6.9-.6 1.5v5h-1.3v-5.2c0-.3 0-.5-.1-.7 0-.2-.1-.4-.2-.6s-.3-.3-.5-.4-.4-.1-.7-.1c-.4 0-.7.1-1 .2-.3.2-.5.3-.7.6-.2.2-.3.4-.4.7-.1.2-.1.4-.1.6v5h-1.3v-8h1.3zm-5.2 4.1c-.3.1-.5.1-.8.1s-.6.1-.9.1-.6.1-.8.2-.4.2-.6.4c-.1.2-.2.5-.2.8 0 .2 0 .4.1.5.1.2.2.3.3.4s.3.2.5.2.4.1.6.1c.4 0 .8-.1 1.1-.2s.6-.3.8-.4c.2-.2.3-.4.4-.6s.1-.4.1-.6v-1.3c-.1.2-.3.3-.6.3m1.8 4.1c-.3 0-.6-.1-.8-.3s-.3-.5-.3-.9c-.4.4-.8.7-1.3.9s-1 .3-1.6.3c-.4 0-.7 0-1-.1s-.6-.2-.8-.4-.4-.4-.6-.7c-.1-.3-.2-.6-.2-1 0-.5.1-.8.2-1.1.2-.3.4-.5.6-.7.3-.2.5-.3.9-.4.3-.1.7-.2 1-.2.4-.1.7-.1 1-.2.3 0 .6-.1.9-.2l.6-.3c.1-.1.2-.3.2-.6s-.1-.5-.2-.7-.2-.3-.4-.4-.4-.2-.6-.2h-.6c-.6 0-1 .1-1.4.3s-.6.6-.6 1.2h-1.3c0-.5.1-.9.3-1.3.2-.3.4-.6.7-.8s.7-.4 1.1-.5.8-.1 1.3-.1c.4 0 .7 0 1.1.1s.7.2 1 .3c.3.2.5.4.7.7s.3.7.3 1.1v4.1c0 .3 0 .5.1.7 0 .1.2.2.4.2.1 0 .2 0 .4-.1v1c-.3.2-.7.3-1.1.3m-12.8-2c.1.2.3.4.5.5s.4.2.7.3c.3 0 .5.1.8.1h.7c.2 0 .4-.1.6-.2s.3-.2.5-.4c.1-.2.2-.4.2-.6 0-.3-.1-.6-.4-.8s-.6-.3-1-.4-.8-.2-1.3-.3-.9-.2-1.3-.4-.7-.4-1-.7-.4-.7-.4-1.2c0-.4.1-.7.3-1s.4-.5.7-.7.6-.3 1-.4.7-.1 1.1-.1c.5 0 .9 0 1.3.1s.7.2 1 .4.5.5.7.8.3.7.3 1.2h-1.3c0-.3-.1-.5-.2-.6-.1-.2-.3-.3-.4-.4-.2-.1-.4-.2-.6-.2s-.4-.1-.6-.1h-.6c-.2 0-.4.1-.5.2-.2.1-.3.2-.4.3s-.2.3-.2.5.1.4.2.6c.2.1.4.3.6.4s.5.2.8.2c.3.1.6.1.9.2s.7.2 1 .3.6.2.8.4l.6.6c.1.3.2.6.2 1 0 .5-.1.9-.3 1.2s-.5.6-.8.8-.7.3-1.1.4-.8.1-1.2.1-.9 0-1.3-.1-.8-.2-1.1-.5c-.3-.2-.6-.5-.7-.8-.2-.3-.3-.8-.3-1.3h1.3c0 .2 0 .4.2.6m-7.7-9.2v6.5l3.7-3.5h1.8l-3.2 2.9 3.4 5.1h-1.7l-2.7-4.2-1.2 1.1v3h-1.3v-11h1.2zm-5.3 3v1.7c.3-.6.7-1.1 1.2-1.4s1.1-.5 1.8-.4v1.4c-.5 0-1 .1-1.3.2-.4.1-.7.4-.9.6-.2.3-.4.6-.5 1s-.2.9-.2 1.4v3.6h-1.3v-8h1.2zm-3.9 7.5c-.6.5-1.4.7-2.3.7-.6 0-1.2-.1-1.7-.3s-.9-.5-1.2-.9-.6-.8-.7-1.3c-.2-.5-.2-1.1-.3-1.7 0-.6.1-1.2.3-1.7s.4-.9.8-1.3c.3-.4.7-.7 1.2-.9s1-.3 1.5-.3c.7 0 1.3.1 1.8.4s.8.7 1.1 1.1c.3.5.5.9.6 1.5.1.5.2 1 .1 1.5h-6c0 .4 0 .7.1 1s.2.6.4.8.5.4.8.6c.3.1.7.2 1.1.2.6 0 1-.1 1.4-.4s.6-.6.7-1.2h1.3c0 1.1-.4 1.7-1 2.2m-.3-5.2c-.1-.3-.3-.5-.5-.7s-.4-.4-.7-.5-.6-.2-.9-.2-.6.1-.9.2-.5.3-.7.5-.4.4-.5.7-.2.6-.2.9h4.6c0-.3-.1-.6-.2-.9m-10.9 5.7-3-8h1.5l2.2 6.7 2.2-6.7h1.4l-2.9 8h-1.4zm-8.5 0h-1.3v-11h1.3zm-5.4-3.9c-.3.1-.5.1-.8.1s-.6.1-.9.1-.6.1-.8.2-.4.2-.6.4c-.1.2-.2.5-.2.8 0 .2 0 .4.1.5.1.2.2.3.3.4s.3.2.5.2.4.1.6.1c.4 0 .8-.1 1.1-.2s.6-.3.8-.4c.2-.2.3-.4.4-.6s.1-.4.1-.6v-1.3c-.1.2-.3.3-.6.3m1.8 4.1c-.3 0-.6-.1-.8-.3s-.3-.5-.3-.9c-.4.4-.8.7-1.3.9s-1 .3-1.6.3c-.4 0-.7 0-1-.1s-.6-.2-.8-.4-.4-.4-.6-.7c-.1-.3-.2-.6-.2-1 0-.5.1-.8.2-1.1.2-.3.4-.5.6-.7.3-.2.5-.3.9-.4.3-.1.7-.2 1-.2.4-.1.7-.1 1-.2.3 0 .6-.1.9-.2l.6-.3c.1-.1.2-.3.2-.6s-.1-.5-.2-.7-.2-.3-.4-.4-.4-.2-.6-.2h-.6c-.6 0-1 .1-1.4.3s-.6.6-.6 1.2h-1.3c0-.5.1-.9.3-1.3.2-.3.4-.6.7-.8s.7-.4 1.1-.5.8-.1 1.3-.1c.4 0 .7 0 1.1.1s.7.2 1 .3c.3.2.5.4.7.7s.3.7.3 1.1v4.1c0 .3 0 .5.1.7 0 .1.2.2.4.2.1 0 .2 0 .4-.1v1c-.3.2-.7.3-1.1.3m-13.5-8.2v1.3c.5-1 1.4-1.5 2.6-1.5.5 0 1 .1 1.3.2.4.1.6.3.9.6.2.3.4.6.5.9.1.4.1.7.1 1.2v5.3h-1.3v-5.4c0-.5-.1-.9-.4-1.2s-.7-.4-1.2-.4c-.4 0-.7.1-1 .2s-.5.3-.7.5-.3.5-.4.8-.1.6-.1 1v4.5h-1.3v-8zm-4.4 8v-1.3c-.3.5-.6.9-1.1 1.1-.4.2-.9.3-1.5.3-.5 0-1-.1-1.3-.2-.4-.1-.6-.3-.8-.6s-.4-.6-.5-.9c-.1-.4-.1-.8-.1-1.2v-5.3h1.3v5.4c0 .5.1.9.4 1.2s.7.4 1.2.4c.4 0 .7-.1 1-.2s.5-.3.7-.5.3-.5.4-.8.1-.6.1-1v-4.5h1.3v8h-1.1zm-17.4-8v1.2c.6-.9 1.5-1.4 2.6-1.4.5 0 .9.1 1.3.3s.7.6.9 1.1c.3-.4.6-.8 1.1-1 .4-.2.9-.4 1.4-.4.4 0 .8 0 1.1.1s.6.2.8.4.4.4.5.7.2.6.2 1.1v5.9h-1.3v-5.2c0-.2 0-.5-.1-.7 0-.2-.1-.4-.2-.6s-.3-.3-.5-.4-.5-.1-.8-.1c-.7 0-1.2.2-1.5.6-.4.4-.6.9-.6 1.5v5h-1.3v-5.2c0-.3 0-.5-.1-.7 0-.2-.1-.4-.2-.6s-.3-.3-.5-.4-.4-.1-.7-.1c-.4 0-.7.1-1 .2-.3.2-.5.3-.7.6-.2.2-.3.4-.4.7-.1.2-.1.4-.1.6v5h-1.3v-8h1.4zm-13.1 0v1.2c.6-.9 1.5-1.4 2.6-1.4.5 0 .9.1 1.3.3s.7.6.9 1.1c.3-.4.6-.8 1.1-1 .4-.2.9-.4 1.4-.4.4 0 .8 0 1.1.1s.6.2.8.4.4.4.5.7.2.6.2 1.1v5.9h-1.3v-5.2c0-.2 0-.5-.1-.7 0-.2-.1-.4-.2-.6s-.3-.3-.5-.4-.5-.1-.8-.1c-.7 0-1.2.2-1.5.6-.4.4-.6.9-.6 1.5v5h-1.3v-5.2c0-.3 0-.5-.1-.7 0-.2-.1-.4-.2-.6s-.3-.3-.5-.4-.4-.1-.7-.1c-.4 0-.7.1-1 .2-.3.2-.5.3-.7.6-.2.2-.3.4-.4.7-.1.2-.1.4-.1.6v5h-1.3v-8h1.4zm-10.3 2.4c.2-.5.4-1 .7-1.3.3-.4.7-.7 1.2-.9s1-.3 1.7-.3c.6 0 1.2.1 1.7.3s.9.5 1.2.9.6.8.7 1.3c.2.5.2 1.1.2 1.6 0 .6-.1 1.1-.2 1.6-.2.5-.4.9-.7 1.3s-.7.7-1.2.9-1 .3-1.7.3c-.6 0-1.2-.1-1.7-.3s-.9-.5-1.2-.9-.6-.8-.7-1.3c-.2-.5-.2-1.1-.2-1.6-.1-.6 0-1.1.2-1.6m1.3 2.9c.1.4.3.7.5.9.2.3.5.4.8.6.3.1.6.2 1 .2.3 0 .7-.1 1-.2s.6-.3.8-.6.4-.6.5-.9c.1-.4.2-.8.2-1.3s-.1-.9-.2-1.3-.3-.7-.5-1-.5-.5-.8-.6-.6-.2-1-.2c-.3 0-.7.1-1 .2s-.6.3-.8.6-.4.6-.5 1-.2.8-.2 1.3.1.9.2 1.3m-7.8-8.3v6.5l3.7-3.5h1.8l-3.2 2.9 3.4 5.1h-1.7l-2.7-4.2-1.2 1.1v3h-1.3v-11h1.2z"/></g></svg>