<?xml version="1.0" encoding="utf-8"?>
<!-- Generator: Adobe Illustrator 16.0.0, SVG Export Plug-In . SVG Version: 6.00 Build 0)  -->
<!DOCTYPE svg PUBLIC "-//W3C//DTD SVG 1.1//EN" "http://www.w3.org/Graphics/SVG/1.1/DTD/svg11.dtd">
<svg version="1.1" id="Layer_1" xmlns="http://www.w3.org/2000/svg" xmlns:xlink="http://www.w3.org/1999/xlink" x="0px" y="0px"
	 width="356px" height="345px" viewBox="0 0 356 345" enable-background="new 0 0 356 345" xml:space="preserve">
<polyline fill="#333333" points="80.769,271.494 46.276,238.362 109.25,238.25 "/>
<polygon fill="#E860DB" points="156.281,141.311 80.83,141.311 126.568,76.218 202.02,76.218 "/>
<polygon fill="#68A3FF" points="231.732,141.311 156.281,141.311 202.02,76.218 277.47,76.218 "/>
<polygon fill="#48B55F" points="202.02,206.402 126.568,206.402 80.83,141.311 156.281,141.311 "/>
<polygon fill="#F4AE22" points="277.47,206.402 202.02,206.402 156.281,141.311 231.732,141.311 "/>
<polygon fill="#EF5B5B" points="156.281,271.494 80.83,271.494 126.568,206.402 202.02,206.402 "/>
<polygon points="231.732,271.494 156.281,271.494 202.02,206.402 277.47,206.402 "/>
<line fill="none" stroke="#000000" stroke-width="10" stroke-miterlimit="10" x1="299.982" y1="120.875" x2="276.327" y2="157.13"/>
<line fill="none" stroke="#000000" stroke-width="10" stroke-miterlimit="10" x1="276.613" y1="120.692" x2="299.697" y2="157.313"/>
<rect x="8" y="8" fill="none" stroke="#333333" stroke-width="10" stroke-miterlimit="10" width="338.5" height="329"/>
</svg>
