<svg xmlns="http://www.w3.org/2000/svg" viewBox="0 0 841.9 373.2"><linearGradient id="a" gradientUnits="userSpaceOnUse" x1="597.894" y1="135.833" x2="778.289" y2="316.228"><stop offset="0" stop-color="#F36C42" stop-opacity=".2"/><stop offset="1" stop-color="#F36C42"/><stop offset="1" stop-color="#F36C42"/></linearGradient><path fill="url(#a)" d="M782.8 52.5l-56.3 54.1c21.5 18.7 34.5 46.2 34.5 78.5 0 55.8-48.2 104.4-111.5 104.4-54.2 0-96.7-33.5-135-68.3l-51.1 49.1c51.6 46.5 110.7 90.3 184.9 90.3 111.5 0 192.6-81.9 192.6-175.6 0-54.7-21.5-101.1-58.1-132.5z"/><linearGradient id="b" gradientUnits="userSpaceOnUse" x1="92.025" y1="-5.875" x2="589.163" y2="281.147"><stop offset=".19" stop-color="#FDD2BD"/><stop offset=".244" stop-color="#FAB99B"/><stop offset=".316" stop-color="#F79D79"/><stop offset=".387" stop-color="#F58861"/><stop offset=".455" stop-color="#F47950"/><stop offset=".519" stop-color="#F37045"/><stop offset=".577" stop-color="#F36C42"/><stop offset="1" stop-color="#F36C42"/></linearGradient><path fill="url(#b)" d="M653.3 80.6c8.1 0 15.9.8 23.3 2.3l60.6-58.3c-23.4-9.8-49.9-15.2-78.9-15.2-102.6 0-169.8 66.5-234.4 127C372.2 87.9 314 30 240 13.8v73.6c52.6 17.1 93.8 63.4 133.3 97.6-48.2 46.3-106.4 104.4-178.7 104.4-62.1 0-107.7-43.9-107.7-104.4 0-52.8 43.1-99.1 101.4-104V9.8C82.7 15.1 7.1 94.5 7.1 185c0 102 76 175.6 182.5 175.6 98.1 0 163.8-60.7 225.9-119 2.9-2.7 5.7-5.4 8.5-8l58.2-55.9c46.6-44.8 102.6-97.1 171.1-97.1z"/></svg>